<svg width="20" height="20" viewBox="0 0 20 20" fill="none" xmlns="http://www.w3.org/2000/svg">
<path d="M9.94947 1.26563H11.2148C11.5514 1.26563 11.8242 1.53845 11.8242 1.875C11.8242 2.21155 11.5514 2.48438 11.2148 2.48438H9.99609C8.06379 2.48438 6.67586 2.48567 5.61963 2.62768C4.58092 2.76733 3.95471 3.03293 3.49187 3.49577C3.02902 3.95862 2.76342 4.58483 2.62377 5.62353C2.48176 6.67976 2.48047 8.06769 2.48047 10C2.48047 11.9323 2.48176 13.3202 2.62377 14.3765C2.76342 15.4152 3.02902 16.0414 3.49187 16.5042C3.95471 16.9671 4.58092 17.2327 5.61963 17.3723C6.67586 17.5143 8.06379 17.5156 9.99609 17.5156C11.9284 17.5156 13.3163 17.5143 14.3726 17.3723C15.4113 17.2327 16.0375 16.9671 16.5003 16.5042C16.9632 16.0414 17.2288 15.4152 17.3684 14.3765C17.5104 13.3202 17.5117 11.9323 17.5117 10V8.78125C17.5117 8.4447 17.7845 8.17188 18.1211 8.17188C18.4576 8.17188 18.7305 8.4447 18.7305 8.78125V10.0466C18.7305 11.9222 18.7305 13.392 18.5763 14.5389C18.4185 15.7127 18.0891 16.639 17.3621 17.366C16.6351 18.093 15.7088 18.4224 14.535 18.5802C13.3881 18.7344 11.9183 18.7344 10.0427 18.7344H9.94948C8.07391 18.7344 6.60406 18.7344 5.45723 18.5802C4.28338 18.4224 3.35711 18.093 2.63008 17.366C1.90305 16.639 1.57371 15.7127 1.41589 14.5389C1.2617 13.392 1.26171 11.9222 1.26172 10.0466V9.95338C1.26171 8.07781 1.2617 6.60797 1.41589 5.46114C1.57371 4.28729 1.90305 3.36102 2.63008 2.63399C3.35711 1.90695 4.28338 1.57761 5.45723 1.41979C6.60406 1.26561 8.0739 1.26561 9.94947 1.26563Z" fill="#636674"/>
<path fill-rule="evenodd" clip-rule="evenodd" d="M12.6367 4.3125C12.6367 2.62976 14.0009 1.26563 15.6836 1.26563C17.3663 1.26563 18.7305 2.62976 18.7305 4.3125C18.7305 5.99524 17.3663 7.35938 15.6836 7.35938C14.0009 7.35938 12.6367 5.99524 12.6367 4.3125ZM15.6836 2.48438C14.6739 2.48438 13.8555 3.30285 13.8555 4.3125C13.8555 5.32215 14.6739 6.14062 15.6836 6.14062C16.6932 6.14062 17.5117 5.32215 17.5117 4.3125C17.5117 3.30285 16.6932 2.48438 15.6836 2.48438Z" fill="#636674"/>
<path d="M11.418 8.375C11.418 8.71155 11.6908 8.98438 12.0273 8.98438H12.5874L10.9522 10.6196C10.8729 10.6989 10.7443 10.6989 10.665 10.6196L9.37651 9.33113C8.82123 8.77585 7.92095 8.77585 7.36568 9.33113L5.5027 11.1941C5.26472 11.4321 5.26472 11.8179 5.5027 12.0559C5.74068 12.2939 6.12651 12.2939 6.36449 12.0559L8.22746 10.1929C8.30679 10.1136 8.4354 10.1136 8.51472 10.1929L9.80318 11.4814C10.3585 12.0366 11.2587 12.0366 11.814 11.4814L13.4492 9.84616V10.4062C13.4492 10.7428 13.722 11.0156 14.0586 11.0156C14.3951 11.0156 14.668 10.7428 14.668 10.4062V8.375C14.668 8.03845 14.3951 7.76562 14.0586 7.76562H12.0273C11.6908 7.76562 11.418 8.03845 11.418 8.375Z" fill="#636674"/>
</svg>
