<svg width="20" height="21" viewBox="0 0 20 21" fill="none" xmlns="http://www.w3.org/2000/svg">
<path d="M7.32959 9.65381H3.27344C2.71484 9.64111 2.23877 9.43481 1.84521 9.03491C1.45166 8.63501 1.25488 8.16211 1.25488 7.61621C1.25488 7.60352 1.25488 7.59717 1.25488 7.59717V3.54102C1.26758 2.98242 1.47388 2.50635 1.87378 2.11279C2.27368 1.71924 2.75293 1.52246 3.31152 1.52246H7.36768C7.93896 1.52246 8.42456 1.72241 8.82446 2.12231C9.22437 2.52222 9.42432 3.00781 9.42432 3.5791V7.63525C9.41162 8.19385 9.20532 8.66992 8.80542 9.06348C8.40552 9.45703 7.92627 9.65381 7.36768 9.65381C7.36768 9.65381 7.3645 9.65381 7.35815 9.65381C7.35181 9.65381 7.34229 9.65381 7.32959 9.65381ZM3.27344 2.74121C3.04492 2.74121 2.85132 2.82056 2.69263 2.97925C2.53394 3.13794 2.45459 3.33154 2.45459 3.56006V7.61621C2.45459 7.84473 2.53394 8.03833 2.69263 8.19702C2.85132 8.35571 3.04492 8.43506 3.27344 8.43506H7.32959C7.55811 8.43506 7.75171 8.35571 7.9104 8.19702C8.06909 8.03833 8.14844 7.84473 8.14844 7.61621V3.56006C8.14844 3.33154 8.06909 3.13794 7.9104 2.97925C7.75171 2.82056 7.55811 2.74121 7.32959 2.74121H3.27344ZM16.6416 9.65381H12.5854C12.0142 9.65381 11.5286 9.45386 11.1287 9.05396C10.7288 8.65405 10.5288 8.16846 10.5288 7.59717V3.54102C10.5288 2.98242 10.7288 2.50317 11.1287 2.10327C11.5286 1.70337 12.0142 1.50342 12.5854 1.50342H16.6416C17.2129 1.50342 17.6985 1.70337 18.0984 2.10327C18.4983 2.50317 18.6982 2.98242 18.6982 3.54102V7.59717C18.6982 7.59717 18.6982 7.60352 18.6982 7.61621C18.6982 8.16211 18.5015 8.63501 18.1079 9.03491C17.7144 9.43481 17.2383 9.64111 16.6797 9.65381H16.6416ZM12.5854 2.74121C12.3569 2.74121 12.1633 2.82056 12.0046 2.97925C11.8459 3.13794 11.7666 3.33154 11.7666 3.56006V7.61621C11.7666 7.84473 11.8459 8.03833 12.0046 8.19702C12.1633 8.35571 12.3569 8.43506 12.5854 8.43506H16.6416C16.8701 8.43506 17.0637 8.35571 17.2224 8.19702C17.3811 8.03833 17.4604 7.84473 17.4604 7.61621V3.56006C17.4604 3.33154 17.3811 3.13794 17.2224 2.97925C17.0637 2.82056 16.8701 2.74121 16.6416 2.74121H12.5854ZM16.5845 19.0039H12.6616C12.0903 19.0039 11.6047 18.804 11.2048 18.4041C10.8049 18.0042 10.605 17.5186 10.605 16.9473V12.8911C10.605 12.3198 10.8049 11.8342 11.2048 11.4343C11.6047 11.0344 12.0903 10.8345 12.6616 10.8345H16.6797C17.2383 10.8345 17.7175 11.0344 18.1174 11.4343C18.5173 11.8342 18.7173 12.3198 18.7173 12.8911V16.9473C18.7173 17.5186 18.5173 18.0042 18.1174 18.4041C17.7175 18.804 17.2383 19.0039 16.6797 19.0039H16.5845ZM12.5664 12.0913C12.3506 12.0913 12.1633 12.1707 12.0046 12.3293C11.8459 12.488 11.7666 12.6816 11.7666 12.9102V16.9663C11.7666 17.1948 11.8459 17.3884 12.0046 17.5471C12.1633 17.7058 12.3506 17.7852 12.5664 17.7852H16.5845C16.813 17.7852 17.0066 17.7058 17.1653 17.5471C17.324 17.3884 17.4033 17.1948 17.4033 16.9663V12.9102C17.4033 12.6816 17.324 12.488 17.1653 12.3293C17.0066 12.1707 16.813 12.0913 16.5845 12.0913H12.5664ZM7.25342 19.0039H3.17822C2.61963 19.0039 2.14038 18.804 1.74048 18.4041C1.34058 18.0042 1.14062 17.5186 1.14062 16.9473V12.8911C1.14062 12.3198 1.34058 11.8342 1.74048 11.4343C2.14038 11.0344 2.61963 10.8345 3.17822 10.8345H7.25342C7.81201 10.8345 8.29126 11.0344 8.69116 11.4343C9.09106 11.8342 9.29102 12.3198 9.29102 12.8911V16.9473C9.29102 17.5059 9.10059 17.9819 8.71973 18.3755C8.33887 18.769 7.87549 18.9785 7.32959 19.0039H7.25342ZM3.17822 12.0913C2.9624 12.0913 2.77515 12.1707 2.61646 12.3293C2.45776 12.488 2.37842 12.6816 2.37842 12.9102V16.9663C2.37842 17.1948 2.45776 17.3884 2.61646 17.5471C2.77515 17.7058 2.9624 17.7852 3.17822 17.7852H7.25342C7.46924 17.7852 7.65649 17.7058 7.81519 17.5471C7.97388 17.3884 8.05322 17.1948 8.05322 16.9663V12.9102C8.05322 12.6816 7.97388 12.488 7.81519 12.3293C7.65649 12.1707 7.46924 12.0913 7.25342 12.0913H3.17822Z" fill="#636674"/>
</svg>
