<svg width="20" height="20" viewBox="0 0 20 20" fill="none" xmlns="http://www.w3.org/2000/svg">
<path fill-rule="evenodd" clip-rule="evenodd" d="M7.55859 1.26562C5.42712 1.26562 3.69922 2.99353 3.69922 5.125C3.69922 7.25647 5.42712 8.98438 7.55859 8.98438C9.69007 8.98438 11.418 7.25647 11.418 5.125C11.418 2.99353 9.69007 1.26562 7.55859 1.26562ZM4.91797 5.125C4.91797 3.66662 6.10022 2.48438 7.55859 2.48438C9.01697 2.48438 10.1992 3.66662 10.1992 5.125C10.1992 6.58338 9.01697 7.76562 7.55859 7.76562C6.10022 7.76562 4.91797 6.58338 4.91797 5.125Z" fill="#636674"/>
<path d="M12.4336 2.07812C12.097 2.07812 11.8242 2.35095 11.8242 2.6875C11.8242 3.02405 12.097 3.29688 12.4336 3.29688C13.4432 3.29688 14.2617 4.11535 14.2617 5.125C14.2617 6.13465 13.4432 6.95312 12.4336 6.95312C12.097 6.95312 11.8242 7.22595 11.8242 7.5625C11.8242 7.89905 12.097 8.17188 12.4336 8.17188C14.1163 8.17188 15.4805 6.80774 15.4805 5.125C15.4805 3.44226 14.1163 2.07812 12.4336 2.07812Z" fill="#636674"/>
<path fill-rule="evenodd" clip-rule="evenodd" d="M3.23459 11.2353C4.37158 10.5856 5.90163 10.2031 7.55859 10.2031C9.21555 10.2031 10.7456 10.5856 11.8826 11.2353C13.0023 11.8752 13.8555 12.852 13.8555 14.0625C13.8555 15.273 13.0023 16.2498 11.8826 16.8897C10.7456 17.5394 9.21555 17.9219 7.55859 17.9219C5.90163 17.9219 4.37158 17.5394 3.23459 16.8897C2.11484 16.2498 1.26172 15.273 1.26172 14.0625C1.26172 12.852 2.11484 11.8752 3.23459 11.2353ZM3.83926 12.2935C2.90054 12.8299 2.48047 13.4781 2.48047 14.0625C2.48047 14.6469 2.90054 15.2951 3.83926 15.8315C4.76074 16.3581 6.07443 16.7031 7.55859 16.7031C9.04275 16.7031 10.3564 16.3581 11.2779 15.8315C12.2167 15.2951 12.6367 14.6469 12.6367 14.0625C12.6367 13.4781 12.2167 12.8299 11.2779 12.2935C10.3564 11.7669 9.04275 11.4219 7.55859 11.4219C6.07443 11.4219 4.76074 11.7669 3.83926 12.2935Z" fill="#636674"/>
<path d="M15.0016 11.0298C14.6729 10.9577 14.348 11.1657 14.2759 11.4945C14.2038 11.8232 14.4118 12.1481 14.7406 12.2202C15.3844 12.3614 15.8989 12.6039 16.2384 12.8818C16.5785 13.16 16.6992 13.4318 16.6992 13.6562C16.6992 13.8599 16.6012 14.0991 16.3311 14.35C16.059 14.6028 15.6409 14.8364 15.1017 14.9987C14.7794 15.0958 14.5968 15.4357 14.6938 15.7579C14.7909 16.0802 15.1308 16.2628 15.453 16.1657C16.1214 15.9645 16.7189 15.6532 17.1606 15.243C17.6041 14.8309 17.918 14.2889 17.918 13.6562C17.918 12.9536 17.5326 12.366 17.0102 11.9386C16.4874 11.5107 15.7832 11.2012 15.0016 11.0298Z" fill="#636674"/>
</svg>
