<svg width="20" height="21" viewBox="0 0 20 21" fill="none" xmlns="http://www.w3.org/2000/svg">
<path fill-rule="evenodd" clip-rule="evenodd" d="M9.38112 3.52409C8.88221 3.59002 8.26614 3.73153 7.38976 3.93378L6.39186 4.16406C5.65166 4.33488 5.14191 4.45329 4.75256 4.58692C4.37668 4.71593 4.16403 4.8431 4.00357 5.00357C3.8431 5.16403 3.71593 5.37668 3.58692 5.75257C3.45329 6.14191 3.33488 6.65166 3.16406 7.39186L2.93378 8.38976C2.73153 9.26614 2.59002 9.88221 2.52409 10.3811C2.45986 10.8672 2.47467 11.196 2.56041 11.495C2.64615 11.794 2.80789 12.0807 3.11996 12.4588C3.44029 12.8469 3.88681 13.2943 4.52279 13.9303L6.00937 15.4169C7.11395 16.5215 7.89995 17.3057 8.57569 17.8212C9.23737 18.3261 9.72122 18.5156 10.2131 18.5156C10.7051 18.5156 11.1889 18.3261 11.8506 17.8212C12.5263 17.3057 13.3123 16.5215 14.4169 15.4169C15.5215 14.3123 16.3057 13.5263 16.8212 12.8506C17.3261 12.1889 17.5156 11.7051 17.5156 11.2131C17.5156 10.7212 17.3261 10.2374 16.8212 9.57569C16.3057 8.89995 15.5215 8.11395 14.4169 7.00937L12.9303 5.52279C12.2943 4.88681 11.8469 4.44029 11.4588 4.11996C11.0807 3.80788 10.7939 3.64615 10.495 3.56041C10.196 3.47467 9.86717 3.45986 9.38112 3.52409ZM9.22145 2.31585C9.80426 2.23882 10.3153 2.241 10.831 2.38889C11.3466 2.53677 11.7812 2.80579 12.2346 3.18C12.6729 3.54175 13.161 4.02989 13.7708 4.63973L15.3112 6.18004C16.376 7.24491 17.2191 8.08799 17.7902 8.83642C18.3777 9.60651 18.7344 10.3476 18.7344 11.2131C18.7344 12.0787 18.3777 12.8198 17.7902 13.5899C17.2191 14.3383 16.376 15.1814 15.3111 16.2462L15.2462 16.3111C14.1814 17.376 13.3383 18.2191 12.5899 18.7902C11.8198 19.3777 11.0787 19.7344 10.2131 19.7344C9.3476 19.7344 8.60651 19.3777 7.83642 18.7902C7.08798 18.2191 6.24489 17.376 5.18002 16.3111L3.63971 14.7708C3.02989 14.161 2.54174 13.6729 2.18 13.2346C1.80579 12.7812 1.53677 12.3466 1.38889 11.831C1.241 11.3153 1.23882 10.8043 1.31585 10.2214C1.3903 9.65804 1.54554 8.98539 1.73947 8.14506L1.98376 7.08647C2.14558 6.38519 2.27754 5.81332 2.43417 5.35693C2.59776 4.8803 2.8038 4.47977 3.14178 4.14178C3.47977 3.8038 3.8803 3.59776 4.35693 3.43417C4.81332 3.27754 5.38519 3.14558 6.08647 2.98375L7.14505 2.73947C7.98538 2.54554 8.65804 2.3903 9.22145 2.31585ZM7.96139 7.74605C7.56476 7.34943 6.9217 7.34943 6.52508 7.74605C6.12845 8.14268 6.12845 8.78574 6.52508 9.18236C6.9217 9.57899 7.56476 9.57899 7.96139 9.18236C8.35801 8.78574 8.35801 8.14268 7.96139 7.74605ZM5.66329 6.88427C6.53587 6.01169 7.9506 6.01169 8.82317 6.88427C9.69575 7.75685 9.69575 9.17157 8.82317 10.0442C7.9506 10.9167 6.53587 10.9167 5.66329 10.0442C4.79071 9.17157 4.79071 7.75685 5.66329 6.88427ZM15.729 10.1795C15.967 10.4175 15.967 10.8033 15.729 11.0413L10.0586 16.7119C9.8206 16.9499 9.43477 16.9499 9.19679 16.712C8.95881 16.474 8.9588 16.0881 9.19677 15.8502L14.8672 10.1795C15.1052 9.94155 15.491 9.94154 15.729 10.1795Z" fill="#636674"/>
</svg>
