<svg width="20" height="20" viewBox="0 0 20 20" fill="none" xmlns="http://www.w3.org/2000/svg">
<path d="M2.48047 1.875C2.48047 1.53845 2.20764 1.26562 1.87109 1.26562C1.53455 1.26562 1.26172 1.53845 1.26172 1.875V10.0466C1.26171 11.9222 1.2617 13.392 1.41589 14.5389C1.57371 15.7127 1.90305 16.639 2.63008 17.366C3.35711 18.093 4.28338 18.4224 5.45723 18.5802C6.60406 18.7344 8.07391 18.7344 9.94948 18.7344H18.1211C18.4576 18.7344 18.7305 18.4615 18.7305 18.125C18.7305 17.7885 18.4576 17.5156 18.1211 17.5156H9.99609C8.06379 17.5156 6.67586 17.5143 5.61963 17.3723C4.58092 17.2327 3.95471 16.9671 3.49187 16.5042C3.02902 16.0414 2.76342 15.4152 2.62377 14.3765C2.48176 13.3202 2.48047 11.9323 2.48047 10V1.875Z" fill="#636674"/>
<path d="M16.1609 6.31646C16.3702 6.0529 16.3262 5.66959 16.0627 5.46029C15.7991 5.251 15.4158 5.29499 15.2065 5.55854L12.6731 8.74874C12.4739 8.99967 12.3431 9.16375 12.2355 9.28195C12.1301 9.39757 12.0807 9.43036 12.0582 9.44239C11.887 9.53393 11.6823 9.53839 11.5073 9.45437C11.4843 9.44333 11.4334 9.41272 11.3232 9.3018C11.2105 9.18839 11.0727 9.03016 10.8627 8.78813L10.8496 8.773C10.6564 8.55025 10.4915 8.36027 10.3461 8.214C10.195 8.06194 10.0297 7.92008 9.82499 7.82184C9.2998 7.56979 8.68592 7.58314 8.17218 7.85778C7.97193 7.96483 7.81296 8.11374 7.66858 8.27223C7.52968 8.42469 7.37328 8.62164 7.18987 8.8526L4.64389 12.0585C4.43459 12.3221 4.47857 12.7054 4.74213 12.9147C5.00568 13.124 5.389 13.08 5.5983 12.8165L8.13182 9.62621C8.33109 9.37529 8.46181 9.21122 8.56949 9.09302C8.67482 8.97741 8.72425 8.94462 8.74675 8.93259C8.918 8.84105 9.12262 8.8366 9.29769 8.92061C9.32069 8.93165 9.3715 8.96226 9.48175 9.07318C9.59448 9.18659 9.7322 9.34482 9.94219 9.58684L9.95531 9.60196C10.1486 9.82473 10.3134 10.0147 10.4588 10.161C10.61 10.313 10.7752 10.4549 10.98 10.5531C11.5052 10.8052 12.119 10.7918 12.6328 10.5172C12.833 10.4101 12.992 10.2612 13.1364 10.1027C13.2753 9.95027 13.4317 9.75332 13.6151 9.52237L16.1609 6.31646Z" fill="#636674"/>
</svg>
