<svg width="1186" height="899" viewBox="0 0 1186 899" fill="none" xmlns="http://www.w3.org/2000/svg">
<g opacity="0.7">
<g filter="url(#filter0_f_537_663)">
<path d="M-209 639.958C-209 639.958 -59.9825 213.048 410.19 341.191C880.363 469.333 1029.38 42.4231 1029.38 42.4231" stroke="url(#paint0_radial_537_663)" stroke-width="169.83"/>
</g>
<g filter="url(#filter1_f_537_663)">
<path d="M-209 639.958C-209 639.958 -59.9825 213.048 410.19 341.191C880.363 469.333 1029.38 42.4231 1029.38 42.4231" stroke="url(#paint1_radial_537_663)" stroke-width="169.83"/>
</g>
</g>
<path d="M620.736 255.585H401.891C396.369 255.585 391.891 260.062 391.891 265.585V541.061C391.891 546.584 396.369 551.061 401.891 551.061H620.736C626.259 551.061 630.736 546.584 630.736 541.061V265.585C630.736 260.062 626.259 255.585 620.736 255.585Z" fill="url(#paint2_linear_537_663)"/>
<path d="M574.901 222.215C581.804 222.094 581.925 231.68 588.829 231.559C595.733 231.437 595.612 221.851 602.516 221.73C609.419 221.608 609.54 231.195 616.444 231.073C623.348 230.952 623.227 221.366 630.13 221.244C637.034 221.123 637.155 230.709 644.059 230.588C650.963 230.467 650.842 220.88 657.745 220.759C664.649 220.638 664.77 230.224 671.795 230.103" stroke="black" stroke-width="1.5" stroke-miterlimit="10" stroke-linecap="round" stroke-linejoin="round"/>
<path d="M336.428 524.972C343.332 524.85 343.211 515.264 350.115 515.143C357.019 515.021 357.14 524.608 364.043 524.486C370.947 524.365 370.826 514.779 377.73 514.657C384.633 514.536 384.755 524.122 391.658 524.001C398.562 523.879 398.441 514.293 405.345 514.172" stroke="black" stroke-width="1.5" stroke-miterlimit="10" stroke-linecap="round" stroke-linejoin="round"/>
<path d="M238.798 474.249L229.472 483.714L220.025 474.249L229.351 464.784L238.798 474.249Z" stroke="black" stroke-width="1.5" stroke-miterlimit="10" stroke-linecap="round" stroke-linejoin="round"/>
<path d="M511.314 291.139L501.866 300.604L492.54 291.139L501.866 281.674L511.314 291.139Z" stroke="black" stroke-width="1.5" stroke-miterlimit="10" stroke-linecap="round" stroke-linejoin="round"/>
<path d="M547.043 620.106H655.565" stroke="black" stroke-miterlimit="10"/>
<path d="M222.689 218.453L236.134 232.044" stroke="black" stroke-width="1.5" stroke-miterlimit="10" stroke-linecap="round" stroke-linejoin="round"/>
<path d="M236.134 218.453L222.689 232.044" stroke="black" stroke-width="1.5" stroke-miterlimit="10" stroke-linecap="round" stroke-linejoin="round"/>
<path d="M648.782 261.652L662.348 275.243" stroke="black" stroke-width="1.5" stroke-miterlimit="10" stroke-linecap="round" stroke-linejoin="round"/>
<path d="M662.348 261.652L648.782 275.243" stroke="black" stroke-width="1.5" stroke-miterlimit="10" stroke-linecap="round" stroke-linejoin="round"/>
<path d="M426.047 291.139H472.798" stroke="black" stroke-width="1.5" stroke-miterlimit="10" stroke-linecap="round" stroke-linejoin="round"/>
<path d="M316.556 474.249H340.779" stroke="black" stroke-width="1.5" stroke-miterlimit="10" stroke-linecap="round" stroke-linejoin="round"/>
<path d="M333.512 610.521H240.978V620.107H333.512V610.521Z" fill="#0096FF"/>
<path d="M567.876 633.939H576.96V636.245H573.811V645.71H570.904V636.245H567.876V633.939Z" fill="black"/>
<path d="M581.199 645.71H578.292V636.366H581.199V637.944C581.804 636.973 582.894 636.245 584.106 636.245V639.279H583.379C582.047 639.279 581.199 639.764 581.199 641.342V645.71Z" fill="black"/>
<path d="M591.978 636.366H595.127L589.314 650.2H586.286L588.466 645.467L584.711 636.488H587.86L590.04 642.312L591.978 636.366Z" fill="black"/>
<path d="M606.028 640.614C606.028 639.4 605.301 638.672 604.211 638.672C603.121 638.672 602.394 639.4 602.394 640.614V645.71H599.488V636.366H602.394V637.58C603 636.852 603.969 636.245 605.18 636.245C607.36 636.245 608.814 637.701 608.814 640.25V645.71H606.028V640.614Z" fill="black"/>
<path d="M615.112 645.832C612.326 645.832 610.267 644.012 610.267 640.978C610.267 637.944 612.447 636.124 615.112 636.124C617.897 636.124 619.957 637.944 619.957 640.978C619.957 644.012 617.897 645.832 615.112 645.832ZM615.112 643.283C616.081 643.283 617.05 642.555 617.05 640.978C617.05 639.4 616.081 638.672 615.112 638.672C614.022 638.672 613.174 639.4 613.174 640.978C613.174 642.555 614.143 643.283 615.112 643.283Z" fill="black"/>
<path d="M620.562 636.366H623.469L624.801 643.04L626.376 636.366H629.404L630.978 643.04L632.311 636.366H634.975L632.432 645.71H629.283L627.829 639.643L626.255 645.71H623.106L620.562 636.366Z" fill="black"/>
<path d="M257.776 242.975V236.636H287.641V242.975H276.508V273H268.908V242.975H257.776ZM306.195 261.388V245.727H313.759V273H306.497V268.046H306.213C305.598 269.644 304.574 270.929 303.141 271.899C301.721 272.87 299.987 273.355 297.939 273.355C296.116 273.355 294.512 272.941 293.127 272.112C291.742 271.284 290.659 270.106 289.878 268.579C289.108 267.052 288.718 265.223 288.706 263.092V245.727H296.27V261.743C296.282 263.353 296.714 264.625 297.566 265.56C298.418 266.496 299.561 266.963 300.993 266.963C301.904 266.963 302.757 266.756 303.55 266.342C304.343 265.915 304.982 265.288 305.467 264.46C305.964 263.631 306.207 262.607 306.195 261.388ZM319.809 273V245.727H327.143V250.486H327.427C327.924 248.793 328.758 247.515 329.93 246.651C331.102 245.775 332.452 245.337 333.979 245.337C334.357 245.337 334.766 245.36 335.204 245.408C335.642 245.455 336.026 245.52 336.358 245.603V252.315C336.003 252.208 335.511 252.113 334.884 252.031C334.257 251.948 333.683 251.906 333.162 251.906C332.049 251.906 331.055 252.149 330.179 252.634C329.315 253.108 328.628 253.771 328.119 254.623C327.622 255.475 327.373 256.458 327.373 257.57V273H319.809ZM347.832 257.233V273H340.268V245.727H347.477V250.539H347.797C348.401 248.953 349.413 247.698 350.833 246.775C352.254 245.84 353.976 245.372 356 245.372C357.894 245.372 359.545 245.786 360.954 246.615C362.362 247.444 363.457 248.627 364.239 250.166C365.02 251.693 365.411 253.516 365.411 255.635V273H357.847V256.984C357.858 255.315 357.432 254.013 356.568 253.078C355.704 252.131 354.514 251.658 352.999 251.658C351.981 251.658 351.082 251.877 350.3 252.315C349.531 252.753 348.927 253.392 348.489 254.232C348.063 255.061 347.844 256.061 347.832 257.233ZM382.944 273V245.727H390.508V273H382.944ZM386.744 242.212C385.619 242.212 384.655 241.839 383.85 241.093C383.057 240.335 382.66 239.43 382.66 238.376C382.66 237.335 383.057 236.441 383.85 235.695C384.655 234.938 385.619 234.559 386.744 234.559C387.868 234.559 388.827 234.938 389.62 235.695C390.425 236.441 390.828 237.335 390.828 238.376C390.828 239.43 390.425 240.335 389.62 241.093C388.827 241.839 387.868 242.212 386.744 242.212ZM406.617 273.444C404.546 273.444 402.669 272.911 400.988 271.846C399.319 270.769 397.994 269.188 397.011 267.105C396.041 265.01 395.555 262.441 395.555 259.399C395.555 256.274 396.058 253.676 397.064 251.604C398.071 249.521 399.408 247.964 401.077 246.935C402.758 245.893 404.599 245.372 406.599 245.372C408.126 245.372 409.399 245.633 410.417 246.153C411.447 246.662 412.275 247.302 412.903 248.071C413.542 248.829 414.027 249.574 414.358 250.308H414.589V236.636H422.135V273H414.678V268.632H414.358C414.003 269.39 413.5 270.141 412.849 270.887C412.21 271.621 411.376 272.231 410.346 272.716C409.328 273.201 408.085 273.444 406.617 273.444ZM409.014 267.425C410.233 267.425 411.263 267.093 412.104 266.43C412.956 265.756 413.607 264.815 414.057 263.607C414.518 262.4 414.749 260.985 414.749 259.364C414.749 257.742 414.524 256.333 414.074 255.138C413.625 253.942 412.974 253.019 412.121 252.368C411.269 251.717 410.233 251.391 409.014 251.391C407.771 251.391 406.724 251.729 405.871 252.403C405.019 253.078 404.374 254.013 403.936 255.209C403.498 256.404 403.279 257.789 403.279 259.364C403.279 260.95 403.498 262.353 403.936 263.572C404.386 264.779 405.031 265.726 405.871 266.413C406.724 267.087 407.771 267.425 409.014 267.425ZM440.783 273.533C437.978 273.533 435.563 272.964 433.539 271.828C431.527 270.68 429.976 269.058 428.887 266.963C427.798 264.856 427.254 262.364 427.254 259.488C427.254 256.683 427.798 254.22 428.887 252.102C429.976 249.983 431.509 248.331 433.486 247.148C435.474 245.964 437.806 245.372 440.482 245.372C442.281 245.372 443.956 245.662 445.506 246.242C447.069 246.81 448.43 247.669 449.59 248.817C450.762 249.965 451.674 251.409 452.325 253.149C452.976 254.877 453.301 256.902 453.301 259.222V261.299H430.272V256.612H446.181C446.181 255.522 445.944 254.558 445.471 253.717C444.997 252.877 444.34 252.22 443.5 251.746C442.671 251.261 441.707 251.018 440.606 251.018C439.458 251.018 438.44 251.285 437.552 251.817C436.676 252.338 435.989 253.043 435.492 253.93C434.995 254.806 434.741 255.783 434.729 256.86V261.317C434.729 262.666 434.977 263.832 435.474 264.815C435.983 265.797 436.7 266.555 437.623 267.087C438.546 267.62 439.641 267.886 440.908 267.886C441.748 267.886 442.518 267.768 443.216 267.531C443.914 267.295 444.512 266.939 445.009 266.466C445.506 265.992 445.885 265.412 446.146 264.726L453.141 265.188C452.786 266.868 452.058 268.336 450.957 269.591C449.868 270.834 448.46 271.804 446.732 272.503C445.015 273.189 443.032 273.533 440.783 273.533ZM466.014 273.515C464.274 273.515 462.723 273.213 461.362 272.609C460.001 271.994 458.924 271.088 458.131 269.893C457.349 268.685 456.959 267.182 456.959 265.383C456.959 263.868 457.237 262.595 457.793 261.565C458.35 260.536 459.107 259.707 460.066 259.08C461.025 258.452 462.114 257.979 463.333 257.659C464.564 257.339 465.854 257.115 467.204 256.984C468.79 256.819 470.068 256.665 471.039 256.523C472.01 256.369 472.714 256.144 473.152 255.848C473.59 255.552 473.809 255.114 473.809 254.534V254.428C473.809 253.303 473.454 252.433 472.744 251.817C472.045 251.202 471.051 250.894 469.761 250.894C468.399 250.894 467.316 251.196 466.511 251.8C465.706 252.392 465.174 253.137 464.913 254.037L457.918 253.469C458.273 251.812 458.971 250.379 460.013 249.172C461.054 247.953 462.398 247.018 464.043 246.366C465.701 245.704 467.618 245.372 469.796 245.372C471.311 245.372 472.761 245.55 474.146 245.905C475.543 246.26 476.78 246.81 477.857 247.556C478.946 248.302 479.804 249.261 480.432 250.433C481.059 251.593 481.373 252.983 481.373 254.605V273H474.2V269.218H473.987C473.549 270.07 472.963 270.822 472.229 271.473C471.495 272.112 470.613 272.615 469.583 272.982C468.553 273.337 467.364 273.515 466.014 273.515ZM468.18 268.295C469.293 268.295 470.276 268.076 471.128 267.638C471.98 267.188 472.649 266.584 473.134 265.827C473.62 265.069 473.862 264.211 473.862 263.252V260.358C473.625 260.512 473.3 260.654 472.886 260.784C472.483 260.902 472.027 261.015 471.518 261.121C471.009 261.216 470.5 261.305 469.991 261.388C469.482 261.459 469.021 261.524 468.607 261.583C467.719 261.713 466.943 261.92 466.281 262.205C465.618 262.489 465.103 262.873 464.736 263.359C464.369 263.832 464.185 264.424 464.185 265.134C464.185 266.164 464.558 266.951 465.304 267.496C466.062 268.028 467.02 268.295 468.18 268.295ZM509.933 253.504L503.008 253.93C502.89 253.339 502.635 252.806 502.245 252.332C501.854 251.847 501.339 251.462 500.7 251.178C500.073 250.882 499.321 250.734 498.445 250.734C497.273 250.734 496.285 250.983 495.48 251.48C494.675 251.965 494.272 252.616 494.272 253.433C494.272 254.084 494.533 254.635 495.054 255.085C495.574 255.534 496.468 255.895 497.735 256.168L502.671 257.162C505.322 257.706 507.299 258.582 508.601 259.79C509.903 260.997 510.554 262.583 510.554 264.548C510.554 266.336 510.028 267.904 508.974 269.254C507.932 270.603 506.5 271.656 504.677 272.414C502.866 273.16 500.777 273.533 498.409 273.533C494.799 273.533 491.923 272.781 489.78 271.278C487.65 269.763 486.401 267.703 486.034 265.099L493.473 264.708C493.698 265.809 494.243 266.649 495.107 267.229C495.971 267.798 497.078 268.082 498.427 268.082C499.753 268.082 500.818 267.827 501.623 267.318C502.44 266.797 502.854 266.129 502.866 265.312C502.854 264.625 502.564 264.063 501.996 263.625C501.428 263.175 500.552 262.832 499.368 262.595L494.645 261.654C491.982 261.121 489.999 260.198 488.697 258.884C487.407 257.57 486.762 255.895 486.762 253.859C486.762 252.107 487.235 250.598 488.182 249.332C489.141 248.065 490.484 247.089 492.213 246.402C493.953 245.715 495.989 245.372 498.321 245.372C501.765 245.372 504.476 246.1 506.453 247.556C508.441 249.012 509.601 250.995 509.933 253.504ZM259.018 334V306.727H266.582V334H259.018ZM262.818 303.212C261.694 303.212 260.729 302.839 259.924 302.093C259.131 301.335 258.734 300.43 258.734 299.376C258.734 298.335 259.131 297.441 259.924 296.695C260.729 295.938 261.694 295.559 262.818 295.559C263.943 295.559 264.902 295.938 265.695 296.695C266.5 297.441 266.902 298.335 266.902 299.376C266.902 300.43 266.5 301.335 265.695 302.093C264.902 302.839 263.943 303.212 262.818 303.212ZM280.205 318.233V334H272.642V306.727H279.85V311.539H280.17C280.774 309.953 281.786 308.698 283.206 307.775C284.627 306.84 286.349 306.372 288.373 306.372C290.267 306.372 291.918 306.786 293.327 307.615C294.736 308.444 295.83 309.627 296.612 311.166C297.393 312.693 297.784 314.516 297.784 316.635V334H290.22V317.984C290.231 316.315 289.805 315.013 288.941 314.078C288.077 313.131 286.887 312.658 285.372 312.658C284.354 312.658 283.455 312.877 282.673 313.315C281.904 313.753 281.3 314.392 280.862 315.232C280.436 316.061 280.217 317.061 280.205 318.233ZM318.251 306.727V312.409H301.827V306.727H318.251ZM305.556 300.193H313.12V325.619C313.12 326.318 313.227 326.862 313.44 327.253C313.653 327.632 313.949 327.898 314.327 328.052C314.718 328.206 315.168 328.283 315.677 328.283C316.032 328.283 316.387 328.253 316.742 328.194C317.097 328.123 317.37 328.07 317.559 328.034L318.749 333.663C318.37 333.781 317.837 333.917 317.151 334.071C316.464 334.237 315.629 334.337 314.647 334.373C312.824 334.444 311.226 334.201 309.853 333.645C308.492 333.089 307.432 332.224 306.675 331.053C305.917 329.881 305.544 328.401 305.556 326.614V300.193ZM335.208 334.533C332.45 334.533 330.065 333.947 328.053 332.775C326.052 331.591 324.507 329.946 323.418 327.839C322.329 325.72 321.785 323.264 321.785 320.47C321.785 317.653 322.329 315.191 323.418 313.084C324.507 310.965 326.052 309.32 328.053 308.148C330.065 306.964 332.45 306.372 335.208 306.372C337.966 306.372 340.345 306.964 342.346 308.148C344.358 309.32 345.909 310.965 346.998 313.084C348.087 315.191 348.631 317.653 348.631 320.47C348.631 323.264 348.087 325.72 346.998 327.839C345.909 329.946 344.358 331.591 342.346 332.775C340.345 333.947 337.966 334.533 335.208 334.533ZM335.244 328.673C336.498 328.673 337.546 328.318 338.386 327.608C339.227 326.886 339.86 325.903 340.286 324.661C340.724 323.418 340.943 322.003 340.943 320.417C340.943 318.831 340.724 317.416 340.286 316.173C339.86 314.93 339.227 313.948 338.386 313.226C337.546 312.504 336.498 312.143 335.244 312.143C333.977 312.143 332.912 312.504 332.048 313.226C331.195 313.948 330.55 314.93 330.112 316.173C329.686 317.416 329.473 318.831 329.473 320.417C329.473 322.003 329.686 323.418 330.112 324.661C330.55 325.903 331.195 326.886 332.048 327.608C332.912 328.318 333.977 328.673 335.244 328.673ZM370.502 334L363.08 306.727H370.733L374.959 325.051H375.207L379.611 306.727H387.121L391.596 324.945H391.827L395.981 306.727H403.616L396.212 334H388.204L383.517 316.848H383.18L378.492 334H370.502ZM407.651 334V306.727H415.215V334H407.651ZM411.451 303.212C410.326 303.212 409.362 302.839 408.557 302.093C407.764 301.335 407.367 300.43 407.367 299.376C407.367 298.335 407.764 297.441 408.557 296.695C409.362 295.938 410.326 295.559 411.451 295.559C412.576 295.559 413.534 295.938 414.327 296.695C415.132 297.441 415.535 298.335 415.535 299.376C415.535 300.43 415.132 301.335 414.327 302.093C413.534 302.839 412.576 303.212 411.451 303.212ZM428.838 318.233V334H421.274V306.727H428.483V311.539H428.803C429.406 309.953 430.419 308.698 431.839 307.775C433.259 306.84 434.982 306.372 437.006 306.372C438.9 306.372 440.551 306.786 441.96 307.615C443.368 308.444 444.463 309.627 445.244 311.166C446.026 312.693 446.416 314.516 446.416 316.635V334H438.852V317.984C438.864 316.315 438.438 315.013 437.574 314.078C436.71 313.131 435.52 312.658 434.005 312.658C432.987 312.658 432.088 312.877 431.306 313.315C430.537 313.753 429.933 314.392 429.495 315.232C429.069 316.061 428.85 317.061 428.838 318.233ZM459.942 318.233V334H452.378V306.727H459.587V311.539H459.906C460.51 309.953 461.522 308.698 462.942 307.775C464.363 306.84 466.085 306.372 468.109 306.372C470.003 306.372 471.655 306.786 473.063 307.615C474.472 308.444 475.567 309.627 476.348 311.166C477.129 312.693 477.52 314.516 477.52 316.635V334H469.956V317.984C469.968 316.315 469.542 315.013 468.678 314.078C467.813 313.131 466.624 312.658 465.109 312.658C464.091 312.658 463.191 312.877 462.41 313.315C461.64 313.753 461.037 314.392 460.599 315.232C460.173 316.061 459.954 317.061 459.942 318.233ZM483.481 334V306.727H491.045V334H483.481ZM487.281 303.212C486.157 303.212 485.192 302.839 484.387 302.093C483.594 301.335 483.197 300.43 483.197 299.376C483.197 298.335 483.594 297.441 484.387 296.695C485.192 295.938 486.157 295.559 487.281 295.559C488.406 295.559 489.364 295.938 490.157 296.695C490.962 297.441 491.365 298.335 491.365 299.376C491.365 300.43 490.962 301.335 490.157 302.093C489.364 302.839 488.406 303.212 487.281 303.212ZM504.668 318.233V334H497.104V306.727H504.313V311.539H504.633C505.237 309.953 506.249 308.698 507.669 307.775C509.089 306.84 510.812 306.372 512.836 306.372C514.73 306.372 516.381 306.786 517.79 307.615C519.198 308.444 520.293 309.627 521.075 311.166C521.856 312.693 522.246 314.516 522.246 316.635V334H514.683V317.984C514.694 316.315 514.268 315.013 513.404 314.078C512.54 313.131 511.35 312.658 509.835 312.658C508.817 312.658 507.918 312.877 507.136 313.315C506.367 313.753 505.763 314.392 505.325 315.232C504.899 316.061 504.68 317.061 504.668 318.233ZM540.495 344.795C538.045 344.795 535.943 344.458 534.192 343.783C532.452 343.121 531.067 342.215 530.037 341.067C529.007 339.919 528.338 338.628 528.03 337.196L535.026 336.255C535.239 336.799 535.577 337.308 536.038 337.782C536.5 338.255 537.109 338.634 537.867 338.918C538.636 339.214 539.572 339.362 540.672 339.362C542.318 339.362 543.673 338.96 544.738 338.155C545.816 337.362 546.354 336.03 546.354 334.16V329.17H546.035C545.703 329.928 545.206 330.644 544.543 331.319C543.88 331.994 543.028 332.544 541.986 332.97C540.945 333.396 539.702 333.609 538.258 333.609C536.21 333.609 534.345 333.136 532.665 332.189C530.996 331.23 529.664 329.768 528.67 327.803C527.687 325.826 527.196 323.329 527.196 320.31C527.196 317.221 527.699 314.64 528.705 312.569C529.711 310.497 531.049 308.947 532.718 307.917C534.399 306.887 536.239 306.372 538.24 306.372C539.767 306.372 541.045 306.633 542.075 307.153C543.105 307.662 543.934 308.302 544.561 309.071C545.2 309.829 545.691 310.574 546.035 311.308H546.319V306.727H553.829V334.266C553.829 336.586 553.261 338.528 552.125 340.09C550.988 341.653 549.414 342.825 547.402 343.606C545.401 344.399 543.099 344.795 540.495 344.795ZM540.655 327.928C541.874 327.928 542.904 327.626 543.744 327.022C544.596 326.406 545.247 325.531 545.697 324.394C546.159 323.246 546.39 321.873 546.39 320.275C546.39 318.677 546.165 317.292 545.715 316.12C545.265 314.936 544.614 314.019 543.762 313.368C542.91 312.717 541.874 312.391 540.655 312.391C539.412 312.391 538.364 312.729 537.512 313.403C536.66 314.066 536.015 314.99 535.577 316.173C535.139 317.357 534.92 318.724 534.92 320.275C534.92 321.849 535.139 323.21 535.577 324.359C536.026 325.495 536.671 326.377 537.512 327.004C538.364 327.62 539.412 327.928 540.655 327.928ZM273.525 367.727V373.409H257.101V367.727H273.525ZM260.83 361.193H268.393V386.619C268.393 387.318 268.5 387.862 268.713 388.253C268.926 388.632 269.222 388.898 269.601 389.052C269.991 389.206 270.441 389.283 270.95 389.283C271.305 389.283 271.661 389.253 272.016 389.194C272.371 389.123 272.643 389.07 272.832 389.034L274.022 394.663C273.643 394.781 273.111 394.917 272.424 395.071C271.737 395.237 270.903 395.337 269.92 395.373C268.098 395.444 266.5 395.201 265.126 394.645C263.765 394.089 262.706 393.224 261.948 392.053C261.191 390.881 260.818 389.401 260.83 387.614V361.193ZM278.452 395V367.727H285.785V372.486H286.069C286.566 370.793 287.401 369.515 288.573 368.651C289.745 367.775 291.094 367.337 292.621 367.337C293 367.337 293.408 367.36 293.846 367.408C294.284 367.455 294.669 367.52 295 367.603V374.315C294.645 374.208 294.154 374.113 293.527 374.031C292.899 373.948 292.325 373.906 291.804 373.906C290.692 373.906 289.697 374.149 288.821 374.634C287.957 375.108 287.271 375.771 286.762 376.623C286.265 377.475 286.016 378.458 286.016 379.57V395H278.452ZM305.907 395.515C304.167 395.515 302.616 395.213 301.255 394.609C299.894 393.994 298.816 393.088 298.023 391.893C297.242 390.685 296.851 389.182 296.851 387.383C296.851 385.868 297.13 384.595 297.686 383.565C298.242 382.536 299 381.707 299.959 381.08C300.917 380.452 302.006 379.979 303.226 379.659C304.457 379.339 305.747 379.115 307.096 378.984C308.683 378.819 309.961 378.665 310.932 378.523C311.902 378.369 312.607 378.144 313.045 377.848C313.483 377.552 313.702 377.114 313.702 376.534V376.428C313.702 375.303 313.346 374.433 312.636 373.817C311.938 373.202 310.943 372.894 309.653 372.894C308.292 372.894 307.209 373.196 306.404 373.8C305.599 374.392 305.066 375.137 304.806 376.037L297.81 375.469C298.165 373.812 298.864 372.379 299.905 371.172C300.947 369.953 302.291 369.018 303.936 368.366C305.593 367.704 307.511 367.372 309.689 367.372C311.204 367.372 312.654 367.55 314.039 367.905C315.436 368.26 316.673 368.81 317.75 369.556C318.839 370.302 319.697 371.261 320.324 372.433C320.952 373.593 321.265 374.983 321.265 376.605V395H314.092V391.218H313.879C313.441 392.07 312.855 392.822 312.121 393.473C311.387 394.112 310.506 394.615 309.476 394.982C308.446 395.337 307.256 395.515 305.907 395.515ZM308.073 390.295C309.186 390.295 310.168 390.076 311.02 389.638C311.873 389.188 312.541 388.584 313.027 387.827C313.512 387.069 313.755 386.211 313.755 385.252V382.358C313.518 382.512 313.193 382.654 312.778 382.784C312.376 382.902 311.92 383.015 311.411 383.121C310.902 383.216 310.393 383.305 309.884 383.388C309.375 383.459 308.913 383.524 308.499 383.583C307.611 383.713 306.836 383.92 306.173 384.205C305.51 384.489 304.995 384.873 304.628 385.359C304.261 385.832 304.078 386.424 304.078 387.134C304.078 388.164 304.451 388.951 305.197 389.496C305.954 390.028 306.913 390.295 308.073 390.295ZM337.183 395.444C335.112 395.444 333.236 394.911 331.555 393.846C329.886 392.769 328.56 391.188 327.578 389.105C326.607 387.01 326.122 384.441 326.122 381.399C326.122 378.274 326.625 375.676 327.631 373.604C328.637 371.521 329.975 369.964 331.644 368.935C333.325 367.893 335.165 367.372 337.166 367.372C338.693 367.372 339.965 367.633 340.983 368.153C342.013 368.662 342.842 369.302 343.469 370.071C344.108 370.829 344.593 371.574 344.925 372.308H345.156V358.636H352.702V395H345.244V390.632H344.925C344.57 391.39 344.067 392.141 343.416 392.887C342.776 393.621 341.942 394.231 340.912 394.716C339.894 395.201 338.651 395.444 337.183 395.444ZM339.58 389.425C340.8 389.425 341.829 389.093 342.67 388.43C343.522 387.756 344.173 386.815 344.623 385.607C345.085 384.4 345.316 382.985 345.316 381.364C345.316 379.742 345.091 378.333 344.641 377.138C344.191 375.942 343.54 375.019 342.688 374.368C341.835 373.717 340.8 373.391 339.58 373.391C338.338 373.391 337.29 373.729 336.438 374.403C335.585 375.078 334.94 376.013 334.502 377.209C334.064 378.404 333.845 379.789 333.845 381.364C333.845 382.95 334.064 384.353 334.502 385.572C334.952 386.779 335.597 387.726 336.438 388.413C337.29 389.087 338.338 389.425 339.58 389.425ZM371.35 395.533C368.544 395.533 366.13 394.964 364.105 393.828C362.093 392.68 360.542 391.058 359.453 388.963C358.364 386.856 357.82 384.364 357.82 381.488C357.82 378.683 358.364 376.22 359.453 374.102C360.542 371.983 362.075 370.331 364.052 369.148C366.041 367.964 368.373 367.372 371.048 367.372C372.847 367.372 374.522 367.662 376.073 368.242C377.635 368.81 378.997 369.669 380.157 370.817C381.328 371.965 382.24 373.409 382.891 375.149C383.542 376.877 383.868 378.902 383.868 381.222V383.299H360.838V378.612H376.748C376.748 377.522 376.511 376.558 376.037 375.717C375.564 374.877 374.907 374.22 374.066 373.746C373.238 373.261 372.273 373.018 371.172 373.018C370.024 373.018 369.006 373.285 368.118 373.817C367.242 374.338 366.556 375.043 366.059 375.93C365.561 376.806 365.307 377.783 365.295 378.86V383.317C365.295 384.666 365.544 385.832 366.041 386.815C366.55 387.797 367.266 388.555 368.189 389.087C369.113 389.62 370.208 389.886 371.474 389.886C372.315 389.886 373.084 389.768 373.782 389.531C374.481 389.295 375.078 388.939 375.576 388.466C376.073 387.992 376.452 387.412 376.712 386.726L383.708 387.188C383.353 388.868 382.625 390.336 381.524 391.591C380.435 392.834 379.026 393.804 377.298 394.503C375.582 395.189 373.599 395.533 371.35 395.533ZM411.495 375.504L404.571 375.93C404.452 375.339 404.198 374.806 403.807 374.332C403.417 373.847 402.902 373.462 402.262 373.178C401.635 372.882 400.883 372.734 400.007 372.734C398.836 372.734 397.847 372.983 397.042 373.48C396.237 373.965 395.835 374.616 395.835 375.433C395.835 376.084 396.095 376.635 396.616 377.085C397.137 377.534 398.031 377.895 399.297 378.168L404.233 379.162C406.885 379.706 408.862 380.582 410.164 381.79C411.466 382.997 412.117 384.583 412.117 386.548C412.117 388.336 411.59 389.904 410.537 391.254C409.495 392.603 408.063 393.656 406.24 394.414C404.429 395.16 402.339 395.533 399.972 395.533C396.362 395.533 393.485 394.781 391.343 393.278C389.212 391.763 387.963 389.703 387.596 387.099L395.036 386.708C395.261 387.809 395.805 388.649 396.669 389.229C397.533 389.798 398.64 390.082 399.99 390.082C401.315 390.082 402.381 389.827 403.186 389.318C404.002 388.797 404.417 388.129 404.429 387.312C404.417 386.625 404.127 386.063 403.559 385.625C402.99 385.175 402.114 384.832 400.931 384.595L396.208 383.654C393.544 383.121 391.562 382.198 390.26 380.884C388.969 379.57 388.324 377.895 388.324 375.859C388.324 374.107 388.798 372.598 389.745 371.332C390.703 370.065 392.047 369.089 393.775 368.402C395.515 367.715 397.551 367.372 399.883 367.372C403.328 367.372 406.038 368.1 408.015 369.556C410.004 371.012 411.164 372.995 411.495 375.504ZM421.301 395.462C420.129 395.462 419.123 395.047 418.282 394.219C417.454 393.378 417.04 392.372 417.04 391.2C417.04 390.04 417.454 389.046 418.282 388.217C419.123 387.389 420.129 386.974 421.301 386.974C422.437 386.974 423.432 387.389 424.284 388.217C425.136 389.046 425.562 390.04 425.562 391.2C425.562 391.982 425.361 392.698 424.959 393.349C424.568 393.988 424.053 394.503 423.414 394.893C422.775 395.272 422.07 395.462 421.301 395.462Z" fill="#212121"/>
<path d="M411.793 503.609V501.909H421.924V503.609H417.839V515H415.871V503.609H411.793ZM426.817 515.198C425.85 515.198 425.017 514.991 424.318 514.578C423.623 514.161 423.086 513.575 422.707 512.82C422.332 512.062 422.145 511.173 422.145 510.155C422.145 509.149 422.332 508.263 422.707 507.496C423.086 506.729 423.615 506.13 424.292 505.7C424.974 505.269 425.771 505.054 426.683 505.054C427.237 505.054 427.774 505.146 428.294 505.329C428.814 505.512 429.28 505.8 429.694 506.192C430.107 506.584 430.433 507.093 430.672 507.719C430.91 508.342 431.029 509.098 431.029 509.989V510.666H423.225V509.234H429.157C429.157 508.732 429.054 508.286 428.85 507.898C428.645 507.506 428.358 507.197 427.987 506.972C427.62 506.746 427.19 506.633 426.696 506.633C426.159 506.633 425.69 506.765 425.289 507.029C424.893 507.289 424.586 507.63 424.369 508.052C424.156 508.469 424.049 508.923 424.049 509.413V510.532C424.049 511.188 424.164 511.746 424.395 512.207C424.629 512.667 424.955 513.018 425.373 513.261C425.79 513.5 426.278 513.619 426.836 513.619C427.199 513.619 427.529 513.568 427.827 513.466C428.125 513.359 428.383 513.202 428.6 512.993C428.818 512.784 428.984 512.526 429.099 512.219L430.908 512.545C430.763 513.078 430.503 513.545 430.128 513.945C429.757 514.342 429.291 514.651 428.728 514.872C428.17 515.089 427.533 515.198 426.817 515.198ZM440.507 507.579L438.775 507.886C438.703 507.664 438.588 507.453 438.43 507.253C438.276 507.053 438.068 506.888 437.803 506.761C437.539 506.633 437.209 506.569 436.813 506.569C436.271 506.569 435.82 506.69 435.458 506.933C435.095 507.172 434.914 507.481 434.914 507.86C434.914 508.188 435.036 508.452 435.279 508.653C435.521 508.853 435.914 509.017 436.455 509.145L438.014 509.503C438.918 509.712 439.591 510.033 440.034 510.468C440.477 510.903 440.699 511.467 440.699 512.162C440.699 512.75 440.529 513.274 440.188 513.734C439.851 514.19 439.38 514.548 438.775 514.808C438.174 515.068 437.477 515.198 436.685 515.198C435.585 515.198 434.688 514.964 433.994 514.495C433.299 514.022 432.873 513.351 432.715 512.482L434.563 512.2C434.678 512.682 434.914 513.046 435.272 513.293C435.63 513.536 436.097 513.658 436.672 513.658C437.298 513.658 437.799 513.528 438.174 513.268C438.549 513.004 438.737 512.682 438.737 512.303C438.737 511.996 438.622 511.738 438.392 511.529C438.166 511.32 437.818 511.163 437.35 511.056L435.688 510.692C434.771 510.483 434.094 510.151 433.655 509.695C433.22 509.239 433.003 508.661 433.003 507.962C433.003 507.383 433.165 506.876 433.489 506.441C433.813 506.006 434.26 505.668 434.831 505.425C435.402 505.178 436.056 505.054 436.794 505.054C437.855 505.054 438.69 505.284 439.299 505.744C439.909 506.2 440.311 506.812 440.507 507.579ZM447.384 505.182V506.716H442.021V505.182H447.384ZM443.459 502.83H445.37V512.117C445.37 512.488 445.425 512.767 445.536 512.955C445.647 513.138 445.79 513.263 445.964 513.332C446.143 513.396 446.337 513.428 446.546 513.428C446.7 513.428 446.834 513.417 446.949 513.396C447.064 513.374 447.153 513.357 447.217 513.344L447.562 514.923C447.452 514.966 447.294 515.009 447.089 515.051C446.885 515.098 446.629 515.124 446.322 515.128C445.82 515.136 445.351 515.047 444.916 514.859C444.482 514.672 444.13 514.382 443.862 513.99C443.593 513.598 443.459 513.106 443.459 512.513V502.83ZM450.757 515.121C450.407 515.121 450.107 514.998 449.856 514.751C449.604 514.499 449.479 514.197 449.479 513.843C449.479 513.494 449.604 513.195 449.856 512.948C450.107 512.697 450.407 512.571 450.757 512.571C451.106 512.571 451.407 512.697 451.658 512.948C451.91 513.195 452.035 513.494 452.035 513.843C452.035 514.077 451.976 514.293 451.856 514.489C451.741 514.68 451.588 514.834 451.396 514.949C451.204 515.064 450.991 515.121 450.757 515.121ZM470.673 508.455C470.673 509.852 470.417 511.054 469.906 512.06C469.395 513.061 468.694 513.832 467.803 514.374C466.917 514.911 465.909 515.179 464.779 515.179C463.646 515.179 462.634 514.911 461.743 514.374C460.857 513.832 460.158 513.059 459.647 512.053C459.135 511.048 458.88 509.848 458.88 508.455C458.88 507.057 459.135 505.857 459.647 504.856C460.158 503.85 460.857 503.079 461.743 502.542C462.634 502.001 463.646 501.73 464.779 501.73C465.909 501.73 466.917 502.001 467.803 502.542C468.694 503.079 469.395 503.85 469.906 504.856C470.417 505.857 470.673 507.057 470.673 508.455ZM468.717 508.455C468.717 507.389 468.544 506.492 468.199 505.763C467.858 505.031 467.39 504.477 466.793 504.102C466.201 503.722 465.529 503.533 464.779 503.533C464.025 503.533 463.352 503.722 462.76 504.102C462.167 504.477 461.699 505.031 461.353 505.763C461.012 506.492 460.842 507.389 460.842 508.455C460.842 509.52 461.012 510.419 461.353 511.152C461.699 511.881 462.167 512.435 462.76 512.814C463.352 513.189 464.025 513.376 464.779 513.376C465.529 513.376 466.201 513.189 466.793 512.814C467.39 512.435 467.858 511.881 468.199 511.152C468.544 510.419 468.717 509.52 468.717 508.455ZM472.982 518.682V505.182H474.849V506.773H475.008C475.119 506.569 475.279 506.332 475.488 506.064C475.697 505.795 475.986 505.561 476.357 505.361C476.728 505.156 477.218 505.054 477.827 505.054C478.62 505.054 479.327 505.254 479.949 505.655C480.572 506.055 481.059 506.633 481.413 507.387C481.771 508.141 481.95 509.049 481.95 510.11C481.95 511.171 481.773 512.081 481.42 512.839C481.066 513.594 480.58 514.175 479.962 514.585C479.344 514.989 478.639 515.192 477.846 515.192C477.25 515.192 476.762 515.092 476.383 514.891C476.008 514.691 475.714 514.457 475.501 514.188C475.287 513.92 475.123 513.681 475.008 513.472H474.893V518.682H472.982ZM474.855 510.091C474.855 510.781 474.955 511.386 475.155 511.906C475.356 512.426 475.645 512.833 476.025 513.127C476.404 513.417 476.868 513.562 477.418 513.562C477.989 513.562 478.466 513.411 478.85 513.108C479.233 512.801 479.523 512.386 479.719 511.862C479.92 511.337 480.02 510.747 480.02 510.091C480.02 509.443 479.922 508.862 479.726 508.346C479.534 507.83 479.244 507.423 478.856 507.125C478.473 506.827 477.993 506.678 477.418 506.678C476.864 506.678 476.395 506.82 476.012 507.106C475.633 507.391 475.345 507.79 475.149 508.301C474.953 508.812 474.855 509.409 474.855 510.091ZM488.675 505.182V506.716H483.312V505.182H488.675ZM484.75 502.83H486.661V512.117C486.661 512.488 486.716 512.767 486.827 512.955C486.938 513.138 487.081 513.263 487.256 513.332C487.434 513.396 487.628 513.428 487.837 513.428C487.991 513.428 488.125 513.417 488.24 513.396C488.355 513.374 488.444 513.357 488.508 513.344L488.854 514.923C488.743 514.966 488.585 515.009 488.381 515.051C488.176 515.098 487.92 515.124 487.613 515.128C487.111 515.136 486.642 515.047 486.207 514.859C485.773 514.672 485.421 514.382 485.153 513.99C484.884 513.598 484.75 513.106 484.75 512.513V502.83ZM490.789 515V505.182H492.7V515H490.789ZM491.754 503.667C491.422 503.667 491.136 503.556 490.897 503.335C490.663 503.109 490.546 502.84 490.546 502.529C490.546 502.214 490.663 501.945 490.897 501.724C491.136 501.498 491.422 501.385 491.754 501.385C492.086 501.385 492.37 501.498 492.604 501.724C492.843 501.945 492.962 502.214 492.962 502.529C492.962 502.84 492.843 503.109 492.604 503.335C492.37 503.556 492.086 503.667 491.754 503.667ZM495.271 515V505.182H497.106V506.78H497.227C497.432 506.239 497.766 505.817 498.231 505.514C498.695 505.207 499.251 505.054 499.899 505.054C500.555 505.054 501.105 505.207 501.548 505.514C501.996 505.821 502.326 506.243 502.539 506.78H502.641C502.876 506.256 503.248 505.838 503.76 505.527C504.271 505.212 504.881 505.054 505.588 505.054C506.479 505.054 507.205 505.333 507.768 505.891C508.334 506.45 508.618 507.291 508.618 508.416V515H506.706V508.595C506.706 507.93 506.525 507.449 506.163 507.151C505.801 506.852 505.368 506.703 504.866 506.703C504.243 506.703 503.76 506.895 503.415 507.278C503.069 507.658 502.897 508.146 502.897 508.742V515H500.992V508.474C500.992 507.941 500.826 507.513 500.493 507.189C500.161 506.865 499.729 506.703 499.196 506.703C498.834 506.703 498.499 506.799 498.192 506.991C497.89 507.178 497.645 507.44 497.457 507.777C497.274 508.114 497.182 508.504 497.182 508.947V515H495.271ZM511.179 515V505.182H513.091V515H511.179ZM512.145 503.667C511.812 503.667 511.527 503.556 511.288 503.335C511.054 503.109 510.936 502.84 510.936 502.529C510.936 502.214 511.054 501.945 511.288 501.724C511.527 501.498 511.812 501.385 512.145 501.385C512.477 501.385 512.76 501.498 512.995 501.724C513.233 501.945 513.353 502.214 513.353 502.529C513.353 502.84 513.233 503.109 512.995 503.335C512.76 503.556 512.477 503.667 512.145 503.667ZM515.457 515V513.69L520.775 506.933V506.844H515.63V505.182H523.16V506.575L518.046 513.249V513.338H523.339V515H515.457ZM529.544 515.198C528.576 515.198 527.743 514.991 527.044 514.578C526.35 514.161 525.813 513.575 525.434 512.82C525.059 512.062 524.871 511.173 524.871 510.155C524.871 509.149 525.059 508.263 525.434 507.496C525.813 506.729 526.341 506.13 527.019 505.7C527.701 505.269 528.498 505.054 529.409 505.054C529.963 505.054 530.5 505.146 531.02 505.329C531.54 505.512 532.007 505.8 532.42 506.192C532.833 506.584 533.159 507.093 533.398 507.719C533.637 508.342 533.756 509.098 533.756 509.989V510.666H525.951V509.234H531.883C531.883 508.732 531.781 508.286 531.576 507.898C531.372 507.506 531.084 507.197 530.713 506.972C530.347 506.746 529.917 506.633 529.422 506.633C528.885 506.633 528.417 506.765 528.016 507.029C527.62 507.289 527.313 507.63 527.096 508.052C526.882 508.469 526.776 508.923 526.776 509.413V510.532C526.776 511.188 526.891 511.746 527.121 512.207C527.355 512.667 527.681 513.018 528.099 513.261C528.517 513.5 529.005 513.619 529.563 513.619C529.925 513.619 530.255 513.568 530.554 513.466C530.852 513.359 531.11 513.202 531.327 512.993C531.544 512.784 531.711 512.526 531.826 512.219L533.635 512.545C533.49 513.078 533.23 513.545 532.855 513.945C532.484 514.342 532.017 514.651 531.455 514.872C530.897 515.089 530.26 515.198 529.544 515.198ZM537.136 515.121C536.786 515.121 536.486 514.998 536.235 514.751C535.983 514.499 535.857 514.197 535.857 513.843C535.857 513.494 535.983 513.195 536.235 512.948C536.486 512.697 536.786 512.571 537.136 512.571C537.485 512.571 537.786 512.697 538.037 512.948C538.289 513.195 538.414 513.494 538.414 513.843C538.414 514.077 538.355 514.293 538.235 514.489C538.12 514.68 537.967 514.834 537.775 514.949C537.583 515.064 537.37 515.121 537.136 515.121ZM545.68 515V501.909H553.888V503.609H547.656V507.598H553.46V509.292H547.656V513.3H553.964V515H545.68ZM557.881 505.182L560.048 509.004L562.234 505.182H564.324L561.263 510.091L564.35 515H562.26L560.048 511.331L557.843 515H555.746L558.802 510.091L555.785 505.182H557.881ZM570.132 515.198C569.164 515.198 568.331 514.991 567.632 514.578C566.938 514.161 566.401 513.575 566.021 512.82C565.646 512.062 565.459 511.173 565.459 510.155C565.459 509.149 565.646 508.263 566.021 507.496C566.401 506.729 566.929 506.13 567.607 505.7C568.289 505.269 569.085 505.054 569.997 505.054C570.551 505.054 571.088 505.146 571.608 505.329C572.128 505.512 572.595 505.8 573.008 506.192C573.421 506.584 573.747 507.093 573.986 507.719C574.225 508.342 574.344 509.098 574.344 509.989V510.666H566.539V509.234H572.471C572.471 508.732 572.369 508.286 572.164 507.898C571.96 507.506 571.672 507.197 571.301 506.972C570.935 506.746 570.504 506.633 570.01 506.633C569.473 506.633 569.004 506.765 568.604 507.029C568.208 507.289 567.901 507.63 567.683 508.052C567.47 508.469 567.364 508.923 567.364 509.413V510.532C567.364 511.188 567.479 511.746 567.709 512.207C567.943 512.667 568.269 513.018 568.687 513.261C569.105 513.5 569.593 513.619 570.151 513.619C570.513 513.619 570.843 513.568 571.142 513.466C571.44 513.359 571.698 513.202 571.915 512.993C572.132 512.784 572.298 512.526 572.414 512.219L574.222 512.545C574.078 513.078 573.818 513.545 573.443 513.945C573.072 514.342 572.605 514.651 572.043 514.872C571.485 515.089 570.847 515.198 570.132 515.198ZM580.6 515.198C579.65 515.198 578.832 514.983 578.146 514.553C577.464 514.118 576.94 513.519 576.573 512.756C576.207 511.994 576.023 511.12 576.023 510.136C576.023 509.138 576.211 508.259 576.586 507.496C576.961 506.729 577.489 506.13 578.171 505.7C578.853 505.269 579.656 505.054 580.581 505.054C581.327 505.054 581.991 505.192 582.575 505.469C583.159 505.742 583.63 506.126 583.988 506.62C584.35 507.114 584.565 507.692 584.634 508.352H582.773C582.671 507.892 582.437 507.496 582.07 507.163C581.708 506.831 581.222 506.665 580.613 506.665C580.08 506.665 579.614 506.805 579.213 507.087C578.817 507.364 578.508 507.76 578.286 508.276C578.065 508.787 577.954 509.392 577.954 510.091C577.954 510.807 578.063 511.425 578.28 511.945C578.497 512.464 578.804 512.867 579.2 513.153C579.601 513.438 580.072 513.581 580.613 513.581C580.975 513.581 581.303 513.515 581.597 513.383C581.896 513.246 582.145 513.053 582.345 512.801C582.55 512.55 582.692 512.247 582.773 511.893H584.634C584.565 512.528 584.359 513.095 584.013 513.594C583.668 514.092 583.206 514.484 582.626 514.77C582.051 515.055 581.376 515.198 580.6 515.198ZM592.897 510.928V505.182H594.814V515H592.935V513.3H592.833C592.607 513.824 592.245 514.261 591.746 514.61C591.252 514.955 590.636 515.128 589.899 515.128C589.268 515.128 588.71 514.989 588.224 514.712C587.743 514.431 587.363 514.016 587.086 513.466C586.814 512.916 586.677 512.237 586.677 511.427V505.182H588.589V511.197C588.589 511.866 588.774 512.398 589.145 512.795C589.515 513.191 589.997 513.389 590.589 513.389C590.947 513.389 591.303 513.3 591.657 513.121C592.015 512.942 592.311 512.671 592.545 512.309C592.784 511.947 592.901 511.487 592.897 510.928ZM601.966 505.182V506.716H596.603V505.182H601.966ZM598.041 502.83H599.952V512.117C599.952 512.488 600.007 512.767 600.118 512.955C600.229 513.138 600.372 513.263 600.547 513.332C600.725 513.396 600.919 513.428 601.128 513.428C601.282 513.428 601.416 513.417 601.531 513.396C601.646 513.374 601.735 513.357 601.799 513.344L602.145 514.923C602.034 514.966 601.876 515.009 601.672 515.051C601.467 515.098 601.211 515.124 600.904 515.128C600.402 515.136 599.933 515.047 599.498 514.859C599.064 514.672 598.712 514.382 598.444 513.99C598.175 513.598 598.041 513.106 598.041 512.513V502.83ZM608.206 515.198C607.238 515.198 606.405 514.991 605.706 514.578C605.012 514.161 604.475 513.575 604.096 512.82C603.721 512.062 603.533 511.173 603.533 510.155C603.533 509.149 603.721 508.263 604.096 507.496C604.475 506.729 605.003 506.13 605.681 505.7C606.363 505.269 607.16 505.054 608.072 505.054C608.626 505.054 609.162 505.146 609.682 505.329C610.202 505.512 610.669 505.8 611.082 506.192C611.496 506.584 611.822 507.093 612.06 507.719C612.299 508.342 612.418 509.098 612.418 509.989V510.666H604.613V509.234H610.545C610.545 508.732 610.443 508.286 610.238 507.898C610.034 507.506 609.746 507.197 609.376 506.972C609.009 506.746 608.579 506.633 608.084 506.633C607.547 506.633 607.079 506.765 606.678 507.029C606.282 507.289 605.975 507.63 605.758 508.052C605.545 508.469 605.438 508.923 605.438 509.413V510.532C605.438 511.188 605.553 511.746 605.783 512.207C606.018 512.667 606.344 513.018 606.761 513.261C607.179 513.5 607.667 513.619 608.225 513.619C608.587 513.619 608.917 513.568 609.216 513.466C609.514 513.359 609.772 513.202 609.989 512.993C610.206 512.784 610.373 512.526 610.488 512.219L612.297 512.545C612.152 513.078 611.892 513.545 611.517 513.945C611.146 514.342 610.68 514.651 610.117 514.872C609.559 515.089 608.922 515.198 608.206 515.198ZM615.798 515.121C615.449 515.121 615.148 514.998 614.897 514.751C614.645 514.499 614.52 514.197 614.52 513.843C614.52 513.494 614.645 513.195 614.897 512.948C615.148 512.697 615.449 512.571 615.798 512.571C616.147 512.571 616.448 512.697 616.699 512.948C616.951 513.195 617.076 513.494 617.076 513.843C617.076 514.077 617.017 514.293 616.897 514.489C616.782 514.68 616.629 514.834 616.437 514.949C616.245 515.064 616.032 515.121 615.798 515.121ZM413.544 537H411.447L416.158 523.909H418.44L423.151 537H421.055L417.354 526.287H417.251L413.544 537ZM413.896 531.874H420.697V533.536H413.896V531.874ZM426.8 523.909V537H424.888V523.909H426.8ZM431.282 523.909V537H429.371V523.909H431.282ZM438.617 537V527.182H440.528V537H438.617ZM439.582 525.667C439.25 525.667 438.964 525.556 438.725 525.335C438.491 525.109 438.374 524.84 438.374 524.529C438.374 524.214 438.491 523.945 438.725 523.724C438.964 523.498 439.25 523.385 439.582 523.385C439.914 523.385 440.198 523.498 440.432 523.724C440.671 523.945 440.79 524.214 440.79 524.529C440.79 524.84 440.671 525.109 440.432 525.335C440.198 525.556 439.914 525.667 439.582 525.667ZM445.01 531.17V537H443.099V527.182H444.934V528.78H445.055C445.281 528.26 445.635 527.842 446.116 527.527C446.602 527.212 447.214 527.054 447.951 527.054C448.62 527.054 449.206 527.195 449.709 527.476C450.211 527.753 450.601 528.166 450.878 528.716C451.155 529.266 451.294 529.945 451.294 530.755V537H449.383V530.985C449.383 530.273 449.197 529.717 448.827 529.317C448.456 528.912 447.947 528.71 447.299 528.71C446.856 528.71 446.461 528.805 446.116 528.997C445.775 529.189 445.505 529.47 445.305 529.841C445.108 530.207 445.01 530.651 445.01 531.17ZM462.756 537.198C461.836 537.198 461.033 536.987 460.347 536.565C459.661 536.143 459.128 535.553 458.749 534.795C458.369 534.036 458.18 533.15 458.18 532.136C458.18 531.117 458.369 530.227 458.749 529.464C459.128 528.701 459.661 528.109 460.347 527.687C461.033 527.265 461.836 527.054 462.756 527.054C463.677 527.054 464.48 527.265 465.166 527.687C465.852 528.109 466.385 528.701 466.764 529.464C467.143 530.227 467.333 531.117 467.333 532.136C467.333 533.15 467.143 534.036 466.764 534.795C466.385 535.553 465.852 536.143 465.166 536.565C464.48 536.987 463.677 537.198 462.756 537.198ZM462.763 535.594C463.359 535.594 463.854 535.436 464.246 535.121C464.638 534.805 464.928 534.386 465.115 533.862C465.307 533.337 465.403 532.76 465.403 532.129C465.403 531.503 465.307 530.928 465.115 530.403C464.928 529.875 464.638 529.451 464.246 529.131C463.854 528.812 463.359 528.652 462.763 528.652C462.162 528.652 461.663 528.812 461.267 529.131C460.875 529.451 460.583 529.875 460.391 530.403C460.204 530.928 460.11 531.503 460.11 532.129C460.11 532.76 460.204 533.337 460.391 533.862C460.583 534.386 460.875 534.805 461.267 535.121C461.663 535.436 462.162 535.594 462.763 535.594ZM471.378 531.17V537H469.466V527.182H471.301V528.78H471.422C471.648 528.26 472.002 527.842 472.483 527.527C472.969 527.212 473.581 527.054 474.318 527.054C474.987 527.054 475.573 527.195 476.076 527.476C476.579 527.753 476.969 528.166 477.246 528.716C477.523 529.266 477.661 529.945 477.661 530.755V537H475.75V530.985C475.75 530.273 475.564 529.717 475.194 529.317C474.823 528.912 474.314 528.71 473.666 528.71C473.223 528.71 472.829 528.805 472.483 528.997C472.143 529.189 471.872 529.47 471.672 529.841C471.476 530.207 471.378 530.651 471.378 531.17ZM484.456 537.198C483.488 537.198 482.655 536.991 481.956 536.578C481.262 536.161 480.725 535.575 480.346 534.82C479.971 534.062 479.783 533.173 479.783 532.155C479.783 531.149 479.971 530.263 480.346 529.496C480.725 528.729 481.253 528.13 481.931 527.7C482.613 527.269 483.41 527.054 484.322 527.054C484.876 527.054 485.412 527.146 485.932 527.329C486.452 527.512 486.919 527.8 487.332 528.192C487.746 528.584 488.072 529.093 488.31 529.719C488.549 530.342 488.668 531.098 488.668 531.989V532.666H480.863V531.234H486.795C486.795 530.732 486.693 530.286 486.488 529.898C486.284 529.506 485.996 529.197 485.626 528.972C485.259 528.746 484.829 528.633 484.334 528.633C483.797 528.633 483.329 528.765 482.928 529.029C482.532 529.289 482.225 529.63 482.008 530.052C481.795 530.469 481.688 530.923 481.688 531.413V532.532C481.688 533.188 481.803 533.746 482.033 534.207C482.268 534.667 482.594 535.018 483.011 535.261C483.429 535.5 483.917 535.619 484.475 535.619C484.837 535.619 485.167 535.568 485.466 535.466C485.764 535.359 486.022 535.202 486.239 534.993C486.456 534.784 486.623 534.526 486.738 534.219L488.547 534.545C488.402 535.078 488.142 535.545 487.767 535.945C487.396 536.342 486.93 536.651 486.367 536.872C485.809 537.089 485.172 537.198 484.456 537.198ZM495.552 540.682V527.182H497.419V528.773H497.579C497.689 528.569 497.849 528.332 498.058 528.064C498.267 527.795 498.557 527.561 498.927 527.361C499.298 527.156 499.788 527.054 500.398 527.054C501.19 527.054 501.898 527.254 502.52 527.655C503.142 528.055 503.63 528.633 503.983 529.387C504.341 530.141 504.52 531.049 504.52 532.11C504.52 533.171 504.344 534.081 503.99 534.839C503.636 535.594 503.15 536.175 502.532 536.585C501.915 536.989 501.209 537.192 500.417 537.192C499.82 537.192 499.332 537.092 498.953 536.891C498.578 536.691 498.284 536.457 498.071 536.188C497.858 535.92 497.694 535.681 497.579 535.472H497.464V540.682H495.552ZM497.425 532.091C497.425 532.781 497.525 533.386 497.726 533.906C497.926 534.426 498.216 534.833 498.595 535.127C498.974 535.417 499.439 535.562 499.988 535.562C500.559 535.562 501.037 535.411 501.42 535.108C501.804 534.801 502.094 534.386 502.29 533.862C502.49 533.337 502.59 532.747 502.59 532.091C502.59 531.443 502.492 530.862 502.296 530.346C502.104 529.83 501.814 529.423 501.427 529.125C501.043 528.827 500.564 528.678 499.988 528.678C499.434 528.678 498.966 528.82 498.582 529.106C498.203 529.391 497.915 529.79 497.719 530.301C497.523 530.812 497.425 531.409 497.425 532.091ZM508.573 523.909V537H506.662V523.909H508.573ZM514.001 537.217C513.379 537.217 512.817 537.102 512.314 536.872C511.811 536.638 511.413 536.299 511.119 535.856C510.829 535.413 510.684 534.869 510.684 534.226C510.684 533.672 510.79 533.216 511.004 532.858C511.217 532.5 511.504 532.217 511.866 532.008C512.229 531.799 512.634 531.641 513.081 531.535C513.528 531.428 513.984 531.347 514.449 531.292C515.037 531.224 515.514 531.168 515.881 531.126C516.247 531.079 516.513 531.004 516.68 530.902C516.846 530.8 516.929 530.634 516.929 530.403V530.359C516.929 529.8 516.771 529.368 516.456 529.061C516.145 528.754 515.68 528.601 515.062 528.601C514.419 528.601 513.912 528.744 513.541 529.029C513.175 529.31 512.921 529.624 512.781 529.969L510.984 529.56C511.197 528.963 511.509 528.482 511.918 528.115C512.331 527.744 512.806 527.476 513.343 527.31C513.88 527.139 514.445 527.054 515.037 527.054C515.429 527.054 515.844 527.101 516.283 527.195C516.727 527.284 517.14 527.45 517.523 527.693C517.911 527.936 518.229 528.283 518.476 528.735C518.723 529.183 518.847 529.764 518.847 530.48V537H516.98V535.658H516.903C516.78 535.905 516.594 536.148 516.347 536.386C516.1 536.625 515.783 536.823 515.395 536.981C515.007 537.138 514.543 537.217 514.001 537.217ZM514.417 535.683C514.945 535.683 515.397 535.579 515.772 535.37C516.151 535.161 516.439 534.888 516.635 534.552C516.835 534.211 516.935 533.847 516.935 533.459V532.193C516.867 532.261 516.735 532.325 516.539 532.385C516.347 532.44 516.128 532.489 515.881 532.532C515.634 532.57 515.393 532.607 515.158 532.641C514.924 532.67 514.728 532.696 514.57 532.717C514.2 532.764 513.861 532.843 513.554 532.954C513.251 533.065 513.009 533.224 512.825 533.433C512.646 533.638 512.557 533.911 512.557 534.251C512.557 534.724 512.732 535.082 513.081 535.325C513.43 535.564 513.876 535.683 514.417 535.683ZM525.528 537.198C524.578 537.198 523.759 536.983 523.073 536.553C522.392 536.118 521.867 535.519 521.501 534.756C521.134 533.994 520.951 533.12 520.951 532.136C520.951 531.138 521.139 530.259 521.514 529.496C521.889 528.729 522.417 528.13 523.099 527.7C523.781 527.269 524.584 527.054 525.509 527.054C526.254 527.054 526.919 527.192 527.503 527.469C528.087 527.742 528.558 528.126 528.916 528.62C529.278 529.114 529.493 529.692 529.561 530.352H527.701C527.599 529.892 527.365 529.496 526.998 529.163C526.636 528.831 526.15 528.665 525.541 528.665C525.008 528.665 524.541 528.805 524.141 529.087C523.744 529.364 523.436 529.76 523.214 530.276C522.992 530.787 522.882 531.392 522.882 532.091C522.882 532.807 522.99 533.425 523.208 533.945C523.425 534.464 523.732 534.867 524.128 535.153C524.529 535.438 524.999 535.581 525.541 535.581C525.903 535.581 526.231 535.515 526.525 535.383C526.823 535.246 527.073 535.053 527.273 534.801C527.477 534.55 527.62 534.247 527.701 533.893H529.561C529.493 534.528 529.286 535.095 528.941 535.594C528.596 536.092 528.134 536.484 527.554 536.77C526.979 537.055 526.303 537.198 525.528 537.198ZM535.837 537.198C534.869 537.198 534.036 536.991 533.337 536.578C532.643 536.161 532.106 535.575 531.727 534.82C531.352 534.062 531.164 533.173 531.164 532.155C531.164 531.149 531.352 530.263 531.727 529.496C532.106 528.729 532.634 528.13 533.312 527.7C533.994 527.269 534.79 527.054 535.702 527.054C536.256 527.054 536.793 527.146 537.313 527.329C537.833 527.512 538.3 527.8 538.713 528.192C539.126 528.584 539.452 529.093 539.691 529.719C539.93 530.342 540.049 531.098 540.049 531.989V532.666H532.244V531.234H538.176C538.176 530.732 538.074 530.286 537.869 529.898C537.665 529.506 537.377 529.197 537.006 528.972C536.64 528.746 536.21 528.633 535.715 528.633C535.178 528.633 534.71 528.765 534.309 529.029C533.913 529.289 533.606 529.63 533.388 530.052C533.175 530.469 533.069 530.923 533.069 531.413V532.532C533.069 533.188 533.184 533.746 533.414 534.207C533.648 534.667 533.974 535.018 534.392 535.261C534.81 535.5 535.298 535.619 535.856 535.619C536.218 535.619 536.548 535.568 536.847 535.466C537.145 535.359 537.403 535.202 537.62 534.993C537.837 534.784 538.004 534.526 538.119 534.219L539.928 534.545C539.783 535.078 539.523 535.545 539.148 535.945C538.777 536.342 538.31 536.651 537.748 536.872C537.19 537.089 536.553 537.198 535.837 537.198ZM543.429 537.121C543.079 537.121 542.779 536.998 542.528 536.751C542.276 536.499 542.15 536.197 542.15 535.843C542.15 535.494 542.276 535.195 542.528 534.948C542.779 534.697 543.079 534.571 543.429 534.571C543.778 534.571 544.079 534.697 544.33 534.948C544.581 535.195 544.707 535.494 544.707 535.843C544.707 536.077 544.648 536.293 544.528 536.489C544.413 536.68 544.26 536.834 544.068 536.949C543.876 537.064 543.663 537.121 543.429 537.121Z" fill="white"/>
<path d="M672 552.499L664.364 554.657V552.822L669.733 551.48V551.411L664.364 550.038V548.224L669.703 546.852V546.777L664.364 545.455V543.615L672 545.778V547.652L666.839 549.084V549.188L672 550.62V552.499ZM672 540.782L664.364 542.94V541.106L669.733 539.763V539.694L664.364 538.322V536.507L669.703 535.135V535.06L664.364 533.738V531.898L672 534.061V535.935L666.839 537.367V537.471L672 538.903V540.782ZM672 529.066L664.364 531.223V529.389L669.733 528.047V527.977L664.364 526.605V524.79L669.703 523.418V523.343L664.364 522.021V520.181L672 522.344V524.218L666.839 525.65V525.755L672 527.186V529.066ZM672.109 518.855C672.109 519.157 672.003 519.415 671.791 519.631C671.579 519.846 671.321 519.952 671.016 519.949C670.717 519.952 670.462 519.846 670.25 519.631C670.038 519.415 669.932 519.157 669.932 518.855C669.932 518.564 670.038 518.31 670.25 518.095C670.462 517.876 670.717 517.765 671.016 517.762C671.218 517.765 671.402 517.818 671.567 517.921C671.733 518.02 671.866 518.153 671.965 518.318C672.061 518.481 672.109 518.66 672.109 518.855ZM672 514.516V516.485L661.818 512.901V510.624L672 507.034V509.003L663.906 511.722V511.802L672 514.516ZM668.008 514.452V509.082H669.489V514.452H668.008ZM661.818 503.973H672V505.773H661.818V503.973ZM675.023 498.801C675.023 499.447 674.935 500.003 674.759 500.467C674.587 500.931 674.355 501.304 674.063 501.585C673.772 501.867 673.448 502.062 673.094 502.172L672.701 500.551C672.85 500.478 672.998 500.372 673.143 500.233C673.293 500.094 673.415 499.906 673.511 499.671C673.611 499.433 673.661 499.133 673.661 498.771C673.661 498.261 673.536 497.838 673.288 497.504C673.042 497.169 672.638 497.001 672.075 497.001H670.628V497.091C670.813 497.184 671.004 497.32 671.2 497.499C671.395 497.674 671.559 497.908 671.692 498.2C671.824 498.488 671.891 498.851 671.891 499.288C671.891 499.875 671.753 500.407 671.478 500.884C671.2 501.358 670.785 501.736 670.235 502.018C669.682 502.296 668.989 502.435 668.157 502.435C667.318 502.435 666.611 502.296 666.034 502.018C665.454 501.736 665.015 501.357 664.717 500.879C664.415 500.402 664.264 499.87 664.264 499.283C664.264 498.836 664.34 498.468 664.493 498.18C664.642 497.888 664.823 497.656 665.035 497.484C665.244 497.311 665.441 497.18 665.626 497.091V496.991H664.364V495.217H672.124C672.777 495.217 673.317 495.372 673.745 495.684C674.173 495.996 674.492 496.421 674.705 496.962C674.917 497.502 675.023 498.115 675.023 498.801ZM670.479 498.786C670.479 498.405 670.386 498.08 670.2 497.812C670.015 497.543 669.748 497.339 669.4 497.2C669.052 497.061 668.634 496.991 668.147 496.991C667.666 496.991 667.246 497.061 666.884 497.2C666.523 497.336 666.243 497.538 666.044 497.807C665.842 498.072 665.741 498.398 665.741 498.786C665.741 499.187 665.845 499.522 666.054 499.79C666.263 500.059 666.549 500.261 666.914 500.397C667.275 500.533 667.686 500.601 668.147 500.601C668.614 500.601 669.024 500.533 669.375 500.397C669.723 500.258 669.995 500.054 670.19 499.786C670.383 499.514 670.479 499.181 670.479 498.786ZM672.149 490.041C672.149 490.787 671.985 491.433 671.657 491.98C671.329 492.527 670.87 492.951 670.28 493.253C669.69 493.551 669 493.7 668.212 493.7C667.423 493.7 666.732 493.551 666.138 493.253C665.545 492.951 665.085 492.527 664.756 491.98C664.428 491.433 664.264 490.787 664.264 490.041C664.264 489.295 664.428 488.649 664.756 488.102C665.085 487.555 665.545 487.133 666.138 486.835C666.732 486.533 667.423 486.382 668.212 486.382C669 486.382 669.69 486.533 670.28 486.835C670.87 487.133 671.329 487.555 671.657 488.102C671.985 488.649 672.149 489.295 672.149 490.041ZM670.707 490.031C670.707 489.627 670.596 489.289 670.374 489.017C670.149 488.745 669.847 488.543 669.469 488.411C669.092 488.275 668.671 488.207 668.207 488.207C667.739 488.207 667.317 488.275 666.939 488.411C666.558 488.543 666.254 488.745 666.029 489.017C665.804 489.289 665.691 489.627 665.691 490.031C665.691 490.446 665.804 490.79 666.029 491.065C666.254 491.337 666.558 491.541 666.939 491.677C667.317 491.809 667.739 491.876 668.207 491.876C668.671 491.876 669.092 491.809 669.469 491.677C669.847 491.541 670.149 491.337 670.374 491.065C670.596 490.79 670.707 490.446 670.707 490.031ZM672 484.855H664.364V483.11H665.636V483.03C665.196 482.891 664.856 482.652 664.617 482.314C664.375 481.973 664.254 481.583 664.254 481.146C664.254 481.046 664.259 480.935 664.269 480.813C664.276 480.687 664.287 480.582 664.304 480.499H665.96C665.933 480.576 665.91 480.697 665.89 480.862C665.867 481.025 665.855 481.182 665.855 481.335C665.855 481.663 665.926 481.958 666.069 482.22C666.208 482.478 666.402 482.682 666.651 482.831C666.899 482.98 667.186 483.055 667.511 483.055H672V484.855ZM672.149 476.287C672.149 477.033 671.985 477.679 671.657 478.226C671.329 478.773 670.87 479.197 670.28 479.499C669.69 479.797 669 479.946 668.212 479.946C667.423 479.946 666.732 479.797 666.138 479.499C665.545 479.197 665.085 478.773 664.756 478.226C664.428 477.679 664.264 477.033 664.264 476.287C664.264 475.542 664.428 474.895 664.756 474.348C665.085 473.801 665.545 473.379 666.138 473.081C666.732 472.779 667.423 472.628 668.212 472.628C669 472.628 669.69 472.779 670.28 473.081C670.87 473.379 671.329 473.801 671.657 474.348C671.985 474.895 672.149 475.542 672.149 476.287ZM670.707 476.277C670.707 475.873 670.596 475.535 670.374 475.263C670.149 474.991 669.847 474.789 669.469 474.657C669.092 474.521 668.671 474.453 668.207 474.453C667.739 474.453 667.317 474.521 666.939 474.657C666.558 474.789 666.254 474.991 666.029 475.263C665.804 475.535 665.691 475.873 665.691 476.277C665.691 476.692 665.804 477.036 666.029 477.311C666.254 477.583 666.558 477.787 666.939 477.923C667.317 478.056 667.739 478.122 668.207 478.122C668.671 478.122 669.092 478.056 669.469 477.923C669.847 477.787 670.149 477.583 670.374 477.311C670.596 477.036 670.707 476.692 670.707 476.277ZM672.149 467.77C672.149 468.515 671.985 469.162 671.657 469.709C671.329 470.256 670.87 470.68 670.28 470.981C669.69 471.28 669 471.429 668.212 471.429C667.423 471.429 666.732 471.28 666.138 470.981C665.545 470.68 665.085 470.256 664.756 469.709C664.428 469.162 664.264 468.515 664.264 467.77C664.264 467.024 664.428 466.378 664.756 465.831C665.085 465.284 665.545 464.861 666.138 464.563C666.732 464.261 667.423 464.111 668.212 464.111C669 464.111 669.69 464.261 670.28 464.563C670.87 464.861 671.329 465.284 671.657 465.831C671.985 466.378 672.149 467.024 672.149 467.77ZM670.707 467.76C670.707 467.355 670.596 467.017 670.374 466.746C670.149 466.474 669.847 466.272 669.469 466.139C669.092 466.003 668.671 465.935 668.207 465.935C667.739 465.935 667.317 466.003 666.939 466.139C666.558 466.272 666.254 466.474 666.029 466.746C665.804 467.017 665.691 467.355 665.691 467.76C665.691 468.174 665.804 468.519 666.029 468.794C666.254 469.066 666.558 469.269 666.939 469.405C667.317 469.538 667.739 469.604 668.207 469.604C668.671 469.604 669.092 469.538 669.469 469.405C669.847 469.269 670.149 469.066 670.374 468.794C670.596 468.519 670.707 468.174 670.707 467.76ZM672 462.583H664.364V460.863H665.661V460.773C665.224 460.614 664.882 460.351 664.637 459.983C664.388 459.615 664.264 459.176 664.264 458.665C664.264 458.148 664.39 457.713 664.642 457.358C664.891 457 665.23 456.748 665.661 456.602V456.523C665.237 456.354 664.899 456.069 664.647 455.668C664.392 455.263 664.264 454.784 664.264 454.231C664.264 453.528 664.486 452.955 664.93 452.511C665.375 452.067 666.022 451.844 666.874 451.844H672V453.649H667.153C666.679 453.649 666.332 453.775 666.114 454.027C665.892 454.279 665.781 454.587 665.781 454.952C665.781 455.386 665.916 455.726 666.188 455.971C666.457 456.213 666.806 456.334 667.237 456.334H672V458.099H667.078C666.684 458.099 666.369 458.218 666.134 458.457C665.898 458.692 665.781 459 665.781 459.381C665.781 459.64 665.847 459.875 665.979 460.087C666.109 460.299 666.293 460.469 666.531 460.594C666.767 460.72 667.042 460.783 667.357 460.783H672V462.583ZM666.382 443.983L666.561 445.624C666.395 445.67 666.24 445.751 666.094 445.867C665.948 445.98 665.83 446.133 665.741 446.325C665.651 446.517 665.607 446.752 665.607 447.031C665.607 447.405 665.688 447.72 665.85 447.975C666.013 448.227 666.223 448.352 666.482 448.348C666.704 448.352 666.884 448.27 667.023 448.105C667.163 447.936 667.277 447.657 667.366 447.269L667.645 445.967C667.801 445.244 668.048 444.707 668.386 444.356C668.724 444.001 669.166 443.822 669.713 443.819C670.194 443.822 670.618 443.963 670.986 444.242C671.35 444.517 671.635 444.9 671.841 445.39C672.046 445.881 672.149 446.444 672.149 447.08C672.149 448.015 671.954 448.767 671.562 449.338C671.168 449.908 670.62 450.247 669.917 450.357L669.748 448.602C670.093 448.522 670.353 448.353 670.528 448.095C670.704 447.836 670.792 447.5 670.792 447.085C670.792 446.658 670.704 446.315 670.528 446.056C670.353 445.794 670.136 445.664 669.877 445.664C669.658 445.664 669.478 445.748 669.335 445.917C669.193 446.083 669.083 446.341 669.007 446.693L668.734 447.995C668.581 448.728 668.324 449.27 667.963 449.621C667.598 449.972 667.138 450.146 666.581 450.143C666.11 450.146 665.703 450.019 665.358 449.76C665.01 449.498 664.741 449.135 664.553 448.671C664.36 448.204 664.264 447.665 664.264 447.056C664.264 446.161 664.455 445.456 664.836 444.943C665.217 444.426 665.732 444.106 666.382 443.983ZM672.109 441.226C672.109 441.528 672.003 441.787 671.791 442.002C671.579 442.217 671.321 442.323 671.016 442.32C670.717 442.323 670.462 442.217 670.25 442.002C670.038 441.787 669.932 441.528 669.932 441.226C669.932 440.935 670.038 440.681 670.25 440.466C670.462 440.247 670.717 440.136 671.016 440.133C671.218 440.136 671.402 440.189 671.567 440.292C671.733 440.391 671.866 440.524 671.965 440.689C672.061 440.852 672.109 441.031 672.109 441.226ZM672.149 434.944C672.149 435.706 671.982 436.36 671.647 436.907C671.312 437.451 670.85 437.87 670.26 438.165C669.667 438.457 668.984 438.603 668.212 438.603C667.436 438.603 666.752 438.453 666.158 438.155C665.562 437.857 665.098 437.436 664.766 436.892C664.432 436.346 664.264 435.699 664.264 434.953C664.264 434.334 664.379 433.785 664.607 433.308C664.833 432.827 665.152 432.444 665.567 432.159C665.978 431.874 666.458 431.712 667.009 431.672V433.392C666.641 433.462 666.334 433.628 666.089 433.89C665.84 434.148 665.716 434.494 665.716 434.929C665.716 435.297 665.815 435.62 666.014 435.898C666.21 436.176 666.491 436.394 666.859 436.549C667.227 436.702 667.668 436.778 668.182 436.778C668.702 436.778 669.15 436.702 669.524 436.549C669.895 436.397 670.182 436.183 670.384 435.908C670.583 435.63 670.683 435.303 670.683 434.929C670.683 434.663 670.633 434.426 670.533 434.218C670.431 434.006 670.283 433.828 670.091 433.686C669.899 433.543 669.665 433.445 669.39 433.392V431.672C669.93 431.715 670.409 431.874 670.827 432.15C671.241 432.425 671.566 432.799 671.801 433.273C672.033 433.747 672.149 434.304 672.149 434.944ZM672.149 426.863C672.149 427.609 671.985 428.256 671.657 428.802C671.329 429.349 670.87 429.773 670.28 430.075C669.69 430.373 669 430.523 668.212 430.523C667.423 430.523 666.732 430.373 666.138 430.075C665.545 429.773 665.085 429.349 664.756 428.802C664.428 428.256 664.264 427.609 664.264 426.863C664.264 426.118 664.428 425.471 664.756 424.925C665.085 424.378 665.545 423.955 666.138 423.657C666.732 423.355 667.423 423.204 668.212 423.204C669 423.204 669.69 423.355 670.28 423.657C670.87 423.955 671.329 424.378 671.657 424.925C671.985 425.471 672.149 426.118 672.149 426.863ZM670.707 426.854C670.707 426.449 670.596 426.111 670.374 425.839C670.149 425.568 669.847 425.365 669.469 425.233C669.092 425.097 668.671 425.029 668.207 425.029C667.739 425.029 667.317 425.097 666.939 425.233C666.558 425.365 666.254 425.568 666.029 425.839C665.804 426.111 665.691 426.449 665.691 426.854C665.691 427.268 665.804 427.613 666.029 427.888C666.254 428.159 666.558 428.363 666.939 428.499C667.317 428.632 667.739 428.698 668.207 428.698C668.671 428.698 669.092 428.632 669.469 428.499C669.847 428.363 670.149 428.159 670.374 427.888C670.596 427.613 670.707 427.268 670.707 426.854ZM672 421.677H664.364V419.957H665.661V419.867C665.224 419.708 664.882 419.445 664.637 419.077C664.388 418.709 664.264 418.27 664.264 417.759C664.264 417.242 664.39 416.806 664.642 416.452C664.891 416.094 665.23 415.842 665.661 415.696V415.616C665.237 415.447 664.899 415.162 664.647 414.761C664.392 414.357 664.264 413.878 664.264 413.325C664.264 412.622 664.486 412.049 664.93 411.604C665.375 411.16 666.022 410.938 666.874 410.938H672V412.743H667.153C666.679 412.743 666.332 412.869 666.114 413.121C665.892 413.373 665.781 413.681 665.781 414.045C665.781 414.48 665.916 414.819 666.188 415.065C666.457 415.307 666.806 415.428 667.237 415.428H672V417.192H667.078C666.684 417.192 666.369 417.312 666.134 417.55C665.898 417.786 665.781 418.094 665.781 418.475C665.781 418.734 665.847 418.969 665.979 419.181C666.109 419.393 666.293 419.562 666.531 419.688C666.767 419.814 667.042 419.877 667.357 419.877H672V421.677Z" fill="#212121"/>
<path d="M242.872 645L244.543 634.818H245.537L243.866 645H242.872ZM238.239 642.176L238.398 641.182H245.994L245.835 642.176H238.239ZM239.293 645L240.963 634.818H241.957L240.287 645H239.293ZM238.835 638.636L238.994 637.642H246.591L246.432 638.636H238.835ZM247.508 635.912V634.818H255.145V635.912H251.943V645H250.71V635.912H247.508ZM256.095 645V637.364H257.229V638.517H257.308C257.448 638.139 257.7 637.833 258.064 637.597C258.429 637.362 258.84 637.244 259.297 637.244C259.383 637.244 259.491 637.246 259.62 637.249C259.749 637.253 259.847 637.258 259.914 637.264V638.457C259.874 638.447 259.783 638.433 259.64 638.413C259.501 638.389 259.353 638.378 259.198 638.378C258.826 638.378 258.495 638.456 258.203 638.612C257.915 638.764 257.686 638.976 257.517 639.248C257.352 639.516 257.269 639.823 257.269 640.168V645H256.095ZM263.551 645.179C263.068 645.179 262.628 645.088 262.234 644.906C261.84 644.72 261.526 644.453 261.294 644.105C261.062 643.754 260.946 643.33 260.946 642.832C260.946 642.395 261.033 642.04 261.205 641.768C261.377 641.493 261.608 641.278 261.896 641.122C262.184 640.966 262.502 640.85 262.85 640.774C263.202 640.695 263.555 640.632 263.909 640.585C264.373 640.526 264.75 640.481 265.038 640.451C265.33 640.418 265.542 640.363 265.674 640.287C265.81 640.211 265.878 640.078 265.878 639.889V639.849C265.878 639.359 265.744 638.978 265.475 638.706C265.21 638.434 264.808 638.298 264.267 638.298C263.707 638.298 263.268 638.421 262.95 638.666C262.632 638.911 262.408 639.173 262.279 639.452L261.165 639.054C261.364 638.59 261.629 638.229 261.961 637.97C262.295 637.708 262.66 637.526 263.054 637.423C263.452 637.317 263.843 637.264 264.228 637.264C264.473 637.264 264.755 637.294 265.073 637.354C265.394 637.41 265.704 637.528 266.002 637.707C266.304 637.886 266.554 638.156 266.753 638.517C266.952 638.878 267.051 639.362 267.051 639.969V645H265.878V643.966H265.819C265.739 644.132 265.606 644.309 265.421 644.498C265.235 644.687 264.988 644.848 264.68 644.98C264.372 645.113 263.996 645.179 263.551 645.179ZM263.73 644.125C264.194 644.125 264.586 644.034 264.904 643.852C265.225 643.669 265.467 643.434 265.63 643.146C265.795 642.857 265.878 642.554 265.878 642.236V641.162C265.828 641.222 265.719 641.276 265.55 641.326C265.384 641.372 265.192 641.414 264.973 641.45C264.758 641.483 264.547 641.513 264.342 641.54C264.14 641.563 263.976 641.583 263.85 641.599C263.545 641.639 263.26 641.704 262.995 641.793C262.733 641.879 262.521 642.01 262.358 642.186C262.199 642.358 262.12 642.594 262.12 642.892C262.12 643.3 262.27 643.608 262.572 643.817C262.877 644.022 263.263 644.125 263.73 644.125ZM272.077 645.159C271.44 645.159 270.878 644.998 270.391 644.677C269.904 644.352 269.523 643.895 269.248 643.305C268.973 642.711 268.835 642.01 268.835 641.202C268.835 640.4 268.973 639.704 269.248 639.114C269.523 638.524 269.906 638.068 270.396 637.746C270.887 637.425 271.453 637.264 272.096 637.264C272.594 637.264 272.986 637.347 273.275 637.513C273.566 637.675 273.788 637.861 273.941 638.07C274.097 638.275 274.218 638.444 274.304 638.577H274.403V634.818H275.577V645H274.443V643.827H274.304C274.218 643.966 274.095 644.142 273.936 644.354C273.777 644.562 273.55 644.75 273.255 644.915C272.96 645.078 272.567 645.159 272.077 645.159ZM272.236 644.105C272.706 644.105 273.104 643.982 273.429 643.737C273.754 643.489 274.001 643.146 274.17 642.708C274.339 642.267 274.423 641.759 274.423 641.182C274.423 640.612 274.34 640.113 274.175 639.685C274.009 639.254 273.764 638.92 273.439 638.681C273.114 638.439 272.713 638.318 272.236 638.318C271.738 638.318 271.324 638.446 270.993 638.701C270.665 638.953 270.418 639.296 270.252 639.73C270.09 640.161 270.008 640.645 270.008 641.182C270.008 641.725 270.091 642.219 270.257 642.663C270.426 643.104 270.675 643.455 271.003 643.717C271.334 643.976 271.745 644.105 272.236 644.105ZM277.888 645V637.364H279.062V645H277.888ZM278.485 636.091C278.256 636.091 278.059 636.013 277.893 635.857C277.731 635.701 277.65 635.514 277.65 635.295C277.65 635.077 277.731 634.889 277.893 634.734C278.059 634.578 278.256 634.5 278.485 634.5C278.714 634.5 278.909 634.578 279.072 634.734C279.237 634.889 279.32 635.077 279.32 635.295C279.32 635.514 279.237 635.701 279.072 635.857C278.909 636.013 278.714 636.091 278.485 636.091ZM282.384 640.406V645H281.211V637.364H282.344V638.557H282.444C282.623 638.169 282.894 637.857 283.259 637.622C283.623 637.384 284.094 637.264 284.671 637.264C285.188 637.264 285.64 637.37 286.028 637.582C286.416 637.791 286.717 638.109 286.933 638.537C287.148 638.961 287.256 639.498 287.256 640.148V645H286.083V640.227C286.083 639.627 285.927 639.16 285.615 638.825C285.304 638.487 284.876 638.318 284.333 638.318C283.958 638.318 283.623 638.399 283.328 638.562C283.037 638.724 282.806 638.961 282.637 639.273C282.468 639.584 282.384 639.962 282.384 640.406ZM292.482 648.023C291.916 648.023 291.428 647.95 291.021 647.804C290.613 647.661 290.273 647.473 290.002 647.237C289.733 647.005 289.519 646.757 289.36 646.491L290.295 645.835C290.401 645.974 290.535 646.134 290.698 646.312C290.86 646.495 291.082 646.652 291.364 646.785C291.649 646.921 292.022 646.989 292.482 646.989C293.099 646.989 293.608 646.839 294.009 646.541C294.41 646.243 294.61 645.776 294.61 645.139V643.588H294.511C294.425 643.727 294.302 643.9 294.143 644.105C293.987 644.307 293.762 644.488 293.467 644.647C293.175 644.803 292.781 644.881 292.284 644.881C291.667 644.881 291.114 644.735 290.623 644.443C290.136 644.152 289.75 643.727 289.465 643.17C289.183 642.614 289.042 641.937 289.042 641.142C289.042 640.36 289.18 639.679 289.455 639.099C289.73 638.515 290.113 638.065 290.603 637.746C291.094 637.425 291.66 637.264 292.303 637.264C292.801 637.264 293.195 637.347 293.487 637.513C293.782 637.675 294.007 637.861 294.163 638.07C294.322 638.275 294.445 638.444 294.531 638.577H294.65V637.364H295.784V645.219C295.784 645.875 295.634 646.409 295.336 646.82C295.041 647.234 294.643 647.537 294.143 647.729C293.646 647.925 293.092 648.023 292.482 648.023ZM292.443 643.827C292.913 643.827 293.311 643.719 293.636 643.504C293.961 643.288 294.208 642.978 294.377 642.574C294.546 642.17 294.63 641.686 294.63 641.122C294.63 640.572 294.547 640.086 294.382 639.665C294.216 639.245 293.971 638.915 293.646 638.676C293.321 638.437 292.92 638.318 292.443 638.318C291.945 638.318 291.531 638.444 291.2 638.696C290.872 638.948 290.625 639.286 290.459 639.71C290.297 640.134 290.215 640.605 290.215 641.122C290.215 641.652 290.298 642.121 290.464 642.529C290.633 642.933 290.882 643.252 291.21 643.484C291.541 643.712 291.952 643.827 292.443 643.827ZM305.667 645L307.338 634.818H308.332L306.661 645H305.667ZM301.034 642.176L301.193 641.182H308.789L308.63 642.176H301.034ZM302.088 645L303.758 634.818H304.752L303.082 645H302.088ZM301.63 638.636L301.789 637.642H309.386L309.227 638.636H301.63ZM316.428 637.364C316.368 636.86 316.126 636.469 315.702 636.19C315.278 635.912 314.758 635.773 314.141 635.773C313.69 635.773 313.296 635.846 312.958 635.991C312.623 636.137 312.361 636.338 312.172 636.593C311.987 636.848 311.894 637.138 311.894 637.463C311.894 637.735 311.959 637.969 312.088 638.164C312.22 638.356 312.39 638.517 312.595 638.646C312.8 638.772 313.016 638.877 313.241 638.96C313.467 639.039 313.674 639.104 313.863 639.153L314.897 639.432C315.162 639.501 315.457 639.598 315.782 639.72C316.11 639.843 316.423 640.01 316.721 640.222C317.023 640.431 317.272 640.7 317.467 641.028C317.663 641.356 317.76 641.759 317.76 642.236C317.76 642.786 317.616 643.283 317.328 643.727C317.043 644.171 316.625 644.524 316.075 644.786C315.528 645.048 314.864 645.179 314.081 645.179C313.352 645.179 312.721 645.061 312.187 644.826C311.657 644.591 311.239 644.263 310.934 643.842C310.633 643.421 310.462 642.932 310.422 642.375H311.695C311.728 642.759 311.858 643.078 312.083 643.33C312.312 643.578 312.6 643.764 312.948 643.886C313.299 644.006 313.677 644.065 314.081 644.065C314.552 644.065 314.975 643.989 315.349 643.837C315.724 643.681 316.02 643.465 316.239 643.19C316.458 642.912 316.567 642.587 316.567 642.216C316.567 641.878 316.473 641.603 316.284 641.391C316.095 641.179 315.846 641.006 315.538 640.874C315.23 640.741 314.897 640.625 314.539 640.526L313.286 640.168C312.491 639.939 311.861 639.612 311.397 639.188C310.933 638.764 310.701 638.209 310.701 637.523C310.701 636.953 310.855 636.455 311.163 636.031C311.475 635.604 311.892 635.272 312.416 635.037C312.943 634.798 313.531 634.679 314.181 634.679C314.837 634.679 315.421 634.797 315.931 635.032C316.441 635.264 316.846 635.582 317.144 635.987C317.446 636.391 317.605 636.85 317.621 637.364H316.428ZM322.95 637.364V638.358H318.992V637.364H322.95ZM320.146 635.534H321.319V642.812C321.319 643.144 321.367 643.393 321.463 643.558C321.563 643.721 321.688 643.83 321.841 643.886C321.997 643.939 322.161 643.966 322.333 643.966C322.462 643.966 322.568 643.959 322.651 643.946C322.734 643.929 322.8 643.916 322.85 643.906L323.089 644.96C323.009 644.99 322.898 645.02 322.756 645.05C322.613 645.083 322.433 645.099 322.214 645.099C321.882 645.099 321.558 645.028 321.239 644.886C320.924 644.743 320.663 644.526 320.454 644.234C320.248 643.943 320.146 643.575 320.146 643.131V635.534ZM327.735 645.159C327.045 645.159 326.44 644.995 325.92 644.667C325.403 644.339 324.999 643.88 324.707 643.29C324.419 642.7 324.275 642.01 324.275 641.222C324.275 640.426 324.419 639.732 324.707 639.138C324.999 638.545 325.403 638.085 325.92 637.756C326.44 637.428 327.045 637.264 327.735 637.264C328.424 637.264 329.027 637.428 329.544 637.756C330.065 638.085 330.469 638.545 330.757 639.138C331.049 639.732 331.195 640.426 331.195 641.222C331.195 642.01 331.049 642.7 330.757 643.29C330.469 643.88 330.065 644.339 329.544 644.667C329.027 644.995 328.424 645.159 327.735 645.159ZM327.735 644.105C328.258 644.105 328.689 643.971 329.027 643.702C329.365 643.434 329.616 643.081 329.778 642.643C329.94 642.206 330.022 641.732 330.022 641.222C330.022 640.711 329.94 640.236 329.778 639.795C329.616 639.354 329.365 638.998 329.027 638.726C328.689 638.454 328.258 638.318 327.735 638.318C327.211 638.318 326.78 638.454 326.442 638.726C326.104 638.998 325.854 639.354 325.691 639.795C325.529 640.236 325.448 640.711 325.448 641.222C325.448 641.732 325.529 642.206 325.691 642.643C325.854 643.081 326.104 643.434 326.442 643.702C326.78 643.971 327.211 644.105 327.735 644.105ZM336.088 645.159C335.372 645.159 334.756 644.99 334.239 644.652C333.722 644.314 333.324 643.848 333.046 643.255C332.767 642.662 332.628 641.984 332.628 641.222C332.628 640.446 332.771 639.762 333.056 639.168C333.344 638.572 333.745 638.106 334.259 637.771C334.776 637.433 335.379 637.264 336.068 637.264C336.605 637.264 337.089 637.364 337.52 637.562C337.951 637.761 338.304 638.04 338.579 638.398C338.854 638.756 339.025 639.173 339.091 639.651H337.918C337.828 639.303 337.629 638.994 337.321 638.726C337.016 638.454 336.605 638.318 336.088 638.318C335.631 638.318 335.23 638.437 334.885 638.676C334.544 638.911 334.277 639.245 334.085 639.675C333.896 640.103 333.801 640.605 333.801 641.182C333.801 641.772 333.894 642.286 334.08 642.723C334.269 643.161 334.534 643.5 334.875 643.742C335.22 643.984 335.624 644.105 336.088 644.105C336.393 644.105 336.67 644.052 336.919 643.946C337.167 643.84 337.378 643.688 337.55 643.489C337.722 643.29 337.845 643.051 337.918 642.773H339.091C339.025 643.223 338.861 643.629 338.599 643.991C338.34 644.349 337.997 644.634 337.57 644.846C337.146 645.055 336.652 645.159 336.088 645.159ZM341.9 642.216L341.88 640.764H342.119L345.46 637.364H346.911L343.352 640.963H343.252L341.9 642.216ZM340.806 645V634.818H341.98V645H340.806ZM345.659 645L342.676 641.222L343.511 640.406L347.15 645H345.659ZM348.422 645V637.364H349.555V638.557H349.654C349.814 638.149 350.07 637.833 350.425 637.607C350.78 637.379 351.206 637.264 351.703 637.264C352.207 637.264 352.626 637.379 352.961 637.607C353.299 637.833 353.562 638.149 353.751 638.557H353.831C354.026 638.162 354.319 637.849 354.711 637.617C355.102 637.382 355.571 637.264 356.118 637.264C356.8 637.264 357.359 637.478 357.793 637.906C358.227 638.33 358.444 638.991 358.444 639.889V645H357.271V639.889C357.271 639.326 357.117 638.923 356.809 638.681C356.5 638.439 356.137 638.318 355.72 638.318C355.183 638.318 354.767 638.481 354.472 638.805C354.177 639.127 354.029 639.535 354.029 640.028V645H352.836V639.77C352.836 639.336 352.695 638.986 352.414 638.721C352.132 638.452 351.769 638.318 351.325 638.318C351.02 638.318 350.735 638.399 350.47 638.562C350.208 638.724 349.996 638.95 349.833 639.238C349.674 639.523 349.595 639.853 349.595 640.227V645H348.422ZM362.837 645.179C362.353 645.179 361.914 645.088 361.519 644.906C361.125 644.72 360.812 644.453 360.58 644.105C360.348 643.754 360.232 643.33 360.232 642.832C360.232 642.395 360.318 642.04 360.49 641.768C360.662 641.493 360.893 641.278 361.181 641.122C361.469 640.966 361.788 640.85 362.136 640.774C362.487 640.695 362.84 640.632 363.195 640.585C363.659 640.526 364.035 640.481 364.323 640.451C364.615 640.418 364.827 640.363 364.96 640.287C365.095 640.211 365.163 640.078 365.163 639.889V639.849C365.163 639.359 365.029 638.978 364.761 638.706C364.496 638.434 364.093 638.298 363.553 638.298C362.992 638.298 362.553 638.421 362.235 638.666C361.917 638.911 361.693 639.173 361.564 639.452L360.45 639.054C360.649 638.59 360.914 638.229 361.246 637.97C361.58 637.708 361.945 637.526 362.339 637.423C362.737 637.317 363.128 637.264 363.513 637.264C363.758 637.264 364.04 637.294 364.358 637.354C364.679 637.41 364.989 637.528 365.288 637.707C365.589 637.886 365.839 638.156 366.038 638.517C366.237 638.878 366.337 639.362 366.337 639.969V645H365.163V643.966H365.104C365.024 644.132 364.892 644.309 364.706 644.498C364.52 644.687 364.273 644.848 363.965 644.98C363.657 645.113 363.281 645.179 362.837 645.179ZM363.016 644.125C363.48 644.125 363.871 644.034 364.189 643.852C364.51 643.669 364.752 643.434 364.915 643.146C365.08 642.857 365.163 642.554 365.163 642.236V641.162C365.114 641.222 365.004 641.276 364.835 641.326C364.67 641.372 364.477 641.414 364.259 641.45C364.043 641.483 363.833 641.513 363.627 641.54C363.425 641.563 363.261 641.583 363.135 641.599C362.83 641.639 362.545 641.704 362.28 641.793C362.018 641.879 361.806 642.01 361.643 642.186C361.484 642.358 361.405 642.594 361.405 642.892C361.405 643.3 361.556 643.608 361.857 643.817C362.162 644.022 362.548 644.125 363.016 644.125ZM368.478 645V637.364H369.612V638.517H369.691C369.83 638.139 370.082 637.833 370.447 637.597C370.811 637.362 371.222 637.244 371.68 637.244C371.766 637.244 371.874 637.246 372.003 637.249C372.132 637.253 372.23 637.258 372.296 637.264V638.457C372.257 638.447 372.165 638.433 372.023 638.413C371.884 638.389 371.736 638.378 371.58 638.378C371.209 638.378 370.878 638.456 370.586 638.612C370.298 638.764 370.069 638.976 369.9 639.248C369.734 639.516 369.651 639.823 369.651 640.168V645H368.478ZM374.781 642.216L374.761 640.764H375L378.341 637.364H379.792L376.233 640.963H376.133L374.781 642.216ZM373.687 645V634.818H374.86V645H373.687ZM378.539 645L375.556 641.222L376.392 640.406L380.031 645H378.539ZM384.19 645.159C383.454 645.159 382.819 644.997 382.286 644.672C381.755 644.344 381.346 643.886 381.058 643.3C380.772 642.71 380.63 642.024 380.63 641.241C380.63 640.459 380.772 639.77 381.058 639.173C381.346 638.573 381.747 638.106 382.261 637.771C382.778 637.433 383.381 637.264 384.07 637.264C384.468 637.264 384.861 637.33 385.249 637.463C385.636 637.596 385.989 637.811 386.308 638.109C386.626 638.404 386.879 638.795 387.068 639.283C387.257 639.77 387.352 640.37 387.352 641.082V641.58H381.465V640.565H386.158C386.158 640.134 386.072 639.75 385.9 639.412C385.731 639.074 385.489 638.807 385.174 638.612C384.862 638.416 384.495 638.318 384.07 638.318C383.603 638.318 383.199 638.434 382.857 638.666C382.519 638.895 382.259 639.193 382.077 639.561C381.894 639.929 381.803 640.323 381.803 640.744V641.42C381.803 641.997 381.903 642.486 382.102 642.887C382.304 643.285 382.584 643.588 382.942 643.797C383.3 644.002 383.716 644.105 384.19 644.105C384.498 644.105 384.776 644.062 385.025 643.976C385.277 643.886 385.494 643.754 385.676 643.578C385.858 643.399 385.999 643.177 386.099 642.912L387.232 643.23C387.113 643.615 386.912 643.953 386.631 644.244C386.349 644.533 386.001 644.758 385.587 644.92C385.172 645.08 384.707 645.159 384.19 645.159ZM392.457 637.364V638.358H388.5V637.364H392.457ZM389.653 635.534H390.827V642.812C390.827 643.144 390.875 643.393 390.971 643.558C391.07 643.721 391.196 643.83 391.349 643.886C391.504 643.939 391.669 643.966 391.841 643.966C391.97 643.966 392.076 643.959 392.159 643.946C392.242 643.929 392.308 643.916 392.358 643.906L392.597 644.96C392.517 644.99 392.406 645.02 392.263 645.05C392.121 645.083 391.94 645.099 391.722 645.099C391.39 645.099 391.065 645.028 390.747 644.886C390.432 644.743 390.17 644.526 389.962 644.234C389.756 643.943 389.653 643.575 389.653 643.131V635.534ZM401.958 645L403.629 634.818H404.623L402.952 645H401.958ZM397.325 642.176L397.484 641.182H405.08L404.921 642.176H397.325ZM398.379 645L400.049 634.818H401.043L399.373 645H398.379ZM397.921 638.636L398.08 637.642H405.677L405.518 638.636H397.921ZM412.719 637.364C412.659 636.86 412.417 636.469 411.993 636.19C411.569 635.912 411.049 635.773 410.432 635.773C409.981 635.773 409.587 635.846 409.249 635.991C408.914 636.137 408.652 636.338 408.463 636.593C408.278 636.848 408.185 637.138 408.185 637.463C408.185 637.735 408.25 637.969 408.379 638.164C408.511 638.356 408.681 638.517 408.886 638.646C409.092 638.772 409.307 638.877 409.532 638.96C409.758 639.039 409.965 639.104 410.154 639.153L411.188 639.432C411.453 639.501 411.748 639.598 412.073 639.72C412.401 639.843 412.714 640.01 413.012 640.222C413.314 640.431 413.563 640.7 413.758 641.028C413.954 641.356 414.051 641.759 414.051 642.236C414.051 642.786 413.907 643.283 413.619 643.727C413.334 644.171 412.916 644.524 412.366 644.786C411.819 645.048 411.155 645.179 410.373 645.179C409.643 645.179 409.012 645.061 408.478 644.826C407.948 644.591 407.53 644.263 407.225 643.842C406.924 643.421 406.753 642.932 406.713 642.375H407.986C408.019 642.759 408.149 643.078 408.374 643.33C408.603 643.578 408.891 643.764 409.239 643.886C409.59 644.006 409.968 644.065 410.373 644.065C410.843 644.065 411.266 643.989 411.64 643.837C412.015 643.681 412.311 643.465 412.53 643.19C412.749 642.912 412.858 642.587 412.858 642.216C412.858 641.878 412.764 641.603 412.575 641.391C412.386 641.179 412.137 641.006 411.829 640.874C411.521 640.741 411.188 640.625 410.83 640.526L409.577 640.168C408.782 639.939 408.152 639.612 407.688 639.188C407.224 638.764 406.992 638.209 406.992 637.523C406.992 636.953 407.146 636.455 407.454 636.031C407.766 635.604 408.183 635.272 408.707 635.037C409.234 634.798 409.822 634.679 410.472 634.679C411.128 634.679 411.712 634.797 412.222 635.032C412.732 635.264 413.137 635.582 413.435 635.987C413.737 636.391 413.896 636.85 413.912 637.364H412.719ZM419.241 637.364V638.358H415.283V637.364H419.241ZM416.437 635.534H417.61V642.812C417.61 643.144 417.658 643.393 417.754 643.558C417.854 643.721 417.979 643.83 418.132 643.886C418.288 643.939 418.452 643.966 418.624 643.966C418.753 643.966 418.859 643.959 418.942 643.946C419.025 643.929 419.091 643.916 419.141 643.906L419.38 644.96C419.3 644.99 419.189 645.02 419.047 645.05C418.904 645.083 418.724 645.099 418.505 645.099C418.173 645.099 417.849 645.028 417.53 644.886C417.215 644.743 416.954 644.526 416.745 644.234C416.539 643.943 416.437 643.575 416.437 643.131V635.534ZM421.006 645V637.364H422.139V638.517H422.219C422.358 638.139 422.61 637.833 422.974 637.597C423.339 637.362 423.75 637.244 424.207 637.244C424.293 637.244 424.401 637.246 424.53 637.249C424.66 637.253 424.757 637.258 424.824 637.264V638.457C424.784 638.447 424.693 638.433 424.55 638.413C424.411 638.389 424.264 638.378 424.108 638.378C423.737 638.378 423.405 638.456 423.113 638.612C422.825 638.764 422.596 638.976 422.427 639.248C422.262 639.516 422.179 639.823 422.179 640.168V645H421.006ZM428.462 645.179C427.978 645.179 427.539 645.088 427.144 644.906C426.75 644.72 426.437 644.453 426.205 644.105C425.973 643.754 425.857 643.33 425.857 642.832C425.857 642.395 425.943 642.04 426.115 641.768C426.287 641.493 426.518 641.278 426.806 641.122C427.094 640.966 427.413 640.85 427.761 640.774C428.112 640.695 428.465 640.632 428.82 640.585C429.284 640.526 429.66 640.481 429.948 640.451C430.24 640.418 430.452 640.363 430.585 640.287C430.72 640.211 430.788 640.078 430.788 639.889V639.849C430.788 639.359 430.654 638.978 430.386 638.706C430.121 638.434 429.718 638.298 429.178 638.298C428.617 638.298 428.178 638.421 427.86 638.666C427.542 638.911 427.318 639.173 427.189 639.452L426.075 639.054C426.274 638.59 426.539 638.229 426.871 637.97C427.205 637.708 427.57 637.526 427.964 637.423C428.362 637.317 428.753 637.264 429.138 637.264C429.383 637.264 429.665 637.294 429.983 637.354C430.304 637.41 430.614 637.528 430.913 637.707C431.214 637.886 431.464 638.156 431.663 638.517C431.862 638.878 431.962 639.362 431.962 639.969V645H430.788V643.966H430.729C430.649 644.132 430.517 644.309 430.331 644.498C430.145 644.687 429.898 644.848 429.59 644.98C429.282 645.113 428.906 645.179 428.462 645.179ZM428.641 644.125C429.105 644.125 429.496 644.034 429.814 643.852C430.135 643.669 430.377 643.434 430.54 643.146C430.705 642.857 430.788 642.554 430.788 642.236V641.162C430.739 641.222 430.629 641.276 430.46 641.326C430.295 641.372 430.102 641.414 429.884 641.45C429.668 641.483 429.458 641.513 429.252 641.54C429.05 641.563 428.886 641.583 428.76 641.599C428.455 641.639 428.17 641.704 427.905 641.793C427.643 641.879 427.431 642.01 427.268 642.186C427.109 642.358 427.03 642.594 427.03 642.892C427.03 643.3 427.181 643.608 427.482 643.817C427.787 644.022 428.173 644.125 428.641 644.125ZM437.424 637.364V638.358H433.467V637.364H437.424ZM434.62 635.534H435.794V642.812C435.794 643.144 435.842 643.393 435.938 643.558C436.037 643.721 436.163 643.83 436.316 643.886C436.471 643.939 436.635 643.966 436.808 643.966C436.937 643.966 437.043 643.959 437.126 643.946C437.209 643.929 437.275 643.916 437.325 643.906L437.563 644.96C437.484 644.99 437.373 645.02 437.23 645.05C437.088 645.083 436.907 645.099 436.688 645.099C436.357 645.099 436.032 645.028 435.714 644.886C435.399 644.743 435.137 644.526 434.928 644.234C434.723 643.943 434.62 643.575 434.62 643.131V635.534ZM442.309 645.159C441.573 645.159 440.938 644.997 440.405 644.672C439.874 644.344 439.465 643.886 439.177 643.3C438.892 642.71 438.749 642.024 438.749 641.241C438.749 640.459 438.892 639.77 439.177 639.173C439.465 638.573 439.866 638.106 440.38 637.771C440.897 637.433 441.5 637.264 442.189 637.264C442.587 637.264 442.98 637.33 443.368 637.463C443.756 637.596 444.108 637.811 444.427 638.109C444.745 638.404 444.998 638.795 445.187 639.283C445.376 639.77 445.471 640.37 445.471 641.082V641.58H439.584V640.565H444.278C444.278 640.134 444.191 639.75 444.019 639.412C443.85 639.074 443.608 638.807 443.293 638.612C442.982 638.416 442.614 638.318 442.189 638.318C441.722 638.318 441.318 638.434 440.976 638.666C440.638 638.895 440.378 639.193 440.196 639.561C440.014 639.929 439.922 640.323 439.922 640.744V641.42C439.922 641.997 440.022 642.486 440.221 642.887C440.423 643.285 440.703 643.588 441.061 643.797C441.419 644.002 441.835 644.105 442.309 644.105C442.617 644.105 442.895 644.062 443.144 643.976C443.396 643.886 443.613 643.754 443.795 643.578C443.978 643.399 444.118 643.177 444.218 642.912L445.351 643.23C445.232 643.615 445.032 643.953 444.75 644.244C444.468 644.533 444.12 644.758 443.706 644.92C443.291 645.08 442.826 645.159 442.309 645.159ZM450.338 648.023C449.771 648.023 449.284 647.95 448.876 647.804C448.469 647.661 448.129 647.473 447.857 647.237C447.589 647.005 447.375 646.757 447.216 646.491L448.15 645.835C448.256 645.974 448.391 646.134 448.553 646.312C448.715 646.495 448.938 646.652 449.219 646.785C449.504 646.921 449.877 646.989 450.338 646.989C450.954 646.989 451.463 646.839 451.864 646.541C452.265 646.243 452.466 645.776 452.466 645.139V643.588H452.366C452.28 643.727 452.157 643.9 451.998 644.105C451.843 644.307 451.617 644.488 451.322 644.647C451.031 644.803 450.636 644.881 450.139 644.881C449.523 644.881 448.969 644.735 448.479 644.443C447.991 644.152 447.605 643.727 447.32 643.17C447.038 642.614 446.898 641.937 446.898 641.142C446.898 640.36 447.035 639.679 447.31 639.099C447.585 638.515 447.968 638.065 448.459 637.746C448.949 637.425 449.516 637.264 450.159 637.264C450.656 637.264 451.05 637.347 451.342 637.513C451.637 637.675 451.863 637.861 452.018 638.07C452.177 638.275 452.3 638.444 452.386 638.577H452.506V637.364H453.639V645.219C453.639 645.875 453.49 646.409 453.192 646.82C452.897 647.234 452.499 647.537 451.998 647.729C451.501 647.925 450.948 648.023 450.338 648.023ZM450.298 643.827C450.769 643.827 451.166 643.719 451.491 643.504C451.816 643.288 452.063 642.978 452.232 642.574C452.401 642.17 452.486 641.686 452.486 641.122C452.486 640.572 452.403 640.086 452.237 639.665C452.071 639.245 451.826 638.915 451.501 638.676C451.176 638.437 450.775 638.318 450.298 638.318C449.801 638.318 449.387 638.444 449.055 638.696C448.727 638.948 448.48 639.286 448.314 639.71C448.152 640.134 448.071 640.605 448.071 641.122C448.071 641.652 448.154 642.121 448.319 642.529C448.488 642.933 448.737 643.252 449.065 643.484C449.397 643.712 449.808 643.827 450.298 643.827ZM456.542 647.864C456.344 647.864 456.166 647.847 456.01 647.814C455.855 647.784 455.747 647.754 455.687 647.724L455.986 646.69C456.271 646.763 456.523 646.79 456.741 646.77C456.96 646.75 457.154 646.652 457.323 646.477C457.495 646.304 457.653 646.024 457.795 645.636L458.014 645.04L455.19 637.364H456.463L458.571 643.449H458.65L460.758 637.364H462.031L458.79 646.114C458.644 646.508 458.463 646.835 458.248 647.093C458.032 647.355 457.782 647.549 457.497 647.675C457.215 647.801 456.897 647.864 456.542 647.864Z" fill="#212121"/>
<defs>
<filter id="filter0_f_537_663" x="-365.564" y="-62.3637" width="1551.51" height="807.108" filterUnits="userSpaceOnUse" color-interpolation-filters="sRGB">
<feFlood flood-opacity="0" result="BackgroundImageFix"/>
<feBlend mode="normal" in="SourceGraphic" in2="BackgroundImageFix" result="shape"/>
<feGaussianBlur stdDeviation="38.2117" result="effect1_foregroundBlur_537_663"/>
</filter>
<filter id="filter1_f_537_663" x="-297.632" y="5.56809" width="1415.64" height="671.245" filterUnits="userSpaceOnUse" color-interpolation-filters="sRGB">
<feFlood flood-opacity="0" result="BackgroundImageFix"/>
<feBlend mode="normal" in="SourceGraphic" in2="BackgroundImageFix" result="shape"/>
<feGaussianBlur stdDeviation="4.24574" result="effect1_foregroundBlur_537_663"/>
</filter>
<radialGradient id="paint0_radial_537_663" cx="0" cy="0" r="1" gradientUnits="userSpaceOnUse" gradientTransform="translate(389.562 232.808) rotate(109.242) scale(622.001 596.526)">
<stop offset="0.0479167" stop-color="#2D68FF"/>
<stop offset="0.846416" stop-color="#47DEFF" stop-opacity="0"/>
</radialGradient>
<radialGradient id="paint1_radial_537_663" cx="0" cy="0" r="1" gradientUnits="userSpaceOnUse" gradientTransform="translate(471.416 -1.69185) rotate(109.242) scale(870.376 834.73)">
<stop offset="0.0479167" stop-color="#714DFF"/>
<stop offset="0.504878" stop-color="#9380FF" stop-opacity="0"/>
</radialGradient>
<linearGradient id="paint2_linear_537_663" x1="400.08" y1="255.585" x2="690.653" y2="329.114" gradientUnits="userSpaceOnUse">
<stop stop-color="#4C49ED"/>
<stop offset="1" stop-color="#0096FF"/>
</linearGradient>
</defs>
</svg>
