<svg width="1186" height="899" viewBox="0 0 1186 899" fill="none" xmlns="http://www.w3.org/2000/svg">
<g opacity="0.7">
<g filter="url(#filter0_f_537_663)">
<path d="M-209 639.958C-209 639.958 -59.9825 213.047 410.19 341.19C880.363 469.333 1029.38 42.4228 1029.38 42.4228" stroke="url(#paint0_radial_537_663)" stroke-width="169.83"/>
</g>
<g filter="url(#filter1_f_537_663)">
<path d="M-209 639.958C-209 639.958 -59.9825 213.047 410.19 341.19C880.363 469.333 1029.38 42.4228 1029.38 42.4228" stroke="url(#paint1_radial_537_663)" stroke-width="169.83"/>
</g>
</g>
<path d="M620.736 255.585H401.891C396.369 255.585 391.891 260.062 391.891 265.585V541.061C391.891 546.584 396.369 551.061 401.891 551.061H620.736C626.259 551.061 630.736 546.584 630.736 541.061V265.585C630.736 260.062 626.259 255.585 620.736 255.585Z" fill="url(#paint2_linear_537_663)"/>
<path d="M574.901 222.215C581.804 222.094 581.925 231.68 588.829 231.559C595.733 231.437 595.612 221.851 602.516 221.73C609.419 221.608 609.54 231.195 616.444 231.073C623.348 230.952 623.227 221.366 630.13 221.244C637.034 221.123 637.155 230.709 644.059 230.588C650.963 230.466 650.842 220.88 657.745 220.759C664.649 220.637 664.77 230.224 671.795 230.102" stroke="black" stroke-width="1.5" stroke-miterlimit="10" stroke-linecap="round" stroke-linejoin="round"/>
<path d="M363.429 524.972C370.332 524.85 370.211 515.264 377.115 515.143C384.019 515.021 384.14 524.608 391.043 524.486C397.947 524.365 397.826 514.779 404.73 514.657C411.634 514.536 411.755 524.122 418.658 524.001C425.562 523.88 425.441 514.293 432.345 514.172" stroke="black" stroke-width="1.5" stroke-miterlimit="10" stroke-linecap="round" stroke-linejoin="round"/>
<path d="M238.798 474.249L229.472 483.714L220.025 474.249L229.351 464.784L238.798 474.249Z" stroke="black" stroke-width="1.5" stroke-miterlimit="10" stroke-linecap="round" stroke-linejoin="round"/>
<path d="M511.314 291.139L501.867 300.604L492.541 291.139L501.867 281.674L511.314 291.139Z" stroke="black" stroke-width="1.5" stroke-miterlimit="10" stroke-linecap="round" stroke-linejoin="round"/>
<path d="M547.043 620.107H655.565" stroke="black" stroke-miterlimit="10"/>
<path d="M222.689 218.453L236.134 232.044" stroke="black" stroke-width="1.5" stroke-miterlimit="10" stroke-linecap="round" stroke-linejoin="round"/>
<path d="M236.134 218.453L222.689 232.044" stroke="black" stroke-width="1.5" stroke-miterlimit="10" stroke-linecap="round" stroke-linejoin="round"/>
<path d="M648.783 261.652L662.348 275.243" stroke="black" stroke-width="1.5" stroke-miterlimit="10" stroke-linecap="round" stroke-linejoin="round"/>
<path d="M662.348 261.652L648.783 275.243" stroke="black" stroke-width="1.5" stroke-miterlimit="10" stroke-linecap="round" stroke-linejoin="round"/>
<path d="M426.047 291.139H472.798" stroke="black" stroke-width="1.5" stroke-miterlimit="10" stroke-linecap="round" stroke-linejoin="round"/>
<path d="M316.556 474.249H340.779" stroke="black" stroke-width="1.5" stroke-miterlimit="10" stroke-linecap="round" stroke-linejoin="round"/>
<path d="M333.512 610.52H240.978V620.107H333.512V610.52Z" fill="#0096FF"/>
<path d="M567.876 633.94H576.96V636.246H573.811V645.71H570.904V636.246H567.876V633.94Z" fill="black"/>
<path d="M581.199 645.71H578.292V636.367H581.199V637.944C581.804 636.974 582.894 636.245 584.106 636.245V639.279H583.379C582.047 639.279 581.199 639.764 581.199 641.342V645.71Z" fill="black"/>
<path d="M591.978 636.367H595.128L589.314 650.2H586.286L588.466 645.468L584.711 636.488H587.86L590.041 642.313L591.978 636.367Z" fill="black"/>
<path d="M606.028 640.614C606.028 639.4 605.301 638.672 604.211 638.672C603.121 638.672 602.395 639.4 602.395 640.614V645.71H599.488V636.367H602.395V637.58C603 636.852 603.969 636.245 605.18 636.245C607.36 636.245 608.814 637.702 608.814 640.25V645.71H606.028V640.614Z" fill="black"/>
<path d="M615.112 645.832C612.326 645.832 610.267 644.012 610.267 640.978C610.267 637.944 612.447 636.124 615.112 636.124C617.898 636.124 619.957 637.944 619.957 640.978C619.957 644.012 617.898 645.832 615.112 645.832ZM615.112 643.283C616.081 643.283 617.05 642.555 617.05 640.978C617.05 639.4 616.081 638.672 615.112 638.672C614.022 638.672 613.174 639.4 613.174 640.978C613.174 642.555 614.143 643.283 615.112 643.283Z" fill="black"/>
<path d="M620.562 636.367H623.469L624.801 643.041L626.376 636.367H629.404L630.978 643.041L632.311 636.367H634.975L632.432 645.71H629.283L627.829 639.643L626.255 645.71H623.106L620.562 636.367Z" fill="black"/>
<path d="M259.161 243V206.636H266.849V236.661H282.438V243H259.161ZM299.71 243.533C296.952 243.533 294.567 242.947 292.555 241.775C290.554 240.591 289.009 238.946 287.92 236.839C286.831 234.72 286.287 232.264 286.287 229.47C286.287 226.653 286.831 224.191 287.92 222.084C289.009 219.965 290.554 218.32 292.555 217.148C294.567 215.964 296.952 215.372 299.71 215.372C302.468 215.372 304.847 215.964 306.848 217.148C308.86 218.32 310.411 219.965 311.5 222.084C312.589 224.191 313.133 226.653 313.133 229.47C313.133 232.264 312.589 234.72 311.5 236.839C310.411 238.946 308.86 240.591 306.848 241.775C304.847 242.947 302.468 243.533 299.71 243.533ZM299.746 237.673C301 237.673 302.048 237.318 302.888 236.608C303.729 235.886 304.362 234.903 304.788 233.661C305.226 232.418 305.445 231.003 305.445 229.417C305.445 227.831 305.226 226.416 304.788 225.173C304.362 223.93 303.729 222.948 302.888 222.226C302.048 221.504 301 221.143 299.746 221.143C298.479 221.143 297.414 221.504 296.55 222.226C295.697 222.948 295.052 223.93 294.614 225.173C294.188 226.416 293.975 227.831 293.975 229.417C293.975 231.003 294.188 232.418 294.614 233.661C295.052 234.903 295.697 235.886 296.55 236.608C297.414 237.318 298.479 237.673 299.746 237.673ZM318.052 243V215.727H325.385V220.486H325.669C326.166 218.793 327.001 217.515 328.172 216.651C329.344 215.775 330.694 215.337 332.221 215.337C332.599 215.337 333.008 215.36 333.446 215.408C333.884 215.455 334.269 215.52 334.6 215.603V222.315C334.245 222.208 333.754 222.113 333.126 222.031C332.499 221.948 331.925 221.906 331.404 221.906C330.291 221.906 329.297 222.149 328.421 222.634C327.557 223.108 326.87 223.771 326.361 224.623C325.864 225.475 325.616 226.458 325.616 227.57V243H318.052ZM349.67 243.533C346.865 243.533 344.45 242.964 342.426 241.828C340.413 240.68 338.863 239.058 337.774 236.963C336.685 234.856 336.14 232.364 336.14 229.488C336.14 226.683 336.685 224.22 337.774 222.102C338.863 219.983 340.396 218.331 342.373 217.148C344.361 215.964 346.693 215.372 349.368 215.372C351.167 215.372 352.842 215.662 354.393 216.242C355.956 216.81 357.317 217.669 358.477 218.817C359.649 219.965 360.56 221.409 361.211 223.149C361.862 224.877 362.188 226.902 362.188 229.222V231.299H339.159V226.612H355.068C355.068 225.522 354.831 224.558 354.358 223.717C353.884 222.877 353.227 222.22 352.387 221.746C351.558 221.261 350.593 221.018 349.493 221.018C348.344 221.018 347.326 221.285 346.439 221.817C345.563 222.338 344.876 223.043 344.379 223.93C343.882 224.806 343.627 225.783 343.615 226.86V231.317C343.615 232.666 343.864 233.832 344.361 234.815C344.87 235.797 345.586 236.555 346.51 237.087C347.433 237.62 348.528 237.886 349.794 237.886C350.635 237.886 351.404 237.768 352.103 237.531C352.801 237.295 353.399 236.939 353.896 236.466C354.393 235.992 354.772 235.412 355.032 234.726L362.028 235.188C361.673 236.868 360.945 238.336 359.844 239.591C358.755 240.834 357.346 241.804 355.618 242.503C353.902 243.189 351.919 243.533 349.67 243.533ZM367.124 243V215.727H374.333V220.539H374.652C375.221 218.941 376.167 217.68 377.493 216.757C378.819 215.834 380.405 215.372 382.252 215.372C384.122 215.372 385.714 215.84 387.028 216.775C388.342 217.698 389.218 218.953 389.656 220.539H389.94C390.496 218.977 391.502 217.728 392.958 216.793C394.426 215.846 396.16 215.372 398.161 215.372C400.706 215.372 402.771 216.183 404.358 217.805C405.956 219.415 406.755 221.699 406.755 224.658V243H399.208V226.15C399.208 224.635 398.806 223.498 398.001 222.741C397.196 221.983 396.19 221.604 394.983 221.604C393.609 221.604 392.538 222.042 391.769 222.918C390.999 223.782 390.615 224.925 390.615 226.345V243H383.282V225.99C383.282 224.652 382.897 223.587 382.127 222.794C381.37 222.001 380.37 221.604 379.127 221.604C378.286 221.604 377.529 221.817 376.854 222.244C376.191 222.658 375.664 223.244 375.274 224.001C374.883 224.747 374.688 225.623 374.688 226.629V243H367.124ZM424.302 243V215.727H431.866V243H424.302ZM428.101 212.212C426.977 212.212 426.012 211.839 425.207 211.093C424.414 210.335 424.018 209.43 424.018 208.376C424.018 207.335 424.414 206.441 425.207 205.695C426.012 204.938 426.977 204.559 428.101 204.559C429.226 204.559 430.185 204.938 430.978 205.695C431.783 206.441 432.185 207.335 432.185 208.376C432.185 209.43 431.783 210.335 430.978 211.093C430.185 211.839 429.226 212.212 428.101 212.212ZM437.925 253.227V215.727H445.382V220.308H445.719C446.051 219.574 446.53 218.829 447.158 218.071C447.797 217.302 448.625 216.662 449.643 216.153C450.673 215.633 451.952 215.372 453.479 215.372C455.467 215.372 457.302 215.893 458.983 216.935C460.664 217.964 462.007 219.521 463.013 221.604C464.02 223.676 464.523 226.274 464.523 229.399C464.523 232.441 464.031 235.01 463.049 237.105C462.078 239.188 460.753 240.769 459.072 241.846C457.403 242.911 455.532 243.444 453.461 243.444C451.993 243.444 450.744 243.201 449.714 242.716C448.696 242.231 447.862 241.621 447.211 240.887C446.56 240.141 446.063 239.39 445.719 238.632H445.489V253.227H437.925ZM445.329 229.364C445.329 230.985 445.554 232.4 446.004 233.607C446.453 234.815 447.104 235.756 447.957 236.43C448.809 237.093 449.845 237.425 451.064 237.425C452.295 237.425 453.337 237.087 454.189 236.413C455.041 235.726 455.686 234.779 456.124 233.572C456.574 232.353 456.799 230.95 456.799 229.364C456.799 227.789 456.58 226.404 456.142 225.209C455.704 224.013 455.059 223.078 454.207 222.403C453.354 221.729 452.307 221.391 451.064 221.391C449.833 221.391 448.791 221.717 447.939 222.368C447.098 223.019 446.453 223.942 446.004 225.138C445.554 226.333 445.329 227.742 445.329 229.364ZM492.257 223.504L485.332 223.93C485.214 223.339 484.96 222.806 484.569 222.332C484.178 221.847 483.663 221.462 483.024 221.178C482.397 220.882 481.645 220.734 480.769 220.734C479.597 220.734 478.609 220.983 477.804 221.48C476.999 221.965 476.597 222.616 476.597 223.433C476.597 224.084 476.857 224.635 477.378 225.085C477.899 225.534 478.792 225.895 480.059 226.168L484.995 227.162C487.647 227.706 489.623 228.582 490.925 229.79C492.228 230.997 492.879 232.583 492.879 234.548C492.879 236.336 492.352 237.904 491.298 239.254C490.257 240.603 488.824 241.656 487.001 242.414C485.19 243.16 483.101 243.533 480.734 243.533C477.123 243.533 474.247 242.781 472.104 241.278C469.974 239.763 468.725 237.703 468.358 235.099L475.798 234.708C476.022 235.809 476.567 236.649 477.431 237.229C478.295 237.798 479.402 238.082 480.751 238.082C482.077 238.082 483.143 237.827 483.947 237.318C484.764 236.797 485.179 236.129 485.19 235.312C485.179 234.625 484.888 234.063 484.32 233.625C483.752 233.175 482.876 232.832 481.692 232.595L476.969 231.654C474.306 231.121 472.323 230.198 471.021 228.884C469.731 227.57 469.086 225.895 469.086 223.859C469.086 222.107 469.559 220.598 470.506 219.332C471.465 218.065 472.809 217.089 474.537 216.402C476.277 215.715 478.313 215.372 480.645 215.372C484.089 215.372 486.8 216.1 488.777 217.556C490.766 219.012 491.926 220.995 492.257 223.504ZM515.131 231.388V215.727H522.695V243H515.433V238.046H515.149C514.533 239.644 513.509 240.929 512.077 241.899C510.656 242.87 508.922 243.355 506.874 243.355C505.052 243.355 503.448 242.941 502.063 242.112C500.678 241.284 499.595 240.106 498.813 238.579C498.044 237.052 497.653 235.223 497.642 233.092V215.727H505.205V231.743C505.217 233.353 505.649 234.625 506.502 235.56C507.354 236.496 508.496 236.963 509.928 236.963C510.84 236.963 511.692 236.756 512.485 236.342C513.278 235.915 513.918 235.288 514.403 234.46C514.9 233.631 515.143 232.607 515.131 231.388ZM528.745 243V215.727H535.954V220.539H536.273C536.842 218.941 537.789 217.68 539.114 216.757C540.44 215.834 542.026 215.372 543.873 215.372C545.743 215.372 547.335 215.84 548.649 216.775C549.963 217.698 550.839 218.953 551.277 220.539H551.561C552.117 218.977 553.124 217.728 554.58 216.793C556.047 215.846 557.781 215.372 559.782 215.372C562.327 215.372 564.393 216.183 565.979 217.805C567.577 219.415 568.376 221.699 568.376 224.658V243H560.83V226.15C560.83 224.635 560.427 223.498 559.622 222.741C558.817 221.983 557.811 221.604 556.604 221.604C555.231 221.604 554.159 222.042 553.39 222.918C552.621 223.782 552.236 224.925 552.236 226.345V243H544.903V225.99C544.903 224.652 544.518 223.587 543.749 222.794C542.991 222.001 541.991 221.604 540.748 221.604C539.907 221.604 539.15 221.817 538.475 222.244C537.812 222.658 537.286 223.244 536.895 224.001C536.504 224.747 536.309 225.623 536.309 226.629V243H528.745ZM269.068 304.444C266.997 304.444 265.121 303.911 263.44 302.846C261.771 301.769 260.445 300.188 259.462 298.105C258.492 296.01 258.006 293.441 258.006 290.399C258.006 287.274 258.509 284.676 259.516 282.604C260.522 280.521 261.859 278.964 263.528 277.935C265.209 276.893 267.05 276.372 269.05 276.372C270.577 276.372 271.85 276.633 272.868 277.153C273.898 277.662 274.726 278.302 275.354 279.071C275.993 279.829 276.478 280.574 276.81 281.308H277.04V267.636H284.587V304H277.129V299.632H276.81C276.455 300.39 275.951 301.141 275.3 301.887C274.661 302.621 273.827 303.231 272.797 303.716C271.779 304.201 270.536 304.444 269.068 304.444ZM271.465 298.425C272.684 298.425 273.714 298.093 274.555 297.43C275.407 296.756 276.058 295.815 276.508 294.607C276.969 293.4 277.2 291.985 277.2 290.364C277.2 288.742 276.975 287.333 276.526 286.138C276.076 284.942 275.425 284.019 274.572 283.368C273.72 282.717 272.684 282.391 271.465 282.391C270.222 282.391 269.175 282.729 268.322 283.403C267.47 284.078 266.825 285.013 266.387 286.209C265.949 287.404 265.73 288.789 265.73 290.364C265.73 291.95 265.949 293.353 266.387 294.572C266.837 295.779 267.482 296.726 268.322 297.413C269.175 298.087 270.222 298.425 271.465 298.425ZM303.128 304.533C300.37 304.533 297.985 303.947 295.972 302.775C293.972 301.591 292.427 299.946 291.338 297.839C290.249 295.72 289.705 293.264 289.705 290.47C289.705 287.653 290.249 285.191 291.338 283.084C292.427 280.965 293.972 279.32 295.972 278.148C297.985 276.964 300.37 276.372 303.128 276.372C305.886 276.372 308.265 276.964 310.266 278.148C312.278 279.32 313.829 280.965 314.918 283.084C316.007 285.191 316.551 287.653 316.551 290.47C316.551 293.264 316.007 295.72 314.918 297.839C313.829 299.946 312.278 301.591 310.266 302.775C308.265 303.947 305.886 304.533 303.128 304.533ZM303.164 298.673C304.418 298.673 305.466 298.318 306.306 297.608C307.147 296.886 307.78 295.903 308.206 294.661C308.644 293.418 308.863 292.003 308.863 290.417C308.863 288.831 308.644 287.416 308.206 286.173C307.78 284.93 307.147 283.948 306.306 283.226C305.466 282.504 304.418 282.143 303.164 282.143C301.897 282.143 300.832 282.504 299.968 283.226C299.115 283.948 298.47 284.93 298.032 286.173C297.606 287.416 297.393 288.831 297.393 290.417C297.393 292.003 297.606 293.418 298.032 294.661C298.47 295.903 299.115 296.886 299.968 297.608C300.832 298.318 301.897 298.673 303.164 298.673ZM329.034 267.636V304H321.47V267.636H329.034ZM347.415 304.533C344.657 304.533 342.272 303.947 340.26 302.775C338.259 301.591 336.714 299.946 335.625 297.839C334.536 295.72 333.992 293.264 333.992 290.47C333.992 287.653 334.536 285.191 335.625 283.084C336.714 280.965 338.259 279.32 340.26 278.148C342.272 276.964 344.657 276.372 347.415 276.372C350.173 276.372 352.552 276.964 354.553 278.148C356.565 279.32 358.116 280.965 359.205 283.084C360.294 285.191 360.838 287.653 360.838 290.47C360.838 293.264 360.294 295.72 359.205 297.839C358.116 299.946 356.565 301.591 354.553 302.775C352.552 303.947 350.173 304.533 347.415 304.533ZM347.451 298.673C348.705 298.673 349.753 298.318 350.593 297.608C351.434 296.886 352.067 295.903 352.493 294.661C352.931 293.418 353.15 292.003 353.15 290.417C353.15 288.831 352.931 287.416 352.493 286.173C352.067 284.93 351.434 283.948 350.593 283.226C349.753 282.504 348.705 282.143 347.451 282.143C346.184 282.143 345.119 282.504 344.255 283.226C343.402 283.948 342.757 284.93 342.319 286.173C341.893 287.416 341.68 288.831 341.68 290.417C341.68 292.003 341.893 293.418 342.319 294.661C342.757 295.903 343.402 296.886 344.255 297.608C345.119 298.318 346.184 298.673 347.451 298.673ZM365.757 304V276.727H373.09V281.486H373.374C373.871 279.793 374.706 278.515 375.877 277.651C377.049 276.775 378.399 276.337 379.926 276.337C380.305 276.337 380.713 276.36 381.151 276.408C381.589 276.455 381.974 276.52 382.305 276.603V283.315C381.95 283.208 381.459 283.113 380.831 283.031C380.204 282.948 379.63 282.906 379.109 282.906C377.996 282.906 377.002 283.149 376.126 283.634C375.262 284.108 374.575 284.771 374.066 285.623C373.569 286.475 373.321 287.458 373.321 288.57V304H365.757ZM420.48 284.504L413.555 284.93C413.437 284.339 413.182 283.806 412.792 283.332C412.401 282.847 411.886 282.462 411.247 282.178C410.619 281.882 409.868 281.734 408.992 281.734C407.82 281.734 406.832 281.983 406.027 282.48C405.222 282.965 404.819 283.616 404.819 284.433C404.819 285.084 405.08 285.635 405.6 286.085C406.121 286.534 407.015 286.895 408.282 287.168L413.218 288.162C415.869 288.706 417.846 289.582 419.148 290.79C420.45 291.997 421.101 293.583 421.101 295.548C421.101 297.336 420.574 298.904 419.521 300.254C418.479 301.603 417.047 302.656 415.224 303.414C413.413 304.16 411.324 304.533 408.956 304.533C405.346 304.533 402.47 303.781 400.327 302.278C398.196 300.763 396.948 298.703 396.581 296.099L404.02 295.708C404.245 296.809 404.79 297.649 405.654 298.229C406.518 298.798 407.625 299.082 408.974 299.082C410.3 299.082 411.365 298.827 412.17 298.318C412.987 297.797 413.401 297.129 413.413 296.312C413.401 295.625 413.111 295.063 412.543 294.625C411.975 294.175 411.099 293.832 409.915 293.595L405.192 292.654C402.529 292.121 400.546 291.198 399.244 289.884C397.954 288.57 397.309 286.895 397.309 284.859C397.309 283.107 397.782 281.598 398.729 280.332C399.688 279.065 401.031 278.089 402.76 277.402C404.5 276.715 406.536 276.372 408.868 276.372C412.312 276.372 415.023 277.1 417 278.556C418.988 280.012 420.148 281.995 420.48 284.504ZM425.864 304V276.727H433.428V304H425.864ZM429.664 273.212C428.539 273.212 427.575 272.839 426.77 272.093C425.977 271.335 425.58 270.43 425.58 269.376C425.58 268.335 425.977 267.441 426.77 266.695C427.575 265.938 428.539 265.559 429.664 265.559C430.788 265.559 431.747 265.938 432.54 266.695C433.345 267.441 433.748 268.335 433.748 269.376C433.748 270.43 433.345 271.335 432.54 272.093C431.747 272.839 430.788 273.212 429.664 273.212ZM453.994 276.727V282.409H437.57V276.727H453.994ZM441.298 270.193H448.862V295.619C448.862 296.318 448.969 296.862 449.182 297.253C449.395 297.632 449.691 297.898 450.07 298.052C450.46 298.206 450.91 298.283 451.419 298.283C451.774 298.283 452.129 298.253 452.484 298.194C452.839 298.123 453.112 298.07 453.301 298.034L454.491 303.663C454.112 303.781 453.579 303.917 452.893 304.071C452.206 304.237 451.372 304.337 450.389 304.373C448.566 304.444 446.968 304.201 445.595 303.645C444.234 303.089 443.174 302.224 442.417 301.053C441.659 299.881 441.286 298.401 441.298 296.614V270.193ZM266.795 365.515C265.055 365.515 263.505 365.213 262.143 364.609C260.782 363.994 259.705 363.088 258.912 361.893C258.131 360.685 257.74 359.182 257.74 357.383C257.74 355.868 258.018 354.595 258.575 353.565C259.131 352.536 259.888 351.707 260.847 351.08C261.806 350.452 262.895 349.979 264.114 349.659C265.345 349.339 266.636 349.115 267.985 348.984C269.571 348.819 270.85 348.665 271.82 348.523C272.791 348.369 273.495 348.144 273.933 347.848C274.371 347.552 274.59 347.114 274.59 346.534V346.428C274.59 345.303 274.235 344.433 273.525 343.817C272.826 343.202 271.832 342.894 270.542 342.894C269.181 342.894 268.098 343.196 267.293 343.8C266.488 344.392 265.955 345.137 265.695 346.037L258.699 345.469C259.054 343.812 259.752 342.379 260.794 341.172C261.836 339.953 263.179 339.018 264.825 338.366C266.482 337.704 268.399 337.372 270.577 337.372C272.093 337.372 273.543 337.55 274.928 337.905C276.324 338.26 277.561 338.81 278.638 339.556C279.728 340.302 280.586 341.261 281.213 342.433C281.84 343.593 282.154 344.983 282.154 346.605V365H274.981V361.218H274.768C274.33 362.07 273.744 362.822 273.01 363.473C272.276 364.112 271.394 364.615 270.364 364.982C269.335 365.337 268.145 365.515 266.795 365.515ZM268.962 360.295C270.074 360.295 271.057 360.076 271.909 359.638C272.761 359.188 273.43 358.584 273.915 357.827C274.401 357.069 274.643 356.211 274.643 355.252V352.358C274.407 352.512 274.081 352.654 273.667 352.784C273.264 352.902 272.809 353.015 272.3 353.121C271.791 353.216 271.282 353.305 270.773 353.388C270.264 353.459 269.802 353.524 269.388 353.583C268.5 353.713 267.725 353.92 267.062 354.205C266.399 354.489 265.884 354.873 265.517 355.359C265.15 355.832 264.967 356.424 264.967 357.134C264.967 358.164 265.339 358.951 266.085 359.496C266.843 360.028 267.802 360.295 268.962 360.295ZM288.022 365V337.727H295.231V342.539H295.551C296.119 340.941 297.066 339.68 298.392 338.757C299.717 337.834 301.304 337.372 303.15 337.372C305.02 337.372 306.613 337.84 307.926 338.775C309.24 339.698 310.116 340.953 310.554 342.539H310.838C311.395 340.977 312.401 339.728 313.857 338.793C315.325 337.846 317.059 337.372 319.059 337.372C321.604 337.372 323.67 338.183 325.256 339.805C326.854 341.415 327.653 343.699 327.653 346.658V365H320.107V348.15C320.107 346.635 319.704 345.498 318.9 344.741C318.095 343.983 317.088 343.604 315.881 343.604C314.508 343.604 313.437 344.042 312.667 344.918C311.898 345.782 311.513 346.925 311.513 348.345V365H304.18V347.99C304.18 346.652 303.795 345.587 303.026 344.794C302.268 344.001 301.268 343.604 300.025 343.604C299.185 343.604 298.427 343.817 297.752 344.244C297.09 344.658 296.563 345.244 296.172 346.001C295.782 346.747 295.586 347.623 295.586 348.629V365H288.022ZM346.057 365.533C343.251 365.533 340.837 364.964 338.812 363.828C336.8 362.68 335.25 361.058 334.161 358.963C333.071 356.856 332.527 354.364 332.527 351.488C332.527 348.683 333.071 346.22 334.161 344.102C335.25 341.983 336.782 340.331 338.759 339.148C340.748 337.964 343.08 337.372 345.755 337.372C347.554 337.372 349.229 337.662 350.78 338.242C352.342 338.81 353.704 339.669 354.864 340.817C356.036 341.965 356.947 343.409 357.598 345.149C358.249 346.877 358.575 348.902 358.575 351.222V353.299H335.545V348.612H351.455C351.455 347.522 351.218 346.558 350.744 345.717C350.271 344.877 349.614 344.22 348.773 343.746C347.945 343.261 346.98 343.018 345.879 343.018C344.731 343.018 343.713 343.285 342.825 343.817C341.949 344.338 341.263 345.043 340.766 345.93C340.268 346.806 340.014 347.783 340.002 348.86V353.317C340.002 354.666 340.251 355.832 340.748 356.815C341.257 357.797 341.973 358.555 342.896 359.087C343.82 359.62 344.915 359.886 346.181 359.886C347.022 359.886 347.791 359.768 348.489 359.531C349.188 359.295 349.786 358.939 350.283 358.466C350.78 357.992 351.159 357.412 351.419 356.726L358.415 357.188C358.06 358.868 357.332 360.336 356.231 361.591C355.142 362.834 353.733 363.804 352.005 364.503C350.289 365.189 348.306 365.533 346.057 365.533ZM378.017 337.727V343.409H361.593V337.727H378.017ZM365.322 331.193H372.886V356.619C372.886 357.318 372.992 357.862 373.205 358.253C373.418 358.632 373.714 358.898 374.093 359.052C374.484 359.206 374.933 359.283 375.442 359.283C375.798 359.283 376.153 359.253 376.508 359.194C376.863 359.123 377.135 359.07 377.325 359.034L378.514 364.663C378.135 364.781 377.603 364.917 376.916 365.071C376.23 365.237 375.395 365.337 374.413 365.373C372.59 365.444 370.992 365.201 369.619 364.645C368.257 364.089 367.198 363.224 366.44 362.053C365.683 360.881 365.31 359.401 365.322 357.614V331.193ZM271.341 426.533C268.547 426.533 266.144 425.941 264.132 424.757C262.132 423.562 260.593 421.904 259.516 419.786C258.45 417.667 257.918 415.228 257.918 412.47C257.918 409.677 258.456 407.226 259.533 405.119C260.622 403 262.167 401.349 264.168 400.165C266.168 398.97 268.547 398.372 271.305 398.372C273.685 398.372 275.768 398.804 277.555 399.668C279.343 400.532 280.757 401.746 281.799 403.308C282.841 404.871 283.415 406.705 283.521 408.812H276.384C276.182 407.451 275.65 406.356 274.786 405.528C273.933 404.687 272.815 404.267 271.43 404.267C270.258 404.267 269.234 404.587 268.358 405.226C267.494 405.853 266.819 406.771 266.334 407.978C265.848 409.185 265.606 410.647 265.606 412.364C265.606 414.104 265.843 415.583 266.316 416.803C266.801 418.022 267.482 418.951 268.358 419.59C269.234 420.229 270.258 420.549 271.43 420.549C272.294 420.549 273.069 420.371 273.756 420.016C274.454 419.661 275.028 419.146 275.478 418.472C275.94 417.785 276.241 416.962 276.384 416.004H283.521C283.403 418.087 282.835 419.922 281.817 421.508C280.811 423.082 279.42 424.313 277.644 425.201C275.869 426.089 273.768 426.533 271.341 426.533ZM300.687 426.533C297.929 426.533 295.543 425.947 293.531 424.775C291.531 423.591 289.986 421.946 288.897 419.839C287.808 417.72 287.263 415.264 287.263 412.47C287.263 409.653 287.808 407.191 288.897 405.084C289.986 402.965 291.531 401.32 293.531 400.148C295.543 398.964 297.929 398.372 300.687 398.372C303.445 398.372 305.824 398.964 307.824 400.148C309.837 401.32 311.387 402.965 312.476 405.084C313.565 407.191 314.11 409.653 314.11 412.47C314.11 415.264 313.565 417.72 312.476 419.839C311.387 421.946 309.837 423.591 307.824 424.775C305.824 425.947 303.445 426.533 300.687 426.533ZM300.722 420.673C301.977 420.673 303.024 420.318 303.865 419.608C304.705 418.886 305.339 417.903 305.765 416.661C306.203 415.418 306.422 414.003 306.422 412.417C306.422 410.831 306.203 409.416 305.765 408.173C305.339 406.93 304.705 405.948 303.865 405.226C303.024 404.504 301.977 404.143 300.722 404.143C299.456 404.143 298.39 404.504 297.526 405.226C296.674 405.948 296.029 406.93 295.591 408.173C295.165 409.416 294.952 410.831 294.952 412.417C294.952 414.003 295.165 415.418 295.591 416.661C296.029 417.903 296.674 418.886 297.526 419.608C298.39 420.318 299.456 420.673 300.722 420.673ZM326.592 410.233V426H319.028V398.727H326.237V403.539H326.557C327.16 401.953 328.172 400.698 329.593 399.775C331.013 398.84 332.736 398.372 334.76 398.372C336.654 398.372 338.305 398.786 339.714 399.615C341.122 400.444 342.217 401.627 342.998 403.166C343.78 404.693 344.17 406.516 344.17 408.635V426H336.606V409.984C336.618 408.315 336.192 407.013 335.328 406.078C334.464 405.131 333.274 404.658 331.759 404.658C330.741 404.658 329.841 404.877 329.06 405.315C328.291 405.753 327.687 406.392 327.249 407.232C326.823 408.061 326.604 409.061 326.592 410.233ZM372.824 406.504L365.899 406.93C365.78 406.339 365.526 405.806 365.135 405.332C364.745 404.847 364.23 404.462 363.591 404.178C362.963 403.882 362.212 403.734 361.336 403.734C360.164 403.734 359.175 403.983 358.37 404.48C357.565 404.965 357.163 405.616 357.163 406.433C357.163 407.084 357.423 407.635 357.944 408.085C358.465 408.534 359.359 408.895 360.625 409.168L365.561 410.162C368.213 410.706 370.19 411.582 371.492 412.79C372.794 413.997 373.445 415.583 373.445 417.548C373.445 419.336 372.918 420.904 371.865 422.254C370.823 423.603 369.391 424.656 367.568 425.414C365.757 426.16 363.667 426.533 361.3 426.533C357.69 426.533 354.813 425.781 352.671 424.278C350.54 422.763 349.291 420.703 348.924 418.099L356.364 417.708C356.589 418.809 357.133 419.649 357.998 420.229C358.862 420.798 359.968 421.082 361.318 421.082C362.644 421.082 363.709 420.827 364.514 420.318C365.331 419.797 365.745 419.129 365.757 418.312C365.745 417.625 365.455 417.063 364.887 416.625C364.319 416.175 363.443 415.832 362.259 415.595L357.536 414.654C354.873 414.121 352.89 413.198 351.588 411.884C350.297 410.57 349.652 408.895 349.652 406.859C349.652 405.107 350.126 403.598 351.073 402.332C352.032 401.065 353.375 400.089 355.103 399.402C356.843 398.715 358.879 398.372 361.211 398.372C364.656 398.372 367.367 399.1 369.343 400.556C371.332 402.012 372.492 403.995 372.824 406.504ZM390.637 426.533C387.831 426.533 385.417 425.964 383.393 424.828C381.38 423.68 379.83 422.058 378.741 419.963C377.652 417.856 377.107 415.364 377.107 412.488C377.107 409.683 377.652 407.22 378.741 405.102C379.83 402.983 381.363 401.331 383.339 400.148C385.328 398.964 387.66 398.372 390.335 398.372C392.134 398.372 393.809 398.662 395.36 399.242C396.922 399.81 398.284 400.669 399.444 401.817C400.616 402.965 401.527 404.409 402.178 406.149C402.829 407.877 403.155 409.902 403.155 412.222V414.299H380.126V409.612H396.035C396.035 408.522 395.798 407.558 395.324 406.717C394.851 405.877 394.194 405.22 393.354 404.746C392.525 404.261 391.56 404.018 390.459 404.018C389.311 404.018 388.293 404.285 387.405 404.817C386.529 405.338 385.843 406.043 385.346 406.93C384.849 407.806 384.594 408.783 384.582 409.86V414.317C384.582 415.666 384.831 416.832 385.328 417.815C385.837 418.797 386.553 419.555 387.476 420.087C388.4 420.62 389.495 420.886 390.761 420.886C391.602 420.886 392.371 420.768 393.069 420.531C393.768 420.295 394.366 419.939 394.863 419.466C395.36 418.992 395.739 418.412 395.999 417.726L402.995 418.188C402.64 419.868 401.912 421.336 400.811 422.591C399.722 423.834 398.313 424.804 396.585 425.503C394.869 426.189 392.886 426.533 390.637 426.533ZM420.413 426.533C417.62 426.533 415.217 425.941 413.204 424.757C411.204 423.562 409.665 421.904 408.588 419.786C407.523 417.667 406.99 415.228 406.99 412.47C406.99 409.677 407.528 407.226 408.606 405.119C409.695 403 411.239 401.349 413.24 400.165C415.24 398.97 417.62 398.372 420.378 398.372C422.757 398.372 424.84 398.804 426.628 399.668C428.415 400.532 429.83 401.746 430.871 403.308C431.913 404.871 432.487 406.705 432.594 408.812H425.456C425.255 407.451 424.722 406.356 423.858 405.528C423.006 404.687 421.887 404.267 420.502 404.267C419.33 404.267 418.306 404.587 417.43 405.226C416.566 405.853 415.891 406.771 415.406 407.978C414.921 409.185 414.678 410.647 414.678 412.364C414.678 414.104 414.915 415.583 415.388 416.803C415.874 418.022 416.554 418.951 417.43 419.59C418.306 420.229 419.33 420.549 420.502 420.549C421.366 420.549 422.141 420.371 422.828 420.016C423.526 419.661 424.1 419.146 424.55 418.472C425.012 417.785 425.314 416.962 425.456 416.004H432.594C432.475 418.087 431.907 419.922 430.889 421.508C429.883 423.082 428.492 424.313 426.716 425.201C424.941 426.089 422.84 426.533 420.413 426.533ZM451.943 398.727V404.409H435.519V398.727H451.943ZM439.248 392.193H446.811V417.619C446.811 418.318 446.918 418.862 447.131 419.253C447.344 419.632 447.64 419.898 448.019 420.052C448.409 420.206 448.859 420.283 449.368 420.283C449.723 420.283 450.078 420.253 450.434 420.194C450.789 420.123 451.061 420.07 451.25 420.034L452.44 425.663C452.061 425.781 451.529 425.917 450.842 426.071C450.155 426.237 449.321 426.337 448.338 426.373C446.516 426.444 444.917 426.201 443.544 425.645C442.183 425.089 441.124 424.224 440.366 423.053C439.609 421.881 439.236 420.401 439.248 418.614V392.193ZM469.006 426.533C466.201 426.533 463.786 425.964 461.762 424.828C459.749 423.68 458.199 422.058 457.11 419.963C456.021 417.856 455.476 415.364 455.476 412.488C455.476 409.683 456.021 407.22 457.11 405.102C458.199 402.983 459.732 401.331 461.708 400.148C463.697 398.964 466.029 398.372 468.704 398.372C470.503 398.372 472.178 398.662 473.729 399.242C475.292 399.81 476.653 400.669 477.813 401.817C478.985 402.965 479.896 404.409 480.547 406.149C481.198 407.877 481.524 409.902 481.524 412.222V414.299H458.495V409.612H474.404C474.404 408.522 474.167 407.558 473.694 406.717C473.22 405.877 472.563 405.22 471.723 404.746C470.894 404.261 469.929 404.018 468.828 404.018C467.68 404.018 466.662 404.285 465.775 404.817C464.899 405.338 464.212 406.043 463.715 406.93C463.218 407.806 462.963 408.783 462.951 409.86V414.317C462.951 415.666 463.2 416.832 463.697 417.815C464.206 418.797 464.922 419.555 465.846 420.087C466.769 420.62 467.864 420.886 469.13 420.886C469.971 420.886 470.74 420.768 471.439 420.531C472.137 420.295 472.735 419.939 473.232 419.466C473.729 418.992 474.108 418.412 474.368 417.726L481.364 418.188C481.009 419.868 480.281 421.336 479.18 422.591C478.091 423.834 476.682 424.804 474.954 425.503C473.238 426.189 471.255 426.533 469.006 426.533ZM500.966 398.727V404.409H484.542V398.727H500.966ZM488.271 392.193H495.835V417.619C495.835 418.318 495.941 418.862 496.154 419.253C496.368 419.632 496.663 419.898 497.042 420.052C497.433 420.206 497.883 420.283 498.392 420.283C498.747 420.283 499.102 420.253 499.457 420.194C499.812 420.123 500.084 420.07 500.274 420.034L501.463 425.663C501.085 425.781 500.552 425.917 499.865 426.071C499.179 426.237 498.344 426.337 497.362 426.373C495.539 426.444 493.941 426.201 492.568 425.645C491.207 425.089 490.147 424.224 489.39 423.053C488.632 421.881 488.259 420.401 488.271 418.614V392.193ZM523.383 414.388V398.727H530.947V426H523.685V421.046H523.401C522.785 422.644 521.761 423.929 520.329 424.899C518.908 425.87 517.174 426.355 515.126 426.355C513.304 426.355 511.7 425.941 510.315 425.112C508.93 424.284 507.847 423.106 507.065 421.579C506.296 420.052 505.905 418.223 505.893 416.092V398.727H513.457V414.743C513.469 416.353 513.901 417.625 514.754 418.56C515.606 419.496 516.748 419.963 518.18 419.963C519.092 419.963 519.944 419.756 520.737 419.342C521.53 418.915 522.17 418.288 522.655 417.46C523.152 416.631 523.395 415.607 523.383 414.388ZM536.997 426V398.727H544.33V403.486H544.614C545.111 401.793 545.946 400.515 547.118 399.651C548.29 398.775 549.639 398.337 551.166 398.337C551.545 398.337 551.953 398.36 552.391 398.408C552.829 398.455 553.214 398.52 553.545 398.603V405.315C553.19 405.208 552.699 405.113 552.072 405.031C551.444 404.948 550.87 404.906 550.349 404.906C549.237 404.906 548.242 405.149 547.366 405.634C546.502 406.108 545.816 406.771 545.307 407.623C544.809 408.475 544.561 409.458 544.561 410.57V426H536.997ZM558.752 426.462C557.58 426.462 556.574 426.047 555.734 425.219C554.905 424.378 554.491 423.372 554.491 422.2C554.491 421.04 554.905 420.046 555.734 419.217C556.574 418.389 557.58 417.974 558.752 417.974C559.888 417.974 560.883 418.389 561.735 419.217C562.587 420.046 563.013 421.04 563.013 422.2C563.013 422.982 562.812 423.698 562.41 424.349C562.019 424.988 561.504 425.503 560.865 425.893C560.226 426.272 559.522 426.462 558.752 426.462Z" fill="#212121"/>
<path d="M461.438 515V501.909H463.413V513.3H469.345V515H461.438ZM475.581 515.198C474.66 515.198 473.857 514.987 473.171 514.565C472.485 514.143 471.952 513.553 471.573 512.795C471.194 512.036 471.004 511.15 471.004 510.136C471.004 509.117 471.194 508.227 471.573 507.464C471.952 506.701 472.485 506.109 473.171 505.687C473.857 505.265 474.66 505.054 475.581 505.054C476.501 505.054 477.304 505.265 477.99 505.687C478.676 506.109 479.209 506.701 479.588 507.464C479.968 508.227 480.157 509.117 480.157 510.136C480.157 511.15 479.968 512.036 479.588 512.795C479.209 513.553 478.676 514.143 477.99 514.565C477.304 514.987 476.501 515.198 475.581 515.198ZM475.587 513.594C476.184 513.594 476.678 513.436 477.07 513.121C477.462 512.805 477.752 512.386 477.939 511.862C478.131 511.337 478.227 510.76 478.227 510.129C478.227 509.503 478.131 508.928 477.939 508.403C477.752 507.875 477.462 507.451 477.07 507.131C476.678 506.812 476.184 506.652 475.587 506.652C474.986 506.652 474.488 506.812 474.091 507.131C473.699 507.451 473.407 507.875 473.216 508.403C473.028 508.928 472.934 509.503 472.934 510.129C472.934 510.76 473.028 511.337 473.216 511.862C473.407 512.386 473.699 512.805 474.091 513.121C474.488 513.436 474.986 513.594 475.587 513.594ZM482.291 515V505.182H484.138V506.741H484.24C484.419 506.213 484.735 505.798 485.186 505.495C485.642 505.188 486.158 505.035 486.733 505.035C486.852 505.035 486.993 505.039 487.155 505.048C487.321 505.056 487.451 505.067 487.545 505.08V506.908C487.468 506.886 487.332 506.863 487.136 506.837C486.94 506.808 486.744 506.793 486.548 506.793C486.096 506.793 485.693 506.888 485.34 507.08C484.99 507.268 484.713 507.53 484.509 507.866C484.304 508.199 484.202 508.578 484.202 509.004V515H482.291ZM493.079 515.198C492.112 515.198 491.278 514.991 490.58 514.578C489.885 514.161 489.348 513.575 488.969 512.82C488.594 512.062 488.406 511.173 488.406 510.155C488.406 509.149 488.594 508.263 488.969 507.496C489.348 506.729 489.876 506.13 490.554 505.7C491.236 505.269 492.033 505.054 492.945 505.054C493.499 505.054 494.036 505.146 494.555 505.329C495.075 505.512 495.542 505.8 495.955 506.192C496.369 506.584 496.695 507.093 496.933 507.719C497.172 508.342 497.291 509.098 497.291 509.989V510.666H489.487V509.234H495.418C495.418 508.732 495.316 508.286 495.112 507.898C494.907 507.506 494.619 507.197 494.249 506.972C493.882 506.746 493.452 506.633 492.957 506.633C492.42 506.633 491.952 506.765 491.551 507.029C491.155 507.289 490.848 507.63 490.631 508.052C490.418 508.469 490.311 508.923 490.311 509.413V510.532C490.311 511.188 490.426 511.746 490.656 512.207C490.891 512.667 491.217 513.018 491.634 513.261C492.052 513.5 492.54 513.619 493.098 513.619C493.46 513.619 493.79 513.568 494.089 513.466C494.387 513.359 494.645 513.202 494.862 512.993C495.08 512.784 495.246 512.526 495.361 512.219L497.17 512.545C497.025 513.078 496.765 513.545 496.39 513.945C496.019 514.342 495.553 514.651 494.99 514.872C494.432 515.089 493.795 515.198 493.079 515.198ZM499.412 515V505.182H501.246V506.78H501.368C501.572 506.239 501.907 505.817 502.371 505.514C502.836 505.207 503.392 505.054 504.04 505.054C504.696 505.054 505.246 505.207 505.689 505.514C506.136 505.821 506.466 506.243 506.68 506.78H506.782C507.016 506.256 507.389 505.838 507.9 505.527C508.412 505.212 509.021 505.054 509.729 505.054C510.619 505.054 511.346 505.333 511.908 505.891C512.475 506.45 512.758 507.291 512.758 508.416V515H510.847V508.595C510.847 507.93 510.666 507.449 510.304 507.151C509.942 506.852 509.509 506.703 509.006 506.703C508.384 506.703 507.9 506.895 507.555 507.278C507.21 507.658 507.037 508.146 507.037 508.742V515H505.133V508.474C505.133 507.941 504.966 507.513 504.634 507.189C504.302 506.865 503.869 506.703 503.336 506.703C502.974 506.703 502.64 506.799 502.333 506.991C502.03 507.178 501.785 507.44 501.598 507.777C501.415 508.114 501.323 508.504 501.323 508.947V515H499.412ZM520.084 515V505.182H521.995V515H520.084ZM521.049 503.667C520.716 503.667 520.431 503.556 520.192 503.335C519.958 503.109 519.841 502.84 519.841 502.529C519.841 502.214 519.958 501.945 520.192 501.724C520.431 501.498 520.716 501.385 521.049 501.385C521.381 501.385 521.665 501.498 521.899 501.724C522.138 501.945 522.257 502.214 522.257 502.529C522.257 502.84 522.138 503.109 521.899 503.335C521.665 503.556 521.381 503.667 521.049 503.667ZM524.566 518.682V505.182H526.433V506.773H526.592C526.703 506.569 526.863 506.332 527.072 506.064C527.281 505.795 527.57 505.561 527.941 505.361C528.312 505.156 528.802 505.054 529.411 505.054C530.204 505.054 530.911 505.254 531.533 505.655C532.156 506.055 532.643 506.633 532.997 507.387C533.355 508.141 533.534 509.049 533.534 510.11C533.534 511.171 533.357 512.081 533.004 512.839C532.65 513.594 532.164 514.175 531.546 514.585C530.928 514.989 530.223 515.192 529.43 515.192C528.834 515.192 528.346 515.092 527.967 514.891C527.592 514.691 527.298 514.457 527.085 514.188C526.871 513.92 526.707 513.681 526.592 513.472H526.477V518.682H524.566ZM526.439 510.091C526.439 510.781 526.539 511.386 526.739 511.906C526.94 512.426 527.229 512.833 527.609 513.127C527.988 513.417 528.452 513.562 529.002 513.562C529.573 513.562 530.05 513.411 530.434 513.108C530.817 512.801 531.107 512.386 531.303 511.862C531.504 511.337 531.604 510.747 531.604 510.091C531.604 509.443 531.506 508.862 531.31 508.346C531.118 507.83 530.828 507.423 530.44 507.125C530.057 506.827 529.577 506.678 529.002 506.678C528.448 506.678 527.979 506.82 527.596 507.106C527.217 507.391 526.929 507.79 526.733 508.301C526.537 508.812 526.439 509.409 526.439 510.091ZM543.033 507.579L541.3 507.886C541.228 507.664 541.113 507.453 540.955 507.253C540.802 507.053 540.593 506.888 540.329 506.761C540.065 506.633 539.734 506.569 539.338 506.569C538.797 506.569 538.345 506.69 537.983 506.933C537.621 507.172 537.44 507.481 537.44 507.86C537.44 508.188 537.561 508.452 537.804 508.653C538.047 508.853 538.439 509.017 538.98 509.145L540.54 509.503C541.443 509.712 542.116 510.033 542.56 510.468C543.003 510.903 543.224 511.467 543.224 512.162C543.224 512.75 543.054 513.274 542.713 513.734C542.376 514.19 541.906 514.548 541.3 514.808C540.7 515.068 540.003 515.198 539.21 515.198C538.111 515.198 537.214 514.964 536.519 514.495C535.825 514.022 535.398 513.351 535.241 512.482L537.088 512.2C537.203 512.682 537.44 513.046 537.798 513.293C538.156 513.536 538.622 513.658 539.197 513.658C539.824 513.658 540.325 513.528 540.7 513.268C541.075 513.004 541.262 512.682 541.262 512.303C541.262 511.996 541.147 511.738 540.917 511.529C540.691 511.32 540.344 511.163 539.875 511.056L538.213 510.692C537.297 510.483 536.619 510.151 536.18 509.695C535.746 509.239 535.528 508.661 535.528 507.962C535.528 507.383 535.69 506.876 536.014 506.441C536.338 506.006 536.786 505.668 537.357 505.425C537.928 505.178 538.582 505.054 539.319 505.054C540.38 505.054 541.215 505.284 541.825 505.744C542.434 506.2 542.837 506.812 543.033 507.579ZM551.545 510.928V505.182H553.463V515H551.584V513.3H551.481C551.256 513.824 550.893 514.261 550.395 514.61C549.9 514.955 549.285 515.128 548.547 515.128C547.917 515.128 547.358 514.989 546.873 514.712C546.391 514.431 546.012 514.016 545.735 513.466C545.462 512.916 545.326 512.237 545.326 511.427V505.182H547.237V511.197C547.237 511.866 547.422 512.398 547.793 512.795C548.164 513.191 548.645 513.389 549.238 513.389C549.596 513.389 549.952 513.3 550.305 513.121C550.663 512.942 550.959 512.671 551.194 512.309C551.432 511.947 551.55 511.487 551.545 510.928ZM556.031 515V505.182H557.865V506.78H557.987C558.191 506.239 558.526 505.817 558.99 505.514C559.455 505.207 560.011 505.054 560.659 505.054C561.315 505.054 561.865 505.207 562.308 505.514C562.755 505.821 563.086 506.243 563.299 506.78H563.401C563.635 506.256 564.008 505.838 564.52 505.527C565.031 505.212 565.64 505.054 566.348 505.054C567.238 505.054 567.965 505.333 568.527 505.891C569.094 506.45 569.377 507.291 569.377 508.416V515H567.466V508.595C567.466 507.93 567.285 507.449 566.923 507.151C566.561 506.852 566.128 506.703 565.625 506.703C565.003 506.703 564.52 506.895 564.174 507.278C563.829 507.658 563.657 508.146 563.657 508.742V515H561.752V508.474C561.752 507.941 561.586 507.513 561.253 507.189C560.921 506.865 560.488 506.703 559.956 506.703C559.593 506.703 559.259 506.799 558.952 506.991C558.65 507.178 558.404 507.44 558.217 507.777C558.034 508.114 557.942 508.504 557.942 508.947V515H556.031ZM580.378 515.192C579.586 515.192 578.878 514.989 578.256 514.585C577.638 514.175 577.152 513.594 576.799 512.839C576.449 512.081 576.275 511.171 576.275 510.11C576.275 509.049 576.451 508.141 576.805 507.387C577.163 506.633 577.653 506.055 578.275 505.655C578.897 505.254 579.603 505.054 580.391 505.054C581 505.054 581.49 505.156 581.861 505.361C582.236 505.561 582.526 505.795 582.73 506.064C582.939 506.332 583.101 506.569 583.216 506.773H583.331V501.909H585.243V515H583.376V513.472H583.216C583.101 513.681 582.935 513.92 582.718 514.188C582.505 514.457 582.211 514.691 581.836 514.891C581.461 515.092 580.975 515.192 580.378 515.192ZM580.8 513.562C581.35 513.562 581.814 513.417 582.194 513.127C582.577 512.833 582.867 512.426 583.063 511.906C583.263 511.386 583.363 510.781 583.363 510.091C583.363 509.409 583.265 508.812 583.069 508.301C582.873 507.79 582.586 507.391 582.206 507.106C581.827 506.82 581.358 506.678 580.8 506.678C580.225 506.678 579.745 506.827 579.362 507.125C578.978 507.423 578.689 507.83 578.493 508.346C578.301 508.862 578.205 509.443 578.205 510.091C578.205 510.747 578.303 511.337 578.499 511.862C578.695 512.386 578.985 512.801 579.368 513.108C579.756 513.411 580.233 513.562 580.8 513.562ZM592.106 515.198C591.186 515.198 590.382 514.987 589.696 514.565C589.01 514.143 588.477 513.553 588.098 512.795C587.719 512.036 587.529 511.15 587.529 510.136C587.529 509.117 587.719 508.227 588.098 507.464C588.477 506.701 589.01 506.109 589.696 505.687C590.382 505.265 591.186 505.054 592.106 505.054C593.026 505.054 593.83 505.265 594.516 505.687C595.202 506.109 595.735 506.701 596.114 507.464C596.493 508.227 596.683 509.117 596.683 510.136C596.683 511.15 596.493 512.036 596.114 512.795C595.735 513.553 595.202 514.143 594.516 514.565C593.83 514.987 593.026 515.198 592.106 515.198ZM592.112 513.594C592.709 513.594 593.203 513.436 593.595 513.121C593.987 512.805 594.277 512.386 594.465 511.862C594.656 511.337 594.752 510.76 594.752 510.129C594.752 509.503 594.656 508.928 594.465 508.403C594.277 507.875 593.987 507.451 593.595 507.131C593.203 506.812 592.709 506.652 592.112 506.652C591.512 506.652 591.013 506.812 590.617 507.131C590.225 507.451 589.933 507.875 589.741 508.403C589.553 508.928 589.46 509.503 589.46 510.129C589.46 510.76 589.553 511.337 589.741 511.862C589.933 512.386 590.225 512.805 590.617 513.121C591.013 513.436 591.512 513.594 592.112 513.594ZM600.727 501.909V515H598.816V501.909H600.727ZM607.434 515.198C606.514 515.198 605.71 514.987 605.024 514.565C604.338 514.143 603.806 513.553 603.426 512.795C603.047 512.036 602.857 511.15 602.857 510.136C602.857 509.117 603.047 508.227 603.426 507.464C603.806 506.701 604.338 506.109 605.024 505.687C605.71 505.265 606.514 505.054 607.434 505.054C608.355 505.054 609.158 505.265 609.844 505.687C610.53 506.109 611.063 506.701 611.442 507.464C611.821 508.227 612.011 509.117 612.011 510.136C612.011 511.15 611.821 512.036 611.442 512.795C611.063 513.553 610.53 514.143 609.844 514.565C609.158 514.987 608.355 515.198 607.434 515.198ZM607.441 513.594C608.037 513.594 608.531 513.436 608.923 513.121C609.316 512.805 609.605 512.386 609.793 511.862C609.985 511.337 610.08 510.76 610.08 510.129C610.08 509.503 609.985 508.928 609.793 508.403C609.605 507.875 609.316 507.451 608.923 507.131C608.531 506.812 608.037 506.652 607.441 506.652C606.84 506.652 606.341 506.812 605.945 507.131C605.553 507.451 605.261 507.875 605.069 508.403C604.882 508.928 604.788 509.503 604.788 510.129C604.788 510.76 604.882 511.337 605.069 511.862C605.261 512.386 605.553 512.805 605.945 513.121C606.341 513.436 606.84 513.594 607.441 513.594ZM614.144 515V505.182H615.991V506.741H616.094C616.273 506.213 616.588 505.798 617.04 505.495C617.496 505.188 618.011 505.035 618.587 505.035C618.706 505.035 618.847 505.039 619.009 505.048C619.175 505.056 619.305 505.067 619.398 505.08V506.908C619.322 506.886 619.185 506.863 618.989 506.837C618.793 506.808 618.597 506.793 618.401 506.793C617.95 506.793 617.547 506.888 617.193 507.08C616.844 507.268 616.567 507.53 616.362 507.866C616.158 508.199 616.055 508.578 616.055 509.004V515H614.144ZM468.642 529.579L466.91 529.886C466.837 529.664 466.722 529.453 466.565 529.253C466.411 529.053 466.202 528.888 465.938 528.761C465.674 528.633 465.344 528.569 464.947 528.569C464.406 528.569 463.955 528.69 463.592 528.933C463.23 529.172 463.049 529.481 463.049 529.86C463.049 530.188 463.17 530.452 463.413 530.653C463.656 530.853 464.048 531.017 464.589 531.145L466.149 531.503C467.053 531.712 467.726 532.033 468.169 532.468C468.612 532.903 468.834 533.467 468.834 534.162C468.834 534.75 468.663 535.274 468.322 535.734C467.986 536.19 467.515 536.548 466.91 536.808C466.309 537.068 465.612 537.198 464.82 537.198C463.72 537.198 462.823 536.964 462.129 536.495C461.434 536.022 461.008 535.351 460.85 534.482L462.697 534.2C462.813 534.682 463.049 535.046 463.407 535.293C463.765 535.536 464.232 535.658 464.807 535.658C465.433 535.658 465.934 535.528 466.309 535.268C466.684 535.004 466.871 534.682 466.871 534.303C466.871 533.996 466.756 533.738 466.526 533.529C466.3 533.32 465.953 533.163 465.484 533.056L463.822 532.692C462.906 532.483 462.229 532.151 461.79 531.695C461.355 531.239 461.138 530.661 461.138 529.962C461.138 529.383 461.3 528.876 461.624 528.441C461.947 528.006 462.395 527.668 462.966 527.425C463.537 527.178 464.191 527.054 464.928 527.054C465.989 527.054 466.825 527.284 467.434 527.744C468.043 528.2 468.446 528.812 468.642 529.579ZM470.935 537V527.182H472.846V537H470.935ZM471.9 525.667C471.568 525.667 471.282 525.556 471.044 525.335C470.809 525.109 470.692 524.84 470.692 524.529C470.692 524.214 470.809 523.945 471.044 523.724C471.282 523.498 471.568 523.385 471.9 523.385C472.233 523.385 472.516 523.498 472.751 523.724C472.989 523.945 473.108 524.214 473.108 524.529C473.108 524.84 472.989 525.109 472.751 525.335C472.516 525.556 472.233 525.667 471.9 525.667ZM480.001 527.182V528.716H474.638V527.182H480.001ZM476.076 524.83H477.987V534.117C477.987 534.488 478.043 534.767 478.153 534.955C478.264 535.138 478.407 535.263 478.582 535.332C478.761 535.396 478.955 535.428 479.163 535.428C479.317 535.428 479.451 535.417 479.566 535.396C479.681 535.374 479.771 535.357 479.835 535.344L480.18 536.923C480.069 536.966 479.911 537.009 479.707 537.051C479.502 537.098 479.246 537.124 478.94 537.128C478.437 537.136 477.968 537.047 477.533 536.859C477.099 536.672 476.747 536.382 476.479 535.99C476.21 535.598 476.076 535.106 476.076 534.513V524.83ZM489.736 537.217C489.114 537.217 488.551 537.102 488.048 536.872C487.545 536.638 487.147 536.299 486.853 535.856C486.563 535.413 486.418 534.869 486.418 534.226C486.418 533.672 486.525 533.216 486.738 532.858C486.951 532.5 487.239 532.217 487.601 532.008C487.963 531.799 488.368 531.641 488.815 531.535C489.263 531.428 489.719 531.347 490.183 531.292C490.771 531.224 491.249 531.168 491.615 531.126C491.982 531.079 492.248 531.004 492.414 530.902C492.58 530.8 492.663 530.634 492.663 530.403V530.359C492.663 529.8 492.506 529.368 492.19 529.061C491.879 528.754 491.415 528.601 490.797 528.601C490.153 528.601 489.646 528.744 489.276 529.029C488.909 529.31 488.656 529.624 488.515 529.969L486.719 529.56C486.932 528.963 487.243 528.482 487.652 528.115C488.065 527.744 488.54 527.476 489.077 527.31C489.614 527.139 490.179 527.054 490.771 527.054C491.163 527.054 491.579 527.101 492.018 527.195C492.461 527.284 492.874 527.45 493.258 527.693C493.646 527.936 493.963 528.283 494.21 528.735C494.457 529.183 494.581 529.764 494.581 530.48V537H492.714V535.658H492.638C492.514 535.905 492.329 536.148 492.082 536.386C491.835 536.625 491.517 536.823 491.129 536.981C490.741 537.138 490.277 537.217 489.736 537.217ZM490.151 535.683C490.68 535.683 491.131 535.579 491.506 535.37C491.886 535.161 492.173 534.888 492.369 534.552C492.57 534.211 492.67 533.847 492.67 533.459V532.193C492.602 532.261 492.469 532.325 492.273 532.385C492.082 532.44 491.862 532.489 491.615 532.532C491.368 532.57 491.127 532.607 490.893 532.641C490.658 532.67 490.462 532.696 490.305 532.717C489.934 532.764 489.595 532.843 489.288 532.954C488.986 533.065 488.743 533.224 488.56 533.433C488.381 533.638 488.291 533.911 488.291 534.251C488.291 534.724 488.466 535.082 488.815 535.325C489.165 535.564 489.61 535.683 490.151 535.683ZM497.127 537V527.182H498.961V528.78H499.083C499.287 528.239 499.622 527.817 500.086 527.514C500.551 527.207 501.107 527.054 501.754 527.054C502.411 527.054 502.96 527.207 503.404 527.514C503.851 527.821 504.181 528.243 504.394 528.78H504.497C504.731 528.256 505.104 527.838 505.615 527.527C506.127 527.212 506.736 527.054 507.443 527.054C508.334 527.054 509.061 527.333 509.623 527.891C510.19 528.45 510.473 529.291 510.473 530.416V537H508.562V530.595C508.562 529.93 508.381 529.449 508.019 529.151C507.656 528.852 507.224 528.703 506.721 528.703C506.099 528.703 505.615 528.895 505.27 529.278C504.925 529.658 504.752 530.146 504.752 530.742V537H502.847V530.474C502.847 529.941 502.681 529.513 502.349 529.189C502.017 528.865 501.584 528.703 501.051 528.703C500.689 528.703 500.355 528.799 500.048 528.991C499.745 529.178 499.5 529.44 499.313 529.777C499.129 530.114 499.038 530.504 499.038 530.947V537H497.127ZM517.266 537.198C516.299 537.198 515.466 536.991 514.767 536.578C514.072 536.161 513.536 535.575 513.156 534.82C512.781 534.062 512.594 533.173 512.594 532.155C512.594 531.149 512.781 530.263 513.156 529.496C513.536 528.729 514.064 528.13 514.741 527.7C515.423 527.269 516.22 527.054 517.132 527.054C517.686 527.054 518.223 527.146 518.743 527.329C519.263 527.512 519.729 527.8 520.143 528.192C520.556 528.584 520.882 529.093 521.121 529.719C521.359 530.342 521.479 531.098 521.479 531.989V532.666H513.674V531.234H519.606C519.606 530.732 519.504 530.286 519.299 529.898C519.094 529.506 518.807 529.197 518.436 528.972C518.07 528.746 517.639 528.633 517.145 528.633C516.608 528.633 516.139 528.765 515.739 529.029C515.342 529.289 515.036 529.63 514.818 530.052C514.605 530.469 514.499 530.923 514.499 531.413V532.532C514.499 533.188 514.614 533.746 514.844 534.207C515.078 534.667 515.404 535.018 515.822 535.261C516.239 535.5 516.727 535.619 517.286 535.619C517.648 535.619 517.978 535.568 518.276 535.466C518.575 535.359 518.832 535.202 519.05 534.993C519.267 534.784 519.433 534.526 519.548 534.219L521.357 534.545C521.212 535.078 520.952 535.545 520.577 535.945C520.207 536.342 519.74 536.651 519.178 536.872C518.619 537.089 517.982 537.198 517.266 537.198ZM528.182 527.182V528.716H522.819V527.182H528.182ZM524.258 524.83H526.169V534.117C526.169 534.488 526.224 534.767 526.335 534.955C526.446 535.138 526.589 535.263 526.763 535.332C526.942 535.396 527.136 535.428 527.345 535.428C527.498 535.428 527.633 535.417 527.748 535.396C527.863 535.374 527.952 535.357 528.016 535.344L528.361 536.923C528.251 536.966 528.093 537.009 527.888 537.051C527.684 537.098 527.428 537.124 527.121 537.128C526.618 537.136 526.15 537.047 525.715 536.859C525.28 536.672 524.929 536.382 524.66 535.99C524.392 535.598 524.258 535.106 524.258 534.513V524.83Z" fill="#212121"/>
<path d="M672 552.499L664.364 554.657V552.822L669.733 551.48V551.411L664.364 550.038V548.224L669.703 546.852V546.777L664.364 545.455V543.615L672 545.778V547.652L666.839 549.084V549.188L672 550.62V552.499ZM672 540.782L664.364 542.94V541.106L669.733 539.763V539.694L664.364 538.322V536.507L669.703 535.135V535.06L664.364 533.738V531.898L672 534.061V535.935L666.839 537.367V537.471L672 538.903V540.782ZM672 529.066L664.364 531.223V529.389L669.733 528.047V527.977L664.364 526.605V524.79L669.703 523.418V523.343L664.364 522.021V520.181L672 522.344V524.218L666.839 525.65V525.755L672 527.186V529.066ZM672.109 518.855C672.109 519.157 672.003 519.415 671.791 519.631C671.579 519.846 671.321 519.952 671.016 519.949C670.717 519.952 670.462 519.846 670.25 519.631C670.038 519.415 669.932 519.157 669.932 518.855C669.932 518.564 670.038 518.31 670.25 518.095C670.462 517.876 670.717 517.765 671.016 517.762C671.218 517.765 671.402 517.818 671.567 517.921C671.733 518.02 671.866 518.153 671.965 518.318C672.061 518.481 672.109 518.66 672.109 518.855ZM672 514.516V516.485L661.818 512.901V510.624L672 507.034V509.003L663.906 511.722V511.802L672 514.516ZM668.008 514.452V509.082H669.489V514.452H668.008ZM661.818 503.973H672V505.773H661.818V503.973ZM675.023 498.801C675.023 499.447 674.935 500.003 674.759 500.467C674.587 500.931 674.355 501.304 674.063 501.585C673.772 501.867 673.448 502.062 673.094 502.172L672.701 500.551C672.85 500.478 672.998 500.372 673.143 500.233C673.293 500.094 673.415 499.906 673.511 499.671C673.611 499.433 673.661 499.133 673.661 498.771C673.661 498.261 673.536 497.838 673.288 497.504C673.042 497.169 672.638 497.001 672.075 497.001H670.628V497.091C670.813 497.184 671.004 497.32 671.2 497.499C671.395 497.674 671.559 497.908 671.692 498.2C671.824 498.488 671.891 498.851 671.891 499.288C671.891 499.875 671.753 500.407 671.478 500.884C671.2 501.358 670.785 501.736 670.235 502.018C669.682 502.296 668.989 502.435 668.157 502.435C667.318 502.435 666.611 502.296 666.034 502.018C665.454 501.736 665.015 501.357 664.717 500.879C664.415 500.402 664.264 499.87 664.264 499.283C664.264 498.836 664.34 498.468 664.493 498.18C664.642 497.888 664.823 497.656 665.035 497.484C665.244 497.311 665.441 497.18 665.626 497.091V496.991H664.364V495.217H672.124C672.777 495.217 673.317 495.372 673.745 495.684C674.173 495.996 674.492 496.421 674.705 496.962C674.917 497.502 675.023 498.115 675.023 498.801ZM670.479 498.786C670.479 498.405 670.386 498.08 670.2 497.812C670.015 497.543 669.748 497.339 669.4 497.2C669.052 497.061 668.634 496.991 668.147 496.991C667.666 496.991 667.246 497.061 666.884 497.2C666.523 497.336 666.243 497.538 666.044 497.807C665.842 498.072 665.741 498.398 665.741 498.786C665.741 499.187 665.845 499.522 666.054 499.79C666.263 500.059 666.549 500.261 666.914 500.397C667.275 500.533 667.686 500.601 668.147 500.601C668.614 500.601 669.024 500.533 669.375 500.397C669.723 500.258 669.995 500.054 670.19 499.786C670.383 499.514 670.479 499.181 670.479 498.786ZM672.149 490.041C672.149 490.787 671.985 491.433 671.657 491.98C671.329 492.527 670.87 492.951 670.28 493.253C669.69 493.551 669 493.7 668.212 493.7C667.423 493.7 666.732 493.551 666.138 493.253C665.545 492.951 665.085 492.527 664.756 491.98C664.428 491.433 664.264 490.787 664.264 490.041C664.264 489.295 664.428 488.649 664.756 488.102C665.085 487.555 665.545 487.133 666.138 486.835C666.732 486.533 667.423 486.382 668.212 486.382C669 486.382 669.69 486.533 670.28 486.835C670.87 487.133 671.329 487.555 671.657 488.102C671.985 488.649 672.149 489.295 672.149 490.041ZM670.707 490.031C670.707 489.627 670.596 489.289 670.374 489.017C670.149 488.745 669.847 488.543 669.469 488.411C669.092 488.275 668.671 488.207 668.207 488.207C667.739 488.207 667.317 488.275 666.939 488.411C666.558 488.543 666.254 488.745 666.029 489.017C665.804 489.289 665.691 489.627 665.691 490.031C665.691 490.446 665.804 490.79 666.029 491.065C666.254 491.337 666.558 491.541 666.939 491.677C667.317 491.809 667.739 491.876 668.207 491.876C668.671 491.876 669.092 491.809 669.469 491.677C669.847 491.541 670.149 491.337 670.374 491.065C670.596 490.79 670.707 490.446 670.707 490.031ZM672 484.855H664.364V483.11H665.636V483.03C665.196 482.891 664.856 482.652 664.617 482.314C664.375 481.973 664.254 481.583 664.254 481.146C664.254 481.046 664.259 480.935 664.269 480.813C664.276 480.687 664.287 480.582 664.304 480.499H665.96C665.933 480.576 665.91 480.697 665.89 480.862C665.867 481.025 665.855 481.182 665.855 481.335C665.855 481.663 665.926 481.958 666.069 482.22C666.208 482.478 666.402 482.682 666.651 482.831C666.899 482.98 667.186 483.055 667.511 483.055H672V484.855ZM672.149 476.287C672.149 477.033 671.985 477.679 671.657 478.226C671.329 478.773 670.87 479.197 670.28 479.499C669.69 479.797 669 479.946 668.212 479.946C667.423 479.946 666.732 479.797 666.138 479.499C665.545 479.197 665.085 478.773 664.756 478.226C664.428 477.679 664.264 477.033 664.264 476.287C664.264 475.542 664.428 474.895 664.756 474.348C665.085 473.801 665.545 473.379 666.138 473.081C666.732 472.779 667.423 472.628 668.212 472.628C669 472.628 669.69 472.779 670.28 473.081C670.87 473.379 671.329 473.801 671.657 474.348C671.985 474.895 672.149 475.542 672.149 476.287ZM670.707 476.277C670.707 475.873 670.596 475.535 670.374 475.263C670.149 474.991 669.847 474.789 669.469 474.657C669.092 474.521 668.671 474.453 668.207 474.453C667.739 474.453 667.317 474.521 666.939 474.657C666.558 474.789 666.254 474.991 666.029 475.263C665.804 475.535 665.691 475.873 665.691 476.277C665.691 476.692 665.804 477.036 666.029 477.311C666.254 477.583 666.558 477.787 666.939 477.923C667.317 478.056 667.739 478.122 668.207 478.122C668.671 478.122 669.092 478.056 669.469 477.923C669.847 477.787 670.149 477.583 670.374 477.311C670.596 477.036 670.707 476.692 670.707 476.277ZM672.149 467.77C672.149 468.515 671.985 469.162 671.657 469.709C671.329 470.256 670.87 470.68 670.28 470.981C669.69 471.28 669 471.429 668.212 471.429C667.423 471.429 666.732 471.28 666.138 470.981C665.545 470.68 665.085 470.256 664.756 469.709C664.428 469.162 664.264 468.515 664.264 467.77C664.264 467.024 664.428 466.378 664.756 465.831C665.085 465.284 665.545 464.861 666.138 464.563C666.732 464.261 667.423 464.111 668.212 464.111C669 464.111 669.69 464.261 670.28 464.563C670.87 464.861 671.329 465.284 671.657 465.831C671.985 466.378 672.149 467.024 672.149 467.77ZM670.707 467.76C670.707 467.355 670.596 467.017 670.374 466.746C670.149 466.474 669.847 466.272 669.469 466.139C669.092 466.003 668.671 465.935 668.207 465.935C667.739 465.935 667.317 466.003 666.939 466.139C666.558 466.272 666.254 466.474 666.029 466.746C665.804 467.017 665.691 467.355 665.691 467.76C665.691 468.174 665.804 468.519 666.029 468.794C666.254 469.066 666.558 469.269 666.939 469.405C667.317 469.538 667.739 469.604 668.207 469.604C668.671 469.604 669.092 469.538 669.469 469.405C669.847 469.269 670.149 469.066 670.374 468.794C670.596 468.519 670.707 468.174 670.707 467.76ZM672 462.583H664.364V460.863H665.661V460.773C665.224 460.614 664.882 460.351 664.637 459.983C664.388 459.615 664.264 459.176 664.264 458.665C664.264 458.148 664.39 457.713 664.642 457.358C664.891 457 665.23 456.748 665.661 456.602V456.523C665.237 456.354 664.899 456.069 664.647 455.668C664.392 455.263 664.264 454.784 664.264 454.231C664.264 453.528 664.486 452.955 664.93 452.511C665.375 452.067 666.022 451.844 666.874 451.844H672V453.649H667.153C666.679 453.649 666.332 453.775 666.114 454.027C665.892 454.279 665.781 454.587 665.781 454.952C665.781 455.386 665.916 455.726 666.188 455.971C666.457 456.213 666.806 456.334 667.237 456.334H672V458.099H667.078C666.684 458.099 666.369 458.218 666.134 458.457C665.898 458.692 665.781 459 665.781 459.381C665.781 459.64 665.847 459.875 665.979 460.087C666.109 460.299 666.293 460.469 666.531 460.594C666.767 460.72 667.042 460.783 667.357 460.783H672V462.583ZM666.382 443.983L666.561 445.624C666.395 445.67 666.24 445.751 666.094 445.867C665.948 445.98 665.83 446.133 665.741 446.325C665.651 446.517 665.607 446.752 665.607 447.031C665.607 447.405 665.688 447.72 665.85 447.975C666.013 448.227 666.223 448.352 666.482 448.348C666.704 448.352 666.884 448.27 667.023 448.105C667.163 447.936 667.277 447.657 667.366 447.269L667.645 445.967C667.801 445.244 668.048 444.707 668.386 444.356C668.724 444.001 669.166 443.822 669.713 443.819C670.194 443.822 670.618 443.963 670.986 444.242C671.35 444.517 671.635 444.9 671.841 445.39C672.046 445.881 672.149 446.444 672.149 447.08C672.149 448.015 671.954 448.767 671.562 449.338C671.168 449.908 670.62 450.247 669.917 450.357L669.748 448.602C670.093 448.522 670.353 448.353 670.528 448.095C670.704 447.836 670.792 447.5 670.792 447.085C670.792 446.658 670.704 446.315 670.528 446.056C670.353 445.794 670.136 445.664 669.877 445.664C669.658 445.664 669.478 445.748 669.335 445.917C669.193 446.083 669.083 446.341 669.007 446.693L668.734 447.995C668.581 448.728 668.324 449.27 667.963 449.621C667.598 449.972 667.138 450.146 666.581 450.143C666.11 450.146 665.703 450.019 665.358 449.76C665.01 449.498 664.741 449.135 664.553 448.671C664.36 448.204 664.264 447.665 664.264 447.056C664.264 446.161 664.455 445.456 664.836 444.943C665.217 444.426 665.732 444.106 666.382 443.983ZM672.109 441.226C672.109 441.528 672.003 441.787 671.791 442.002C671.579 442.217 671.321 442.323 671.016 442.32C670.717 442.323 670.462 442.217 670.25 442.002C670.038 441.787 669.932 441.528 669.932 441.226C669.932 440.935 670.038 440.681 670.25 440.466C670.462 440.247 670.717 440.136 671.016 440.133C671.218 440.136 671.402 440.189 671.567 440.292C671.733 440.391 671.866 440.524 671.965 440.689C672.061 440.852 672.109 441.031 672.109 441.226ZM672.149 434.944C672.149 435.706 671.982 436.36 671.647 436.907C671.312 437.451 670.85 437.87 670.26 438.165C669.667 438.457 668.984 438.603 668.212 438.603C667.436 438.603 666.752 438.453 666.158 438.155C665.562 437.857 665.098 437.436 664.766 436.892C664.432 436.346 664.264 435.699 664.264 434.953C664.264 434.334 664.379 433.785 664.607 433.308C664.833 432.827 665.152 432.444 665.567 432.159C665.978 431.874 666.458 431.712 667.009 431.672V433.392C666.641 433.462 666.334 433.628 666.089 433.89C665.84 434.148 665.716 434.494 665.716 434.929C665.716 435.297 665.815 435.62 666.014 435.898C666.21 436.176 666.491 436.394 666.859 436.549C667.227 436.702 667.668 436.778 668.182 436.778C668.702 436.778 669.15 436.702 669.524 436.549C669.895 436.397 670.182 436.183 670.384 435.908C670.583 435.63 670.683 435.303 670.683 434.929C670.683 434.663 670.633 434.426 670.533 434.218C670.431 434.006 670.283 433.828 670.091 433.686C669.899 433.543 669.665 433.445 669.39 433.392V431.672C669.93 431.715 670.409 431.874 670.827 432.15C671.241 432.425 671.566 432.799 671.801 433.273C672.033 433.747 672.149 434.304 672.149 434.944ZM672.149 426.863C672.149 427.609 671.985 428.256 671.657 428.802C671.329 429.349 670.87 429.773 670.28 430.075C669.69 430.373 669 430.523 668.212 430.523C667.423 430.523 666.732 430.373 666.138 430.075C665.545 429.773 665.085 429.349 664.756 428.802C664.428 428.256 664.264 427.609 664.264 426.863C664.264 426.118 664.428 425.471 664.756 424.925C665.085 424.378 665.545 423.955 666.138 423.657C666.732 423.355 667.423 423.204 668.212 423.204C669 423.204 669.69 423.355 670.28 423.657C670.87 423.955 671.329 424.378 671.657 424.925C671.985 425.471 672.149 426.118 672.149 426.863ZM670.707 426.854C670.707 426.449 670.596 426.111 670.374 425.839C670.149 425.568 669.847 425.365 669.469 425.233C669.092 425.097 668.671 425.029 668.207 425.029C667.739 425.029 667.317 425.097 666.939 425.233C666.558 425.365 666.254 425.568 666.029 425.839C665.804 426.111 665.691 426.449 665.691 426.854C665.691 427.268 665.804 427.613 666.029 427.888C666.254 428.159 666.558 428.363 666.939 428.499C667.317 428.632 667.739 428.698 668.207 428.698C668.671 428.698 669.092 428.632 669.469 428.499C669.847 428.363 670.149 428.159 670.374 427.888C670.596 427.613 670.707 427.268 670.707 426.854ZM672 421.677H664.364V419.957H665.661V419.867C665.224 419.708 664.882 419.445 664.637 419.077C664.388 418.709 664.264 418.27 664.264 417.759C664.264 417.242 664.39 416.806 664.642 416.452C664.891 416.094 665.23 415.842 665.661 415.696V415.616C665.237 415.447 664.899 415.162 664.647 414.761C664.392 414.357 664.264 413.878 664.264 413.325C664.264 412.622 664.486 412.049 664.93 411.604C665.375 411.16 666.022 410.938 666.874 410.938H672V412.743H667.153C666.679 412.743 666.332 412.869 666.114 413.121C665.892 413.373 665.781 413.681 665.781 414.045C665.781 414.48 665.916 414.819 666.188 415.065C666.457 415.307 666.806 415.428 667.237 415.428H672V417.192H667.078C666.684 417.192 666.369 417.312 666.134 417.55C665.898 417.786 665.781 418.094 665.781 418.475C665.781 418.734 665.847 418.969 665.979 419.181C666.109 419.393 666.293 419.562 666.531 419.688C666.767 419.814 667.042 419.877 667.357 419.877H672V421.677Z" fill="#212121"/>
<path d="M242.872 645L244.543 634.818H245.537L243.866 645H242.872ZM238.239 642.176L238.398 641.182H245.994L245.835 642.176H238.239ZM239.293 645L240.963 634.818H241.957L240.287 645H239.293ZM238.835 638.636L238.994 637.642H246.591L246.432 638.636H238.835ZM247.508 635.912V634.818H255.145V635.912H251.943V645H250.71V635.912H247.508ZM256.095 645V637.364H257.229V638.517H257.308C257.448 638.139 257.7 637.833 258.064 637.597C258.429 637.362 258.84 637.244 259.297 637.244C259.383 637.244 259.491 637.246 259.62 637.249C259.749 637.253 259.847 637.258 259.914 637.264V638.457C259.874 638.447 259.783 638.433 259.64 638.413C259.501 638.389 259.353 638.378 259.198 638.378C258.826 638.378 258.495 638.456 258.203 638.612C257.915 638.764 257.686 638.976 257.517 639.248C257.352 639.516 257.269 639.823 257.269 640.168V645H256.095ZM263.551 645.179C263.068 645.179 262.628 645.088 262.234 644.906C261.84 644.72 261.526 644.453 261.294 644.105C261.062 643.754 260.946 643.33 260.946 642.832C260.946 642.395 261.033 642.04 261.205 641.768C261.377 641.493 261.608 641.278 261.896 641.122C262.184 640.966 262.502 640.85 262.85 640.774C263.202 640.695 263.555 640.632 263.909 640.585C264.373 640.526 264.75 640.481 265.038 640.451C265.33 640.418 265.542 640.363 265.674 640.287C265.81 640.211 265.878 640.078 265.878 639.889V639.849C265.878 639.359 265.744 638.978 265.475 638.706C265.21 638.434 264.808 638.298 264.267 638.298C263.707 638.298 263.268 638.421 262.95 638.666C262.632 638.911 262.408 639.173 262.279 639.452L261.165 639.054C261.364 638.59 261.629 638.229 261.961 637.97C262.295 637.708 262.66 637.526 263.054 637.423C263.452 637.317 263.843 637.264 264.228 637.264C264.473 637.264 264.755 637.294 265.073 637.354C265.394 637.41 265.704 637.528 266.002 637.707C266.304 637.886 266.554 638.156 266.753 638.517C266.952 638.878 267.051 639.362 267.051 639.969V645H265.878V643.966H265.819C265.739 644.132 265.606 644.309 265.421 644.498C265.235 644.687 264.988 644.848 264.68 644.98C264.372 645.113 263.996 645.179 263.551 645.179ZM263.73 644.125C264.194 644.125 264.586 644.034 264.904 643.852C265.225 643.669 265.467 643.434 265.63 643.146C265.795 642.857 265.878 642.554 265.878 642.236V641.162C265.828 641.222 265.719 641.276 265.55 641.326C265.384 641.372 265.192 641.414 264.973 641.45C264.758 641.483 264.547 641.513 264.342 641.54C264.14 641.563 263.976 641.583 263.85 641.599C263.545 641.639 263.26 641.704 262.995 641.793C262.733 641.879 262.521 642.01 262.358 642.186C262.199 642.358 262.12 642.594 262.12 642.892C262.12 643.3 262.27 643.608 262.572 643.817C262.877 644.022 263.263 644.125 263.73 644.125ZM272.077 645.159C271.44 645.159 270.878 644.998 270.391 644.677C269.904 644.352 269.523 643.895 269.248 643.305C268.973 642.711 268.835 642.01 268.835 641.202C268.835 640.4 268.973 639.704 269.248 639.114C269.523 638.524 269.906 638.068 270.396 637.746C270.887 637.425 271.453 637.264 272.096 637.264C272.594 637.264 272.986 637.347 273.275 637.513C273.566 637.675 273.788 637.861 273.941 638.07C274.097 638.275 274.218 638.444 274.304 638.577H274.403V634.818H275.577V645H274.443V643.827H274.304C274.218 643.966 274.095 644.142 273.936 644.354C273.777 644.562 273.55 644.75 273.255 644.915C272.96 645.078 272.567 645.159 272.077 645.159ZM272.236 644.105C272.706 644.105 273.104 643.982 273.429 643.737C273.754 643.489 274.001 643.146 274.17 642.708C274.339 642.267 274.423 641.759 274.423 641.182C274.423 640.612 274.34 640.113 274.175 639.685C274.009 639.254 273.764 638.92 273.439 638.681C273.114 638.439 272.713 638.318 272.236 638.318C271.738 638.318 271.324 638.446 270.993 638.701C270.665 638.953 270.418 639.296 270.252 639.73C270.09 640.161 270.008 640.645 270.008 641.182C270.008 641.725 270.091 642.219 270.257 642.663C270.426 643.104 270.675 643.455 271.003 643.717C271.334 643.976 271.745 644.105 272.236 644.105ZM277.888 645V637.364H279.062V645H277.888ZM278.485 636.091C278.256 636.091 278.059 636.013 277.893 635.857C277.731 635.701 277.65 635.514 277.65 635.295C277.65 635.077 277.731 634.889 277.893 634.734C278.059 634.578 278.256 634.5 278.485 634.5C278.714 634.5 278.909 634.578 279.072 634.734C279.237 634.889 279.32 635.077 279.32 635.295C279.32 635.514 279.237 635.701 279.072 635.857C278.909 636.013 278.714 636.091 278.485 636.091ZM282.384 640.406V645H281.211V637.364H282.344V638.557H282.444C282.623 638.169 282.894 637.857 283.259 637.622C283.623 637.384 284.094 637.264 284.671 637.264C285.188 637.264 285.64 637.37 286.028 637.582C286.416 637.791 286.717 638.109 286.933 638.537C287.148 638.961 287.256 639.498 287.256 640.148V645H286.083V640.227C286.083 639.627 285.927 639.16 285.615 638.825C285.304 638.487 284.876 638.318 284.333 638.318C283.958 638.318 283.623 638.399 283.328 638.562C283.037 638.724 282.806 638.961 282.637 639.273C282.468 639.584 282.384 639.962 282.384 640.406ZM292.482 648.023C291.916 648.023 291.428 647.95 291.021 647.804C290.613 647.661 290.273 647.473 290.002 647.237C289.733 647.005 289.519 646.757 289.36 646.491L290.295 645.835C290.401 645.974 290.535 646.134 290.698 646.312C290.86 646.495 291.082 646.652 291.364 646.785C291.649 646.921 292.022 646.989 292.482 646.989C293.099 646.989 293.608 646.839 294.009 646.541C294.41 646.243 294.61 645.776 294.61 645.139V643.588H294.511C294.425 643.727 294.302 643.9 294.143 644.105C293.987 644.307 293.762 644.488 293.467 644.647C293.175 644.803 292.781 644.881 292.284 644.881C291.667 644.881 291.114 644.735 290.623 644.443C290.136 644.152 289.75 643.727 289.465 643.17C289.183 642.614 289.042 641.937 289.042 641.142C289.042 640.36 289.18 639.679 289.455 639.099C289.73 638.515 290.113 638.065 290.603 637.746C291.094 637.425 291.66 637.264 292.303 637.264C292.801 637.264 293.195 637.347 293.487 637.513C293.782 637.675 294.007 637.861 294.163 638.07C294.322 638.275 294.445 638.444 294.531 638.577H294.65V637.364H295.784V645.219C295.784 645.875 295.634 646.409 295.336 646.82C295.041 647.234 294.643 647.537 294.143 647.729C293.646 647.925 293.092 648.023 292.482 648.023ZM292.443 643.827C292.913 643.827 293.311 643.719 293.636 643.504C293.961 643.288 294.208 642.978 294.377 642.574C294.546 642.17 294.63 641.686 294.63 641.122C294.63 640.572 294.547 640.086 294.382 639.665C294.216 639.245 293.971 638.915 293.646 638.676C293.321 638.437 292.92 638.318 292.443 638.318C291.945 638.318 291.531 638.444 291.2 638.696C290.872 638.948 290.625 639.286 290.459 639.71C290.297 640.134 290.215 640.605 290.215 641.122C290.215 641.652 290.298 642.121 290.464 642.529C290.633 642.933 290.882 643.252 291.21 643.484C291.541 643.712 291.952 643.827 292.443 643.827ZM305.667 645L307.338 634.818H308.332L306.661 645H305.667ZM301.034 642.176L301.193 641.182H308.789L308.63 642.176H301.034ZM302.088 645L303.758 634.818H304.752L303.082 645H302.088ZM301.63 638.636L301.789 637.642H309.386L309.227 638.636H301.63ZM316.428 637.364C316.368 636.86 316.126 636.469 315.702 636.19C315.278 635.912 314.758 635.773 314.141 635.773C313.69 635.773 313.296 635.846 312.958 635.991C312.623 636.137 312.361 636.338 312.172 636.593C311.987 636.848 311.894 637.138 311.894 637.463C311.894 637.735 311.959 637.969 312.088 638.164C312.22 638.356 312.39 638.517 312.595 638.646C312.8 638.772 313.016 638.877 313.241 638.96C313.467 639.039 313.674 639.104 313.863 639.153L314.897 639.432C315.162 639.501 315.457 639.598 315.782 639.72C316.11 639.843 316.423 640.01 316.721 640.222C317.023 640.431 317.272 640.7 317.467 641.028C317.663 641.356 317.76 641.759 317.76 642.236C317.76 642.786 317.616 643.283 317.328 643.727C317.043 644.171 316.625 644.524 316.075 644.786C315.528 645.048 314.864 645.179 314.081 645.179C313.352 645.179 312.721 645.061 312.187 644.826C311.657 644.591 311.239 644.263 310.934 643.842C310.633 643.421 310.462 642.932 310.422 642.375H311.695C311.728 642.759 311.858 643.078 312.083 643.33C312.312 643.578 312.6 643.764 312.948 643.886C313.299 644.006 313.677 644.065 314.081 644.065C314.552 644.065 314.975 643.989 315.349 643.837C315.724 643.681 316.02 643.465 316.239 643.19C316.458 642.912 316.567 642.587 316.567 642.216C316.567 641.878 316.473 641.603 316.284 641.391C316.095 641.179 315.846 641.006 315.538 640.874C315.23 640.741 314.897 640.625 314.539 640.526L313.286 640.168C312.491 639.939 311.861 639.612 311.397 639.188C310.933 638.764 310.701 638.209 310.701 637.523C310.701 636.953 310.855 636.455 311.163 636.031C311.475 635.604 311.892 635.272 312.416 635.037C312.943 634.798 313.531 634.679 314.181 634.679C314.837 634.679 315.421 634.797 315.931 635.032C316.441 635.264 316.846 635.582 317.144 635.987C317.446 636.391 317.605 636.85 317.621 637.364H316.428ZM322.95 637.364V638.358H318.992V637.364H322.95ZM320.146 635.534H321.319V642.812C321.319 643.144 321.367 643.393 321.463 643.558C321.563 643.721 321.688 643.83 321.841 643.886C321.997 643.939 322.161 643.966 322.333 643.966C322.462 643.966 322.568 643.959 322.651 643.946C322.734 643.929 322.8 643.916 322.85 643.906L323.089 644.96C323.009 644.99 322.898 645.02 322.756 645.05C322.613 645.083 322.433 645.099 322.214 645.099C321.882 645.099 321.558 645.028 321.239 644.886C320.924 644.743 320.663 644.526 320.454 644.234C320.248 643.943 320.146 643.575 320.146 643.131V635.534ZM327.735 645.159C327.045 645.159 326.44 644.995 325.92 644.667C325.403 644.339 324.999 643.88 324.707 643.29C324.419 642.7 324.275 642.01 324.275 641.222C324.275 640.426 324.419 639.732 324.707 639.138C324.999 638.545 325.403 638.085 325.92 637.756C326.44 637.428 327.045 637.264 327.735 637.264C328.424 637.264 329.027 637.428 329.544 637.756C330.065 638.085 330.469 638.545 330.757 639.138C331.049 639.732 331.195 640.426 331.195 641.222C331.195 642.01 331.049 642.7 330.757 643.29C330.469 643.88 330.065 644.339 329.544 644.667C329.027 644.995 328.424 645.159 327.735 645.159ZM327.735 644.105C328.258 644.105 328.689 643.971 329.027 643.702C329.365 643.434 329.616 643.081 329.778 642.643C329.94 642.206 330.022 641.732 330.022 641.222C330.022 640.711 329.94 640.236 329.778 639.795C329.616 639.354 329.365 638.998 329.027 638.726C328.689 638.454 328.258 638.318 327.735 638.318C327.211 638.318 326.78 638.454 326.442 638.726C326.104 638.998 325.854 639.354 325.691 639.795C325.529 640.236 325.448 640.711 325.448 641.222C325.448 641.732 325.529 642.206 325.691 642.643C325.854 643.081 326.104 643.434 326.442 643.702C326.78 643.971 327.211 644.105 327.735 644.105ZM336.088 645.159C335.372 645.159 334.756 644.99 334.239 644.652C333.722 644.314 333.324 643.848 333.046 643.255C332.767 642.662 332.628 641.984 332.628 641.222C332.628 640.446 332.771 639.762 333.056 639.168C333.344 638.572 333.745 638.106 334.259 637.771C334.776 637.433 335.379 637.264 336.068 637.264C336.605 637.264 337.089 637.364 337.52 637.562C337.951 637.761 338.304 638.04 338.579 638.398C338.854 638.756 339.025 639.173 339.091 639.651H337.918C337.828 639.303 337.629 638.994 337.321 638.726C337.016 638.454 336.605 638.318 336.088 638.318C335.631 638.318 335.23 638.437 334.885 638.676C334.544 638.911 334.277 639.245 334.085 639.675C333.896 640.103 333.801 640.605 333.801 641.182C333.801 641.772 333.894 642.286 334.08 642.723C334.269 643.161 334.534 643.5 334.875 643.742C335.22 643.984 335.624 644.105 336.088 644.105C336.393 644.105 336.67 644.052 336.919 643.946C337.167 643.84 337.378 643.688 337.55 643.489C337.722 643.29 337.845 643.051 337.918 642.773H339.091C339.025 643.223 338.861 643.629 338.599 643.991C338.34 644.349 337.997 644.634 337.57 644.846C337.146 645.055 336.652 645.159 336.088 645.159ZM341.9 642.216L341.88 640.764H342.119L345.46 637.364H346.911L343.352 640.963H343.252L341.9 642.216ZM340.806 645V634.818H341.98V645H340.806ZM345.659 645L342.676 641.222L343.511 640.406L347.15 645H345.659ZM348.422 645V637.364H349.555V638.557H349.654C349.814 638.149 350.07 637.833 350.425 637.607C350.78 637.379 351.206 637.264 351.703 637.264C352.207 637.264 352.626 637.379 352.961 637.607C353.299 637.833 353.562 638.149 353.751 638.557H353.831C354.026 638.162 354.319 637.849 354.711 637.617C355.102 637.382 355.571 637.264 356.118 637.264C356.8 637.264 357.359 637.478 357.793 637.906C358.227 638.33 358.444 638.991 358.444 639.889V645H357.271V639.889C357.271 639.326 357.117 638.923 356.809 638.681C356.5 638.439 356.137 638.318 355.72 638.318C355.183 638.318 354.767 638.481 354.472 638.805C354.177 639.127 354.029 639.535 354.029 640.028V645H352.836V639.77C352.836 639.336 352.695 638.986 352.414 638.721C352.132 638.452 351.769 638.318 351.325 638.318C351.02 638.318 350.735 638.399 350.47 638.562C350.208 638.724 349.996 638.95 349.833 639.238C349.674 639.523 349.595 639.853 349.595 640.227V645H348.422ZM362.837 645.179C362.353 645.179 361.914 645.088 361.519 644.906C361.125 644.72 360.812 644.453 360.58 644.105C360.348 643.754 360.232 643.33 360.232 642.832C360.232 642.395 360.318 642.04 360.49 641.768C360.662 641.493 360.893 641.278 361.181 641.122C361.469 640.966 361.788 640.85 362.136 640.774C362.487 640.695 362.84 640.632 363.195 640.585C363.659 640.526 364.035 640.481 364.323 640.451C364.615 640.418 364.827 640.363 364.96 640.287C365.095 640.211 365.163 640.078 365.163 639.889V639.849C365.163 639.359 365.029 638.978 364.761 638.706C364.496 638.434 364.093 638.298 363.553 638.298C362.992 638.298 362.553 638.421 362.235 638.666C361.917 638.911 361.693 639.173 361.564 639.452L360.45 639.054C360.649 638.59 360.914 638.229 361.246 637.97C361.58 637.708 361.945 637.526 362.339 637.423C362.737 637.317 363.128 637.264 363.513 637.264C363.758 637.264 364.04 637.294 364.358 637.354C364.679 637.41 364.989 637.528 365.288 637.707C365.589 637.886 365.839 638.156 366.038 638.517C366.237 638.878 366.337 639.362 366.337 639.969V645H365.163V643.966H365.104C365.024 644.132 364.892 644.309 364.706 644.498C364.52 644.687 364.273 644.848 363.965 644.98C363.657 645.113 363.281 645.179 362.837 645.179ZM363.016 644.125C363.48 644.125 363.871 644.034 364.189 643.852C364.51 643.669 364.752 643.434 364.915 643.146C365.08 642.857 365.163 642.554 365.163 642.236V641.162C365.114 641.222 365.004 641.276 364.835 641.326C364.67 641.372 364.477 641.414 364.259 641.45C364.043 641.483 363.833 641.513 363.627 641.54C363.425 641.563 363.261 641.583 363.135 641.599C362.83 641.639 362.545 641.704 362.28 641.793C362.018 641.879 361.806 642.01 361.643 642.186C361.484 642.358 361.405 642.594 361.405 642.892C361.405 643.3 361.556 643.608 361.857 643.817C362.162 644.022 362.548 644.125 363.016 644.125ZM368.478 645V637.364H369.612V638.517H369.691C369.83 638.139 370.082 637.833 370.447 637.597C370.811 637.362 371.222 637.244 371.68 637.244C371.766 637.244 371.874 637.246 372.003 637.249C372.132 637.253 372.23 637.258 372.296 637.264V638.457C372.257 638.447 372.165 638.433 372.023 638.413C371.884 638.389 371.736 638.378 371.58 638.378C371.209 638.378 370.878 638.456 370.586 638.612C370.298 638.764 370.069 638.976 369.9 639.248C369.734 639.516 369.651 639.823 369.651 640.168V645H368.478ZM374.781 642.216L374.761 640.764H375L378.341 637.364H379.792L376.233 640.963H376.133L374.781 642.216ZM373.687 645V634.818H374.86V645H373.687ZM378.539 645L375.556 641.222L376.392 640.406L380.031 645H378.539ZM384.19 645.159C383.454 645.159 382.819 644.997 382.286 644.672C381.755 644.344 381.346 643.886 381.058 643.3C380.772 642.71 380.63 642.024 380.63 641.241C380.63 640.459 380.772 639.77 381.058 639.173C381.346 638.573 381.747 638.106 382.261 637.771C382.778 637.433 383.381 637.264 384.07 637.264C384.468 637.264 384.861 637.33 385.249 637.463C385.636 637.596 385.989 637.811 386.308 638.109C386.626 638.404 386.879 638.795 387.068 639.283C387.257 639.77 387.352 640.37 387.352 641.082V641.58H381.465V640.565H386.158C386.158 640.134 386.072 639.75 385.9 639.412C385.731 639.074 385.489 638.807 385.174 638.612C384.862 638.416 384.495 638.318 384.07 638.318C383.603 638.318 383.199 638.434 382.857 638.666C382.519 638.895 382.259 639.193 382.077 639.561C381.894 639.929 381.803 640.323 381.803 640.744V641.42C381.803 641.997 381.903 642.486 382.102 642.887C382.304 643.285 382.584 643.588 382.942 643.797C383.3 644.002 383.716 644.105 384.19 644.105C384.498 644.105 384.776 644.062 385.025 643.976C385.277 643.886 385.494 643.754 385.676 643.578C385.858 643.399 385.999 643.177 386.099 642.912L387.232 643.23C387.113 643.615 386.912 643.953 386.631 644.244C386.349 644.533 386.001 644.758 385.587 644.92C385.172 645.08 384.707 645.159 384.19 645.159ZM392.457 637.364V638.358H388.5V637.364H392.457ZM389.653 635.534H390.827V642.812C390.827 643.144 390.875 643.393 390.971 643.558C391.07 643.721 391.196 643.83 391.349 643.886C391.504 643.939 391.669 643.966 391.841 643.966C391.97 643.966 392.076 643.959 392.159 643.946C392.242 643.929 392.308 643.916 392.358 643.906L392.597 644.96C392.517 644.99 392.406 645.02 392.263 645.05C392.121 645.083 391.94 645.099 391.722 645.099C391.39 645.099 391.065 645.028 390.747 644.886C390.432 644.743 390.17 644.526 389.962 644.234C389.756 643.943 389.653 643.575 389.653 643.131V635.534ZM401.958 645L403.629 634.818H404.623L402.952 645H401.958ZM397.325 642.176L397.484 641.182H405.08L404.921 642.176H397.325ZM398.379 645L400.049 634.818H401.043L399.373 645H398.379ZM397.921 638.636L398.08 637.642H405.677L405.518 638.636H397.921ZM412.719 637.364C412.659 636.86 412.417 636.469 411.993 636.19C411.569 635.912 411.049 635.773 410.432 635.773C409.981 635.773 409.587 635.846 409.249 635.991C408.914 636.137 408.652 636.338 408.463 636.593C408.278 636.848 408.185 637.138 408.185 637.463C408.185 637.735 408.25 637.969 408.379 638.164C408.511 638.356 408.681 638.517 408.886 638.646C409.092 638.772 409.307 638.877 409.532 638.96C409.758 639.039 409.965 639.104 410.154 639.153L411.188 639.432C411.453 639.501 411.748 639.598 412.073 639.72C412.401 639.843 412.714 640.01 413.012 640.222C413.314 640.431 413.563 640.7 413.758 641.028C413.954 641.356 414.051 641.759 414.051 642.236C414.051 642.786 413.907 643.283 413.619 643.727C413.334 644.171 412.916 644.524 412.366 644.786C411.819 645.048 411.155 645.179 410.373 645.179C409.643 645.179 409.012 645.061 408.478 644.826C407.948 644.591 407.53 644.263 407.225 643.842C406.924 643.421 406.753 642.932 406.713 642.375H407.986C408.019 642.759 408.149 643.078 408.374 643.33C408.603 643.578 408.891 643.764 409.239 643.886C409.59 644.006 409.968 644.065 410.373 644.065C410.843 644.065 411.266 643.989 411.64 643.837C412.015 643.681 412.311 643.465 412.53 643.19C412.749 642.912 412.858 642.587 412.858 642.216C412.858 641.878 412.764 641.603 412.575 641.391C412.386 641.179 412.137 641.006 411.829 640.874C411.521 640.741 411.188 640.625 410.83 640.526L409.577 640.168C408.782 639.939 408.152 639.612 407.688 639.188C407.224 638.764 406.992 638.209 406.992 637.523C406.992 636.953 407.146 636.455 407.454 636.031C407.766 635.604 408.183 635.272 408.707 635.037C409.234 634.798 409.822 634.679 410.472 634.679C411.128 634.679 411.712 634.797 412.222 635.032C412.732 635.264 413.137 635.582 413.435 635.987C413.737 636.391 413.896 636.85 413.912 637.364H412.719ZM419.241 637.364V638.358H415.283V637.364H419.241ZM416.437 635.534H417.61V642.812C417.61 643.144 417.658 643.393 417.754 643.558C417.854 643.721 417.979 643.83 418.132 643.886C418.288 643.939 418.452 643.966 418.624 643.966C418.753 643.966 418.859 643.959 418.942 643.946C419.025 643.929 419.091 643.916 419.141 643.906L419.38 644.96C419.3 644.99 419.189 645.02 419.047 645.05C418.904 645.083 418.724 645.099 418.505 645.099C418.173 645.099 417.849 645.028 417.53 644.886C417.215 644.743 416.954 644.526 416.745 644.234C416.539 643.943 416.437 643.575 416.437 643.131V635.534ZM421.006 645V637.364H422.139V638.517H422.219C422.358 638.139 422.61 637.833 422.974 637.597C423.339 637.362 423.75 637.244 424.207 637.244C424.293 637.244 424.401 637.246 424.53 637.249C424.66 637.253 424.757 637.258 424.824 637.264V638.457C424.784 638.447 424.693 638.433 424.55 638.413C424.411 638.389 424.264 638.378 424.108 638.378C423.737 638.378 423.405 638.456 423.113 638.612C422.825 638.764 422.596 638.976 422.427 639.248C422.262 639.516 422.179 639.823 422.179 640.168V645H421.006ZM428.462 645.179C427.978 645.179 427.539 645.088 427.144 644.906C426.75 644.72 426.437 644.453 426.205 644.105C425.973 643.754 425.857 643.33 425.857 642.832C425.857 642.395 425.943 642.04 426.115 641.768C426.287 641.493 426.518 641.278 426.806 641.122C427.094 640.966 427.413 640.85 427.761 640.774C428.112 640.695 428.465 640.632 428.82 640.585C429.284 640.526 429.66 640.481 429.948 640.451C430.24 640.418 430.452 640.363 430.585 640.287C430.72 640.211 430.788 640.078 430.788 639.889V639.849C430.788 639.359 430.654 638.978 430.386 638.706C430.121 638.434 429.718 638.298 429.178 638.298C428.617 638.298 428.178 638.421 427.86 638.666C427.542 638.911 427.318 639.173 427.189 639.452L426.075 639.054C426.274 638.59 426.539 638.229 426.871 637.97C427.205 637.708 427.57 637.526 427.964 637.423C428.362 637.317 428.753 637.264 429.138 637.264C429.383 637.264 429.665 637.294 429.983 637.354C430.304 637.41 430.614 637.528 430.913 637.707C431.214 637.886 431.464 638.156 431.663 638.517C431.862 638.878 431.962 639.362 431.962 639.969V645H430.788V643.966H430.729C430.649 644.132 430.517 644.309 430.331 644.498C430.145 644.687 429.898 644.848 429.59 644.98C429.282 645.113 428.906 645.179 428.462 645.179ZM428.641 644.125C429.105 644.125 429.496 644.034 429.814 643.852C430.135 643.669 430.377 643.434 430.54 643.146C430.705 642.857 430.788 642.554 430.788 642.236V641.162C430.739 641.222 430.629 641.276 430.46 641.326C430.295 641.372 430.102 641.414 429.884 641.45C429.668 641.483 429.458 641.513 429.252 641.54C429.05 641.563 428.886 641.583 428.76 641.599C428.455 641.639 428.17 641.704 427.905 641.793C427.643 641.879 427.431 642.01 427.268 642.186C427.109 642.358 427.03 642.594 427.03 642.892C427.03 643.3 427.181 643.608 427.482 643.817C427.787 644.022 428.173 644.125 428.641 644.125ZM437.424 637.364V638.358H433.467V637.364H437.424ZM434.62 635.534H435.794V642.812C435.794 643.144 435.842 643.393 435.938 643.558C436.037 643.721 436.163 643.83 436.316 643.886C436.471 643.939 436.635 643.966 436.808 643.966C436.937 643.966 437.043 643.959 437.126 643.946C437.209 643.929 437.275 643.916 437.325 643.906L437.563 644.96C437.484 644.99 437.373 645.02 437.23 645.05C437.088 645.083 436.907 645.099 436.688 645.099C436.357 645.099 436.032 645.028 435.714 644.886C435.399 644.743 435.137 644.526 434.928 644.234C434.723 643.943 434.62 643.575 434.62 643.131V635.534ZM442.309 645.159C441.573 645.159 440.938 644.997 440.405 644.672C439.874 644.344 439.465 643.886 439.177 643.3C438.892 642.71 438.749 642.024 438.749 641.241C438.749 640.459 438.892 639.77 439.177 639.173C439.465 638.573 439.866 638.106 440.38 637.771C440.897 637.433 441.5 637.264 442.189 637.264C442.587 637.264 442.98 637.33 443.368 637.463C443.756 637.596 444.108 637.811 444.427 638.109C444.745 638.404 444.998 638.795 445.187 639.283C445.376 639.77 445.471 640.37 445.471 641.082V641.58H439.584V640.565H444.278C444.278 640.134 444.191 639.75 444.019 639.412C443.85 639.074 443.608 638.807 443.293 638.612C442.982 638.416 442.614 638.318 442.189 638.318C441.722 638.318 441.318 638.434 440.976 638.666C440.638 638.895 440.378 639.193 440.196 639.561C440.014 639.929 439.922 640.323 439.922 640.744V641.42C439.922 641.997 440.022 642.486 440.221 642.887C440.423 643.285 440.703 643.588 441.061 643.797C441.419 644.002 441.835 644.105 442.309 644.105C442.617 644.105 442.895 644.062 443.144 643.976C443.396 643.886 443.613 643.754 443.795 643.578C443.978 643.399 444.118 643.177 444.218 642.912L445.351 643.23C445.232 643.615 445.032 643.953 444.75 644.244C444.468 644.533 444.12 644.758 443.706 644.92C443.291 645.08 442.826 645.159 442.309 645.159ZM450.338 648.023C449.771 648.023 449.284 647.95 448.876 647.804C448.469 647.661 448.129 647.473 447.857 647.237C447.589 647.005 447.375 646.757 447.216 646.491L448.15 645.835C448.256 645.974 448.391 646.134 448.553 646.312C448.715 646.495 448.938 646.652 449.219 646.785C449.504 646.921 449.877 646.989 450.338 646.989C450.954 646.989 451.463 646.839 451.864 646.541C452.265 646.243 452.466 645.776 452.466 645.139V643.588H452.366C452.28 643.727 452.157 643.9 451.998 644.105C451.843 644.307 451.617 644.488 451.322 644.647C451.031 644.803 450.636 644.881 450.139 644.881C449.523 644.881 448.969 644.735 448.479 644.443C447.991 644.152 447.605 643.727 447.32 643.17C447.038 642.614 446.898 641.937 446.898 641.142C446.898 640.36 447.035 639.679 447.31 639.099C447.585 638.515 447.968 638.065 448.459 637.746C448.949 637.425 449.516 637.264 450.159 637.264C450.656 637.264 451.05 637.347 451.342 637.513C451.637 637.675 451.863 637.861 452.018 638.07C452.177 638.275 452.3 638.444 452.386 638.577H452.506V637.364H453.639V645.219C453.639 645.875 453.49 646.409 453.192 646.82C452.897 647.234 452.499 647.537 451.998 647.729C451.501 647.925 450.948 648.023 450.338 648.023ZM450.298 643.827C450.769 643.827 451.166 643.719 451.491 643.504C451.816 643.288 452.063 642.978 452.232 642.574C452.401 642.17 452.486 641.686 452.486 641.122C452.486 640.572 452.403 640.086 452.237 639.665C452.071 639.245 451.826 638.915 451.501 638.676C451.176 638.437 450.775 638.318 450.298 638.318C449.801 638.318 449.387 638.444 449.055 638.696C448.727 638.948 448.48 639.286 448.314 639.71C448.152 640.134 448.071 640.605 448.071 641.122C448.071 641.652 448.154 642.121 448.319 642.529C448.488 642.933 448.737 643.252 449.065 643.484C449.397 643.712 449.808 643.827 450.298 643.827ZM456.542 647.864C456.344 647.864 456.166 647.847 456.01 647.814C455.855 647.784 455.747 647.754 455.687 647.724L455.986 646.69C456.271 646.763 456.523 646.79 456.741 646.77C456.96 646.75 457.154 646.652 457.323 646.477C457.495 646.304 457.653 646.024 457.795 645.636L458.014 645.04L455.19 637.364H456.463L458.571 643.449H458.65L460.758 637.364H462.031L458.79 646.114C458.644 646.508 458.463 646.835 458.248 647.093C458.032 647.355 457.782 647.549 457.497 647.675C457.215 647.801 456.897 647.864 456.542 647.864Z" fill="#212121"/>
<defs>
<filter id="filter0_f_537_663" x="-365.564" y="-62.364" width="1551.51" height="807.108" filterUnits="userSpaceOnUse" color-interpolation-filters="sRGB">
<feFlood flood-opacity="0" result="BackgroundImageFix"/>
<feBlend mode="normal" in="SourceGraphic" in2="BackgroundImageFix" result="shape"/>
<feGaussianBlur stdDeviation="38.2117" result="effect1_foregroundBlur_537_663"/>
</filter>
<filter id="filter1_f_537_663" x="-297.632" y="5.56785" width="1415.64" height="671.245" filterUnits="userSpaceOnUse" color-interpolation-filters="sRGB">
<feFlood flood-opacity="0" result="BackgroundImageFix"/>
<feBlend mode="normal" in="SourceGraphic" in2="BackgroundImageFix" result="shape"/>
<feGaussianBlur stdDeviation="4.24574" result="effect1_foregroundBlur_537_663"/>
</filter>
<radialGradient id="paint0_radial_537_663" cx="0" cy="0" r="1" gradientUnits="userSpaceOnUse" gradientTransform="translate(389.562 232.808) rotate(109.242) scale(622.001 596.526)">
<stop offset="0.0479167" stop-color="#2D68FF"/>
<stop offset="0.846416" stop-color="#47DEFF" stop-opacity="0"/>
</radialGradient>
<radialGradient id="paint1_radial_537_663" cx="0" cy="0" r="1" gradientUnits="userSpaceOnUse" gradientTransform="translate(471.416 -1.69215) rotate(109.242) scale(870.376 834.73)">
<stop offset="0.0479167" stop-color="#714DFF"/>
<stop offset="0.504878" stop-color="#9380FF" stop-opacity="0"/>
</radialGradient>
<linearGradient id="paint2_linear_537_663" x1="400.08" y1="255.585" x2="690.653" y2="329.114" gradientUnits="userSpaceOnUse">
<stop stop-color="#4C49ED"/>
<stop offset="1" stop-color="#0096FF"/>
</linearGradient>
</defs>
</svg>
