<svg width="23" height="24" viewBox="0 0 23 24" fill="none" xmlns="http://www.w3.org/2000/svg">
<path d="M18.8108 13.844C18.4405 13.296 18.1554 12.6961 17.9554 12.0444C17.7555 11.3927 17.6555 10.7114 17.6555 10.0005C17.6555 9.97087 17.6555 9.94495 17.6555 9.92273C17.6555 9.90051 17.6555 9.87459 17.6555 9.84497V9.86719V9.71167C17.6555 8.94149 17.5148 8.20833 17.2334 7.51221C16.952 6.83089 16.5706 6.22363 16.0892 5.69043C15.6079 5.15723 15.0339 4.7203 14.3674 4.37964C13.7157 4.03898 13.0122 3.83162 12.2568 3.75757L12.2346 3.73535V2.64673C12.2346 2.43937 12.1643 2.26904 12.0236 2.13574C11.8829 2.00244 11.7162 1.93579 11.5237 1.93579C11.3311 1.93579 11.1645 2.00244 11.0238 2.13574C10.8831 2.26904 10.8127 2.43937 10.8127 2.64673V3.77979C10.5313 3.80941 10.2573 3.86125 9.99072 3.9353C9.72412 4.00936 9.47233 4.09082 9.23535 4.17969H9.27979C8.21338 4.62402 7.34322 5.33126 6.66931 6.30139C5.9954 7.27153 5.65845 8.36385 5.65845 9.57837C5.65845 9.59318 5.65845 9.6154 5.65845 9.64502C5.65845 9.67464 5.65845 9.69686 5.65845 9.71167C5.65845 9.72648 5.65845 9.73759 5.65845 9.745C5.65845 9.7524 5.65845 9.76351 5.65845 9.77832C5.65845 10.5485 5.53996 11.2854 5.30298 11.9889C5.066 12.6924 4.73275 13.3256 4.30322 13.8884L3.68115 14.7549C3.50342 14.9771 3.37012 15.2251 3.28125 15.4991C3.19238 15.7732 3.14795 16.0583 3.14795 16.3545C3.14795 17.1099 3.41085 17.7542 3.93665 18.2874C4.46244 18.8206 5.10303 19.0872 5.8584 19.0872H8.99097V19.3982C9.06502 20.0203 9.34273 20.5424 9.8241 20.9645C10.3055 21.3866 10.872 21.5977 11.5237 21.5977C12.1606 21.5977 12.7197 21.3866 13.201 20.9645C13.6824 20.5424 13.9675 20.0277 14.0564 19.4204V19.3982V19.0872H17.189C17.9443 19.0723 18.5886 18.7946 19.1218 18.254C19.655 17.7134 19.9216 17.0654 19.9216 16.3101C19.9216 16.0286 19.8809 15.762 19.7994 15.5103C19.718 15.2585 19.6032 15.0215 19.4551 14.7993L18.8108 13.844ZM12.6345 19.2427C12.5901 19.5093 12.4642 19.7314 12.2568 19.9092C12.0495 20.0869 11.8051 20.1758 11.5237 20.1758C11.2423 20.1758 10.9979 20.0869 10.7905 19.9092C10.5832 19.7314 10.4573 19.5093 10.4128 19.2427V19.0872H12.6345V19.2427ZM17.189 17.6653H5.8584C5.50293 17.6653 5.1993 17.5394 4.94751 17.2876C4.69572 17.0358 4.56982 16.7248 4.56982 16.3545C4.56982 16.2064 4.59574 16.0694 4.64758 15.9435C4.69942 15.8176 4.76978 15.7028 4.85864 15.5991L5.50293 14.7327C5.9917 14.0514 6.37679 13.2923 6.6582 12.4554C6.93962 11.6186 7.08032 10.741 7.08032 9.82275C7.08032 9.79313 7.08032 9.76351 7.08032 9.73389C7.08032 9.70426 7.08032 9.66724 7.08032 9.6228V9.64502C7.08032 9.63021 7.08032 9.6191 7.08032 9.61169C7.08032 9.60429 7.08032 9.59318 7.08032 9.57837C7.08032 8.66008 7.33211 7.83805 7.83569 7.1123C8.33927 6.38656 8.98356 5.85335 9.76855 5.5127H9.79077C10.0722 5.39421 10.3721 5.30534 10.6906 5.24609C11.009 5.18685 11.3311 5.15723 11.657 5.15723C11.6718 5.15723 11.6792 5.15723 11.6792 5.15723C11.6792 5.15723 11.6866 5.15723 11.7014 5.15723C12.3235 5.15723 12.9085 5.27572 13.4565 5.5127C14.0194 5.74967 14.5044 6.07552 14.9117 6.49023C15.3191 6.90495 15.6412 7.38631 15.8782 7.93433C16.1152 8.48234 16.2336 9.07479 16.2336 9.71167V9.86719C16.2336 9.882 16.2336 9.90051 16.2336 9.92273C16.2336 9.94495 16.2336 9.96346 16.2336 9.97827C16.2336 10.8373 16.3595 11.663 16.6113 12.4554C16.8631 13.2478 17.2112 13.9699 17.6555 14.6216L17.6333 14.5994L18.2776 15.5547C18.3368 15.6584 18.385 15.7694 18.422 15.8879C18.459 16.0064 18.4775 16.1397 18.4775 16.2878C18.4775 16.2878 18.4775 16.2915 18.4775 16.299C18.4775 16.3064 18.4775 16.3101 18.4775 16.3101C18.4775 16.3249 18.4775 16.336 18.4775 16.3434C18.4775 16.3508 18.4775 16.3545 18.4775 16.3545C18.4775 16.7248 18.3516 17.0358 18.0999 17.2876C17.8481 17.5394 17.5444 17.6653 17.189 17.6653ZM3.43677 10.4448C3.6145 10.4152 3.76261 10.3374 3.8811 10.2115C3.99959 10.0857 4.05884 9.92643 4.05884 9.73389C4.05884 9.71908 4.05514 9.70426 4.04773 9.68945C4.04032 9.67464 4.03662 9.65983 4.03662 9.64502C4.02181 9.52653 4.007 9.39693 3.99219 9.25623C3.97738 9.11552 3.96997 8.97852 3.96997 8.84521C3.96997 8.07503 4.1366 7.35669 4.46985 6.69019C4.8031 6.02368 5.25114 5.46826 5.81396 5.02393C5.90283 4.94987 5.97319 4.86471 6.02502 4.76843C6.07686 4.67216 6.10278 4.56478 6.10278 4.44629C6.10278 4.37223 6.09167 4.30558 6.06946 4.24634C6.04724 4.18709 6.02132 4.12785 5.9917 4.0686C5.91764 3.97974 5.83248 3.90938 5.73621 3.85754C5.63993 3.8057 5.53255 3.77979 5.41406 3.77979C5.34001 3.77979 5.27336 3.79089 5.21411 3.81311C5.15487 3.83533 5.09562 3.86125 5.03638 3.89087C4.28101 4.48332 3.68115 5.21277 3.23682 6.07922C2.79248 6.94568 2.57031 7.88989 2.57031 8.91187C2.57031 9.07479 2.57772 9.23771 2.59253 9.40063C2.60734 9.56356 2.62215 9.72648 2.63696 9.8894V9.86719C2.66659 10.0301 2.74434 10.1708 2.87024 10.2893C2.99613 10.4078 3.14795 10.467 3.32568 10.467C3.32568 10.467 3.32939 10.467 3.33679 10.467C3.3442 10.467 3.3479 10.467 3.3479 10.467L3.43677 10.4448ZM18.011 3.84644C17.9517 3.802 17.8814 3.76127 17.7999 3.72424C17.7185 3.68722 17.6333 3.6687 17.5444 3.6687C17.3519 3.6687 17.1853 3.73905 17.0446 3.87976C16.9038 4.02047 16.8335 4.18709 16.8335 4.37964C16.8335 4.51294 16.8668 4.63513 16.9335 4.74622C17.0001 4.8573 17.0853 4.94246 17.189 5.00171C17.7518 5.46086 18.1998 6.02368 18.5331 6.69019C18.8663 7.35669 19.033 8.07503 19.033 8.84521C19.033 8.99333 19.0256 9.13403 19.0107 9.26733C18.9959 9.40063 18.9811 9.53394 18.9663 9.66724V9.64502C18.9663 9.65983 18.9626 9.67464 18.9552 9.68945C18.9478 9.70426 18.9441 9.71908 18.9441 9.73389C18.9441 9.92643 19.0033 10.0857 19.1218 10.2115C19.2403 10.3374 19.3884 10.4152 19.5662 10.4448H19.655C19.655 10.4448 19.6587 10.4448 19.6661 10.4448C19.6735 10.4448 19.6772 10.4448 19.6772 10.4448C19.855 10.4448 20.0068 10.3856 20.1327 10.2671C20.2586 10.1486 20.3363 10.0079 20.366 9.84497C20.3956 9.69686 20.4178 9.53764 20.4326 9.36731C20.4474 9.19698 20.4548 9.02295 20.4548 8.84521C20.4548 7.83805 20.2327 6.90125 19.7883 6.03479C19.344 5.16833 18.7515 4.44629 18.011 3.86865V3.84644Z" fill="#808290"/>
</svg>
