<svg width="23" height="23" viewBox="0 0 23 23" fill="none" xmlns="http://www.w3.org/2000/svg">
<path fill-rule="evenodd" clip-rule="evenodd" d="M10.223 3.32267C5.96352 3.77242 2.64453 7.37589 2.64453 11.7546C2.64453 16.4375 6.44078 20.2337 11.1237 20.2337C15.5024 20.2337 19.1058 16.9147 19.5556 12.6553C18.3394 14.1992 16.4519 15.1921 14.332 15.1921C10.6616 15.1921 7.6862 12.2166 7.6862 8.54622C7.6862 6.42632 8.67909 4.53883 10.223 3.32267ZM1.26953 11.7546C1.26953 6.31225 5.68139 1.90039 11.1237 1.90039C11.7806 1.90039 12.1095 2.42404 12.1658 2.84113C12.22 3.24237 12.0717 3.75266 11.6105 4.03134C10.0811 4.95546 9.0612 6.63206 9.0612 8.54622C9.0612 11.4572 11.421 13.8171 14.332 13.8171C16.2462 13.8171 17.9228 12.7971 18.8469 11.2678C19.1256 10.8066 19.6359 10.6583 20.0371 10.7125C20.4542 10.7688 20.9779 11.0976 20.9779 11.7546C20.9779 17.1969 16.566 21.6087 11.1237 21.6087C5.68139 21.6087 1.26953 17.1969 1.26953 11.7546Z" fill="#808290"/>
</svg>
