<svg width="200" height="200" viewBox="0 0 200 200" fill="none" xmlns="http://www.w3.org/2000/svg">
<path opacity="0.5" d="M183.333 114.583V96.2325C183.333 74.2961 183.333 63.3279 176.921 56.1985C176.331 55.5427 175.707 54.9186 175.051 54.3288C167.922 47.9166 156.954 47.9166 135.017 47.9166H131.904C122.289 47.9166 117.482 47.9166 113.003 46.6397C110.542 45.9383 108.17 44.9558 105.934 43.7118C101.864 41.4472 98.4648 38.0481 91.6666 31.2499L87.0812 26.6645C84.8027 24.386 83.6634 23.2467 82.4662 22.2542C77.3043 17.9752 70.9721 15.3523 64.2964 14.728C62.748 14.5833 61.1368 14.5833 57.9145 14.5833C50.5601 14.5833 46.8829 14.5833 43.8198 15.1612C30.3359 17.7053 19.7886 28.2525 17.2445 41.7365C16.6666 44.7995 16.6666 48.4767 16.6666 55.8311V114.583C16.6666 146.01 16.6666 161.724 26.4297 171.487C36.1928 181.25 51.9063 181.25 83.3333 181.25H116.667C148.094 181.25 163.807 181.25 173.57 171.487C183.333 161.724 183.333 146.01 183.333 114.583Z" fill="#D8DADC"/>
<path d="M100 91.6667C103.452 91.6667 106.25 94.465 106.25 97.9167V108.333H116.667C120.118 108.333 122.917 111.132 122.917 114.583C122.917 118.035 120.118 120.833 116.667 120.833H106.25V131.25C106.25 134.702 103.452 137.5 100 137.5C96.5483 137.5 93.75 134.702 93.75 131.25V120.833H83.3334C79.8816 120.833 77.0834 118.035 77.0834 114.583C77.0834 111.132 79.8816 108.333 83.3334 108.333H93.75V97.9167C93.75 94.465 96.5483 91.6667 100 91.6667Z" fill="#D8DADC"/>
</svg>
