<svg width="249" height="229" viewBox="0 0 249 229" fill="none" xmlns="http://www.w3.org/2000/svg">
<path d="M9.41326 214.151V224.333H8.22008L2.67179 216.339H2.57235V224.333H1.3394V214.151H2.53258L8.10076 222.165H8.2002V214.151H9.41326ZM14.8236 224.492C14.1342 224.492 13.5293 224.328 13.009 224C12.4919 223.672 12.0876 223.213 11.7959 222.623C11.5075 222.033 11.3634 221.343 11.3634 220.555C11.3634 219.759 11.5075 219.065 11.7959 218.472C12.0876 217.878 12.4919 217.418 13.009 217.089C13.5293 216.761 14.1342 216.597 14.8236 216.597C15.513 216.597 16.1162 216.761 16.6333 217.089C17.1536 217.418 17.558 217.878 17.8463 218.472C18.138 219.065 18.2838 219.759 18.2838 220.555C18.2838 221.343 18.138 222.033 17.8463 222.623C17.558 223.213 17.1536 223.672 16.6333 224C16.1162 224.328 15.513 224.492 14.8236 224.492ZM14.8236 223.438C15.3473 223.438 15.7781 223.304 16.1162 223.035C16.4543 222.767 16.7045 222.414 16.8669 221.976C17.0293 221.539 17.1105 221.065 17.1105 220.555C17.1105 220.044 17.0293 219.569 16.8669 219.128C16.7045 218.687 16.4543 218.331 16.1162 218.059C15.7781 217.787 15.3473 217.651 14.8236 217.651C14.2999 217.651 13.8691 217.787 13.531 218.059C13.1929 218.331 12.9427 218.687 12.7803 219.128C12.6179 219.569 12.5367 220.044 12.5367 220.555C12.5367 221.065 12.6179 221.539 12.7803 221.976C12.9427 222.414 13.1929 222.767 13.531 223.035C13.8691 223.304 14.2999 223.438 14.8236 223.438ZM24.1714 224.333V214.151H27.6118C28.4105 214.151 29.0635 214.295 29.5706 214.584C30.081 214.869 30.4588 215.255 30.7041 215.742C30.9494 216.229 31.072 216.773 31.072 217.373C31.072 217.973 30.9494 218.518 30.7041 219.008C30.4622 219.499 30.0876 219.89 29.5805 220.182C29.0734 220.47 28.4238 220.614 27.6317 220.614H25.1657V219.521H27.5919C28.1388 219.521 28.5779 219.426 28.9094 219.237C29.2408 219.048 29.4811 218.793 29.6302 218.472C29.7827 218.147 29.8589 217.78 29.8589 217.373C29.8589 216.965 29.7827 216.601 29.6302 216.279C29.4811 215.958 29.2391 215.706 28.9044 215.523C28.5696 215.338 28.1255 215.245 27.572 215.245H25.4044V224.333H24.1714ZM35.9193 224.492C35.2299 224.492 34.625 224.328 34.1047 224C33.5876 223.672 33.1833 223.213 32.8916 222.623C32.6032 222.033 32.4591 221.343 32.4591 220.555C32.4591 219.759 32.6032 219.065 32.8916 218.472C33.1833 217.878 33.5876 217.418 34.1047 217.089C34.625 216.761 35.2299 216.597 35.9193 216.597C36.6087 216.597 37.2119 216.761 37.729 217.089C38.2493 217.418 38.6537 217.878 38.942 218.472C39.2337 219.065 39.3795 219.759 39.3795 220.555C39.3795 221.343 39.2337 222.033 38.942 222.623C38.6537 223.213 38.2493 223.672 37.729 224C37.2119 224.328 36.6087 224.492 35.9193 224.492ZM35.9193 223.438C36.443 223.438 36.8738 223.304 37.2119 223.035C37.55 222.767 37.8002 222.414 37.9626 221.976C38.125 221.539 38.2062 221.065 38.2062 220.555C38.2062 220.044 38.125 219.569 37.9626 219.128C37.8002 218.687 37.55 218.331 37.2119 218.059C36.8738 217.787 36.443 217.651 35.9193 217.651C35.3956 217.651 34.9648 217.787 34.6267 218.059C34.2886 218.331 34.0384 218.687 33.876 219.128C33.7136 219.569 33.6324 220.044 33.6324 220.555C33.6324 221.065 33.7136 221.539 33.876 221.976C34.0384 222.414 34.2886 222.767 34.6267 223.035C34.9648 223.304 35.3956 223.438 35.9193 223.438ZM41.1705 224.333V216.697H42.3041V217.85H42.3836C42.5228 217.472 42.7747 217.166 43.1393 216.93C43.5039 216.695 43.9149 216.577 44.3722 216.577C44.4584 216.577 44.5661 216.579 44.6954 216.582C44.8247 216.586 44.9224 216.591 44.9887 216.597V217.79C44.949 217.78 44.8578 217.766 44.7153 217.746C44.5761 217.722 44.4286 217.711 44.2728 217.711C43.9016 217.711 43.5702 217.789 43.2785 217.945C42.9901 218.097 42.7615 218.309 42.5924 218.581C42.4267 218.849 42.3438 219.156 42.3438 219.501V224.333H41.1705ZM50.1791 216.697V217.691H46.2217V216.697H50.1791ZM47.3751 214.867H48.5484V222.146C48.5484 222.477 48.5964 222.726 48.6926 222.891C48.792 223.054 48.9179 223.163 49.0704 223.219C49.2262 223.272 49.3902 223.299 49.5626 223.299C49.6919 223.299 49.7979 223.292 49.8808 223.279C49.9636 223.262 50.0299 223.249 50.0796 223.239L50.3183 224.293C50.2387 224.323 50.1277 224.353 49.9852 224.383C49.8427 224.416 49.662 224.432 49.4433 224.432C49.1118 224.432 48.787 224.361 48.4688 224.219C48.154 224.076 47.8921 223.859 47.6833 223.567C47.4778 223.276 47.3751 222.908 47.3751 222.464V214.867ZM55.3445 216.697V217.691H51.2281V216.697H55.3445ZM52.461 224.333V215.643C52.461 215.205 52.5638 214.841 52.7693 214.549C52.9748 214.257 53.2416 214.038 53.5697 213.893C53.8978 213.747 54.2442 213.674 54.6088 213.674C54.8971 213.674 55.1324 213.697 55.3147 213.744C55.497 213.79 55.6329 213.833 55.7224 213.873L55.3843 214.887C55.3247 214.867 55.2418 214.842 55.1357 214.812C55.033 214.783 54.8971 214.768 54.7281 214.768C54.3403 214.768 54.0602 214.865 53.8879 215.061C53.7188 215.257 53.6343 215.543 53.6343 215.921V224.333H52.461ZM59.7767 224.492C59.0873 224.492 58.4825 224.328 57.9621 224C57.445 223.672 57.0407 223.213 56.749 222.623C56.4607 222.033 56.3165 221.343 56.3165 220.555C56.3165 219.759 56.4607 219.065 56.749 218.472C57.0407 217.878 57.445 217.418 57.9621 217.089C58.4825 216.761 59.0873 216.597 59.7767 216.597C60.4661 216.597 61.0693 216.761 61.5864 217.089C62.1067 217.418 62.5111 217.878 62.7994 218.472C63.0911 219.065 63.2369 219.759 63.2369 220.555C63.2369 221.343 63.0911 222.033 62.7994 222.623C62.5111 223.213 62.1067 223.672 61.5864 224C61.0693 224.328 60.4661 224.492 59.7767 224.492ZM59.7767 223.438C60.3004 223.438 60.7313 223.304 61.0693 223.035C61.4074 222.767 61.6576 222.414 61.82 221.976C61.9825 221.539 62.0637 221.065 62.0637 220.555C62.0637 220.044 61.9825 219.569 61.82 219.128C61.6576 218.687 61.4074 218.331 61.0693 218.059C60.7313 217.787 60.3004 217.651 59.7767 217.651C59.253 217.651 58.8222 217.787 58.4841 218.059C58.146 218.331 57.8958 218.687 57.7334 219.128C57.571 219.569 57.4898 220.044 57.4898 220.555C57.4898 221.065 57.571 221.539 57.7334 221.976C57.8958 222.414 58.146 222.767 58.4841 223.035C58.8222 223.304 59.253 223.438 59.7767 223.438ZM66.2013 214.151V224.333H65.028V214.151H66.2013ZM68.3502 224.333V216.697H69.5235V224.333H68.3502ZM68.9468 215.424C68.7181 215.424 68.5209 215.346 68.3552 215.19C68.1928 215.034 68.1116 214.847 68.1116 214.628C68.1116 214.41 68.1928 214.222 68.3552 214.067C68.5209 213.911 68.7181 213.833 68.9468 213.833C69.1755 213.833 69.3711 213.911 69.5335 214.067C69.6992 214.222 69.782 214.41 69.782 214.628C69.782 214.847 69.6992 215.034 69.5335 215.19C69.3711 215.346 69.1755 215.424 68.9468 215.424ZM74.7748 224.492C74.0854 224.492 73.4805 224.328 72.9601 224C72.4431 223.672 72.0387 223.213 71.7471 222.623C71.4587 222.033 71.3145 221.343 71.3145 220.555C71.3145 219.759 71.4587 219.065 71.7471 218.472C72.0387 217.878 72.4431 217.418 72.9601 217.089C73.4805 216.761 74.0854 216.597 74.7748 216.597C75.4642 216.597 76.0674 216.761 76.5844 217.089C77.1048 217.418 77.5091 217.878 77.7975 218.472C78.0892 219.065 78.235 219.759 78.235 220.555C78.235 221.343 78.0892 222.033 77.7975 222.623C77.5091 223.213 77.1048 223.672 76.5844 224C76.0674 224.328 75.4642 224.492 74.7748 224.492ZM74.7748 223.438C75.2984 223.438 75.7293 223.304 76.0674 223.035C76.4055 222.767 76.6557 222.414 76.8181 221.976C76.9805 221.539 77.0617 221.065 77.0617 220.555C77.0617 220.044 76.9805 219.569 76.8181 219.128C76.6557 218.687 76.4055 218.331 76.0674 218.059C75.7293 217.787 75.2984 217.651 74.7748 217.651C74.2511 217.651 73.8202 217.787 73.4822 218.059C73.1441 218.331 72.8939 218.687 72.7314 219.128C72.569 219.569 72.4878 220.044 72.4878 220.555C72.4878 221.065 72.569 221.539 72.7314 221.976C72.8939 222.414 73.1441 222.767 73.4822 223.035C73.8202 223.304 74.2511 223.438 74.7748 223.438ZM89.3726 218.407L88.3186 218.705C88.2523 218.53 88.1546 218.359 88.0253 218.193C87.8994 218.024 87.727 217.885 87.5083 217.775C87.2895 217.666 87.0094 217.611 86.6681 217.611C86.2007 217.611 85.8113 217.719 85.4997 217.935C85.1915 218.147 85.0374 218.417 85.0374 218.745C85.0374 219.037 85.1434 219.267 85.3556 219.436C85.5677 219.605 85.8991 219.746 86.3499 219.859L87.4834 220.137C88.1662 220.303 88.6749 220.556 89.0097 220.898C89.3444 221.236 89.5118 221.672 89.5118 222.205C89.5118 222.643 89.3859 223.034 89.134 223.378C88.8854 223.723 88.5374 223.995 88.0899 224.194C87.6425 224.393 87.1221 224.492 86.5289 224.492C85.75 224.492 85.1053 224.323 84.5949 223.985C84.0845 223.647 83.7613 223.153 83.6254 222.503L84.7391 222.225C84.8451 222.636 85.0457 222.944 85.3406 223.15C85.6389 223.355 86.0284 223.458 86.509 223.458C87.0558 223.458 87.49 223.342 87.8115 223.11C88.1363 222.875 88.2987 222.593 88.2987 222.265C88.2987 222 88.2059 221.778 88.0203 221.599C87.8347 221.416 87.5497 221.28 87.1652 221.191L85.8925 220.893C85.1932 220.727 84.6794 220.47 84.3513 220.122C84.0265 219.771 83.8641 219.332 83.8641 218.805C83.8641 218.374 83.9851 217.993 84.227 217.661C84.4723 217.33 84.8054 217.07 85.2263 216.881C85.6505 216.692 86.1311 216.597 86.6681 216.597C87.4237 216.597 88.017 216.763 88.4479 217.094C88.8821 217.426 89.1903 217.863 89.3726 218.407ZM96.0905 221.211V216.697H97.2638V224.333H96.0905V223.04H96.0109C95.8319 223.428 95.5535 223.758 95.1757 224.03C94.7979 224.298 94.3206 224.432 93.7439 224.432C93.2666 224.432 92.8424 224.328 92.4711 224.119C92.0999 223.907 91.8083 223.589 91.5961 223.165C91.384 222.737 91.278 222.199 91.278 221.549V216.697H92.4513V221.469C92.4513 222.026 92.607 222.47 92.9186 222.802C93.2335 223.133 93.6345 223.299 94.1217 223.299C94.4134 223.299 94.71 223.224 95.0116 223.075C95.3166 222.926 95.5718 222.697 95.7773 222.389C95.9861 222.081 96.0905 221.688 96.0905 221.211ZM99.4127 224.333V216.697H100.546V217.89H100.646C100.805 217.482 101.062 217.166 101.416 216.94C101.771 216.712 102.197 216.597 102.694 216.597C103.198 216.597 103.617 216.712 103.952 216.94C104.29 217.166 104.553 217.482 104.742 217.89H104.822C105.017 217.495 105.311 217.182 105.702 216.95C106.093 216.715 106.562 216.597 107.109 216.597C107.792 216.597 108.35 216.811 108.784 217.239C109.218 217.663 109.435 218.324 109.435 219.222V224.333H108.262V219.222C108.262 218.659 108.108 218.256 107.8 218.014C107.492 217.772 107.129 217.651 106.711 217.651C106.174 217.651 105.758 217.814 105.463 218.138C105.168 218.46 105.021 218.868 105.021 219.361V224.333H103.828V219.103C103.828 218.669 103.687 218.319 103.405 218.054C103.123 217.785 102.76 217.651 102.316 217.651C102.011 217.651 101.726 217.732 101.461 217.895C101.199 218.057 100.987 218.283 100.825 218.571C100.666 218.856 100.586 219.186 100.586 219.56V224.333H99.4127ZM111.581 224.333V216.697H112.714V217.89H112.814C112.973 217.482 113.23 217.166 113.584 216.94C113.939 216.712 114.365 216.597 114.862 216.597C115.366 216.597 115.785 216.712 116.12 216.94C116.458 217.166 116.721 217.482 116.91 217.89H116.99C117.185 217.495 117.479 217.182 117.87 216.95C118.261 216.715 118.73 216.597 119.277 216.597C119.959 216.597 120.518 216.811 120.952 217.239C121.386 217.663 121.603 218.324 121.603 219.222V224.333H120.43V219.222C120.43 218.659 120.276 218.256 119.968 218.014C119.66 217.772 119.297 217.651 118.879 217.651C118.342 217.651 117.926 217.814 117.631 218.138C117.336 218.46 117.189 218.868 117.189 219.361V224.333H115.995V219.103C115.995 218.669 115.855 218.319 115.573 218.054C115.291 217.785 114.928 217.651 114.484 217.651C114.179 217.651 113.894 217.732 113.629 217.895C113.367 218.057 113.155 218.283 112.993 218.571C112.834 218.856 112.754 219.186 112.754 219.56V224.333H111.581ZM125.996 224.512C125.512 224.512 125.073 224.421 124.678 224.239C124.284 224.053 123.971 223.786 123.739 223.438C123.507 223.087 123.391 222.663 123.391 222.165C123.391 221.728 123.477 221.373 123.649 221.101C123.822 220.826 124.052 220.611 124.34 220.455C124.629 220.299 124.947 220.183 125.295 220.107C125.646 220.028 125.999 219.965 126.354 219.918C126.818 219.859 127.194 219.814 127.482 219.784C127.774 219.751 127.986 219.696 128.119 219.62C128.255 219.544 128.323 219.411 128.323 219.222V219.182C128.323 218.692 128.188 218.311 127.92 218.039C127.655 217.767 127.252 217.631 126.712 217.631C126.152 217.631 125.712 217.754 125.394 217.999C125.076 218.244 124.852 218.506 124.723 218.785L123.609 218.387C123.808 217.923 124.073 217.562 124.405 217.303C124.74 217.041 125.104 216.859 125.499 216.756C125.896 216.65 126.287 216.597 126.672 216.597C126.917 216.597 127.199 216.627 127.517 216.687C127.839 216.743 128.149 216.861 128.447 217.04C128.748 217.219 128.999 217.489 129.198 217.85C129.396 218.211 129.496 218.695 129.496 219.302V224.333H128.323V223.299H128.263C128.183 223.465 128.051 223.642 127.865 223.831C127.68 224.02 127.433 224.181 127.124 224.313C126.816 224.446 126.44 224.512 125.996 224.512ZM126.175 223.458C126.639 223.458 127.03 223.367 127.348 223.185C127.67 223.002 127.912 222.767 128.074 222.479C128.24 222.19 128.323 221.887 128.323 221.569V220.495C128.273 220.555 128.163 220.609 127.994 220.659C127.829 220.705 127.636 220.747 127.418 220.783C127.202 220.816 126.992 220.846 126.786 220.873C126.584 220.896 126.42 220.916 126.294 220.932C125.989 220.972 125.704 221.037 125.439 221.126C125.177 221.213 124.965 221.343 124.803 221.519C124.644 221.691 124.564 221.927 124.564 222.225C124.564 222.633 124.715 222.941 125.016 223.15C125.321 223.355 125.707 223.458 126.175 223.458ZM131.637 224.333V216.697H132.771V217.85H132.85C132.99 217.472 133.242 217.166 133.606 216.93C133.971 216.695 134.382 216.577 134.839 216.577C134.925 216.577 135.033 216.579 135.162 216.582C135.291 216.586 135.389 216.591 135.456 216.597V217.79C135.416 217.78 135.325 217.766 135.182 217.746C135.043 217.722 134.895 217.711 134.74 217.711C134.368 217.711 134.037 217.789 133.745 217.945C133.457 218.097 133.228 218.309 133.059 218.581C132.893 218.849 132.811 219.156 132.811 219.501V224.333H131.637ZM137.834 227.197C137.636 227.197 137.458 227.18 137.302 227.147C137.147 227.117 137.039 227.087 136.979 227.057L137.278 226.023C137.563 226.096 137.815 226.123 138.033 226.103C138.252 226.083 138.446 225.985 138.615 225.81C138.787 225.637 138.945 225.357 139.087 224.969L139.306 224.373L136.482 216.697H137.755L139.863 222.782H139.942L142.05 216.697H143.323L140.082 225.447C139.936 225.841 139.755 226.168 139.54 226.426C139.324 226.688 139.074 226.882 138.789 227.008C138.507 227.134 138.189 227.197 137.834 227.197ZM145.248 224.413C145.003 224.413 144.793 224.325 144.617 224.149C144.441 223.973 144.353 223.763 144.353 223.518C144.353 223.272 144.441 223.062 144.617 222.886C144.793 222.711 145.003 222.623 145.248 222.623C145.494 222.623 145.704 222.711 145.88 222.886C146.055 223.062 146.143 223.272 146.143 223.518C146.143 223.68 146.102 223.829 146.019 223.965C145.939 224.101 145.832 224.21 145.696 224.293C145.563 224.373 145.414 224.413 145.248 224.413ZM160.538 217.333H159.305C159.233 216.978 159.105 216.667 158.923 216.398C158.744 216.13 158.525 215.905 158.266 215.722C158.011 215.537 157.728 215.397 157.416 215.305C157.105 215.212 156.78 215.165 156.442 215.165C155.825 215.165 155.267 215.321 154.766 215.633C154.269 215.944 153.873 216.403 153.578 217.01C153.287 217.616 153.141 218.36 153.141 219.242C153.141 220.124 153.287 220.868 153.578 221.474C153.873 222.081 154.269 222.54 154.766 222.851C155.267 223.163 155.825 223.319 156.442 223.319C156.78 223.319 157.105 223.272 157.416 223.18C157.728 223.087 158.011 222.949 158.266 222.767C158.525 222.581 158.744 222.354 158.923 222.086C159.105 221.814 159.233 221.503 159.305 221.151H160.538C160.446 221.672 160.277 222.137 160.031 222.548C159.786 222.959 159.481 223.309 159.117 223.597C158.752 223.882 158.343 224.099 157.889 224.248C157.438 224.398 156.956 224.472 156.442 224.472C155.573 224.472 154.801 224.26 154.125 223.836C153.449 223.412 152.917 222.808 152.529 222.026C152.141 221.244 151.948 220.316 151.948 219.242C151.948 218.168 152.141 217.24 152.529 216.458C152.917 215.676 153.449 215.073 154.125 214.648C154.801 214.224 155.573 214.012 156.442 214.012C156.956 214.012 157.438 214.087 157.889 214.236C158.343 214.385 158.752 214.604 159.117 214.892C159.481 215.177 159.786 215.525 160.031 215.936C160.277 216.344 160.446 216.809 160.538 217.333ZM162.372 224.333V216.697H163.505V217.85H163.585C163.724 217.472 163.976 217.166 164.34 216.93C164.705 216.695 165.116 216.577 165.573 216.577C165.66 216.577 165.767 216.579 165.897 216.582C166.026 216.586 166.124 216.591 166.19 216.597V217.79C166.15 217.78 166.059 217.766 165.916 217.746C165.777 217.722 165.63 217.711 165.474 217.711C165.103 217.711 164.771 217.789 164.48 217.945C164.191 218.097 163.963 218.309 163.794 218.581C163.628 218.849 163.545 219.156 163.545 219.501V224.333H162.372ZM170.55 224.492C169.814 224.492 169.179 224.33 168.646 224.005C168.116 223.677 167.706 223.219 167.418 222.633C167.133 222.043 166.99 221.357 166.99 220.574C166.99 219.792 167.133 219.103 167.418 218.506C167.706 217.906 168.107 217.439 168.621 217.104C169.138 216.766 169.741 216.597 170.431 216.597C170.828 216.597 171.221 216.664 171.609 216.796C171.997 216.929 172.35 217.144 172.668 217.442C172.986 217.737 173.24 218.128 173.429 218.616C173.617 219.103 173.712 219.703 173.712 220.415V220.913H167.826V219.898H172.519C172.519 219.467 172.433 219.083 172.26 218.745C172.091 218.407 171.849 218.14 171.534 217.945C171.223 217.749 170.855 217.651 170.431 217.651C169.963 217.651 169.559 217.767 169.218 217.999C168.88 218.228 168.619 218.526 168.437 218.894C168.255 219.262 168.164 219.656 168.164 220.077V220.753C168.164 221.33 168.263 221.819 168.462 222.22C168.664 222.618 168.944 222.921 169.302 223.13C169.66 223.335 170.076 223.438 170.55 223.438C170.858 223.438 171.137 223.395 171.385 223.309C171.637 223.219 171.854 223.087 172.036 222.911C172.219 222.732 172.36 222.51 172.459 222.245L173.593 222.563C173.473 222.948 173.273 223.286 172.991 223.577C172.709 223.866 172.361 224.091 171.947 224.253C171.533 224.413 171.067 224.492 170.55 224.492ZM177.744 224.512C177.26 224.512 176.821 224.421 176.426 224.239C176.032 224.053 175.719 223.786 175.487 223.438C175.255 223.087 175.139 222.663 175.139 222.165C175.139 221.728 175.225 221.373 175.397 221.101C175.57 220.826 175.8 220.611 176.088 220.455C176.377 220.299 176.695 220.183 177.043 220.107C177.394 220.028 177.747 219.965 178.102 219.918C178.566 219.859 178.942 219.814 179.23 219.784C179.522 219.751 179.734 219.696 179.867 219.62C180.003 219.544 180.071 219.411 180.071 219.222V219.182C180.071 218.692 179.936 218.311 179.668 218.039C179.403 217.767 179 217.631 178.46 217.631C177.9 217.631 177.46 217.754 177.142 217.999C176.824 218.244 176.6 218.506 176.471 218.785L175.358 218.387C175.556 217.923 175.822 217.562 176.153 217.303C176.488 217.041 176.852 216.859 177.247 216.756C177.644 216.65 178.036 216.597 178.42 216.597C178.665 216.597 178.947 216.627 179.265 216.687C179.587 216.743 179.897 216.861 180.195 217.04C180.496 217.219 180.747 217.489 180.946 217.85C181.144 218.211 181.244 218.695 181.244 219.302V224.333H180.071V223.299H180.011C179.931 223.465 179.799 223.642 179.613 223.831C179.428 224.02 179.181 224.181 178.872 224.313C178.564 224.446 178.188 224.512 177.744 224.512ZM177.923 223.458C178.387 223.458 178.778 223.367 179.096 223.185C179.418 223.002 179.66 222.767 179.822 222.479C179.988 222.19 180.071 221.887 180.071 221.569V220.495C180.021 220.555 179.911 220.609 179.742 220.659C179.577 220.705 179.384 220.747 179.166 220.783C178.95 220.816 178.74 220.846 178.534 220.873C178.332 220.896 178.168 220.916 178.042 220.932C177.737 220.972 177.452 221.037 177.187 221.126C176.925 221.213 176.713 221.343 176.551 221.519C176.392 221.691 176.312 221.927 176.312 222.225C176.312 222.633 176.463 222.941 176.764 223.15C177.069 223.355 177.456 223.458 177.923 223.458ZM186.706 216.697V217.691H182.749V216.697H186.706ZM183.902 214.867H185.076V222.146C185.076 222.477 185.124 222.726 185.22 222.891C185.319 223.054 185.445 223.163 185.598 223.219C185.754 223.272 185.918 223.299 186.09 223.299C186.219 223.299 186.325 223.292 186.408 223.279C186.491 223.262 186.557 223.249 186.607 223.239L186.846 224.293C186.766 224.323 186.655 224.353 186.513 224.383C186.37 224.416 186.189 224.432 185.971 224.432C185.639 224.432 185.314 224.361 184.996 224.219C184.681 224.076 184.419 223.859 184.211 223.567C184.005 223.276 183.902 222.908 183.902 222.464V214.867ZM191.591 224.492C190.855 224.492 190.22 224.33 189.687 224.005C189.157 223.677 188.747 223.219 188.459 222.633C188.174 222.043 188.031 221.357 188.031 220.574C188.031 219.792 188.174 219.103 188.459 218.506C188.747 217.906 189.148 217.439 189.662 217.104C190.179 216.766 190.782 216.597 191.472 216.597C191.869 216.597 192.262 216.664 192.65 216.796C193.038 216.929 193.391 217.144 193.709 217.442C194.027 217.737 194.281 218.128 194.47 218.616C194.658 219.103 194.753 219.703 194.753 220.415V220.913H188.867V219.898H193.56C193.56 219.467 193.474 219.083 193.301 218.745C193.132 218.407 192.89 218.14 192.575 217.945C192.264 217.749 191.896 217.651 191.472 217.651C191.004 217.651 190.6 217.767 190.259 217.999C189.921 218.228 189.66 218.526 189.478 218.894C189.296 219.262 189.205 219.656 189.205 220.077V220.753C189.205 221.33 189.304 221.819 189.503 222.22C189.705 222.618 189.985 222.921 190.343 223.13C190.701 223.335 191.117 223.438 191.591 223.438C191.899 223.438 192.178 223.395 192.426 223.309C192.678 223.219 192.895 223.087 193.078 222.911C193.26 222.732 193.401 222.51 193.5 222.245L194.634 222.563C194.514 222.948 194.314 223.286 194.032 223.577C193.75 223.866 193.402 224.091 192.988 224.253C192.574 224.413 192.108 224.492 191.591 224.492ZM200.634 224.333V214.151H204.194C204.903 214.151 205.488 214.274 205.949 214.519C206.41 214.761 206.753 215.088 206.978 215.498C207.203 215.906 207.316 216.359 207.316 216.856C207.316 217.293 207.238 217.655 207.082 217.94C206.93 218.225 206.728 218.45 206.476 218.616C206.227 218.781 205.957 218.904 205.666 218.984V219.083C205.977 219.103 206.29 219.212 206.605 219.411C206.92 219.61 207.184 219.895 207.396 220.266C207.608 220.637 207.714 221.092 207.714 221.628C207.714 222.139 207.598 222.598 207.366 223.006C207.134 223.413 206.768 223.736 206.267 223.975C205.767 224.214 205.115 224.333 204.313 224.333H200.634ZM201.867 223.239H204.313C205.119 223.239 205.69 223.083 206.028 222.772C206.37 222.457 206.541 222.076 206.541 221.628C206.541 221.284 206.453 220.966 206.277 220.674C206.101 220.379 205.851 220.144 205.526 219.968C205.202 219.789 204.817 219.699 204.373 219.699H201.867V223.239ZM201.867 218.626H204.154C204.525 218.626 204.86 218.553 205.158 218.407C205.46 218.261 205.699 218.056 205.874 217.79C206.053 217.525 206.143 217.214 206.143 216.856C206.143 216.408 205.987 216.029 205.676 215.717C205.364 215.402 204.87 215.245 204.194 215.245H201.867V218.626ZM214.393 221.211V216.697H215.566V224.333H214.393V223.04H214.314C214.135 223.428 213.856 223.758 213.478 224.03C213.101 224.298 212.623 224.432 212.047 224.432C211.569 224.432 211.145 224.328 210.774 224.119C210.403 223.907 210.111 223.589 209.899 223.165C209.687 222.737 209.581 222.199 209.581 221.549V216.697H210.754V221.469C210.754 222.026 210.91 222.47 211.221 222.802C211.536 223.133 211.937 223.299 212.424 223.299C212.716 223.299 213.013 223.224 213.314 223.075C213.619 222.926 213.874 222.697 214.08 222.389C214.289 222.081 214.393 221.688 214.393 221.211ZM220.818 224.492C220.102 224.492 219.485 224.323 218.968 223.985C218.451 223.647 218.054 223.181 217.775 222.588C217.497 221.995 217.358 221.317 217.358 220.555C217.358 219.779 217.5 219.095 217.785 218.501C218.073 217.905 218.474 217.439 218.988 217.104C219.505 216.766 220.108 216.597 220.798 216.597C221.335 216.597 221.819 216.697 222.25 216.896C222.68 217.094 223.033 217.373 223.309 217.731C223.584 218.089 223.754 218.506 223.821 218.984H222.647C222.558 218.636 222.359 218.327 222.051 218.059C221.746 217.787 221.335 217.651 220.818 217.651C220.36 217.651 219.959 217.771 219.615 218.009C219.273 218.244 219.006 218.578 218.814 219.008C218.625 219.436 218.531 219.938 218.531 220.515C218.531 221.105 218.624 221.619 218.809 222.056C218.998 222.494 219.263 222.833 219.605 223.075C219.949 223.317 220.354 223.438 220.818 223.438C221.123 223.438 221.399 223.385 221.648 223.279C221.897 223.173 222.107 223.021 222.279 222.822C222.452 222.623 222.574 222.384 222.647 222.106H223.821C223.754 222.556 223.59 222.963 223.328 223.324C223.07 223.682 222.727 223.967 222.299 224.179C221.875 224.388 221.381 224.492 220.818 224.492ZM226.63 221.549L226.61 220.097H226.848L230.189 216.697H231.641L228.081 220.296H227.982L226.63 221.549ZM225.536 224.333V214.151H226.709V224.333H225.536ZM230.388 224.333L227.405 220.555L228.24 219.739L231.88 224.333H230.388ZM236.038 224.492C235.302 224.492 234.668 224.33 234.134 224.005C233.604 223.677 233.195 223.219 232.906 222.633C232.621 222.043 232.479 221.357 232.479 220.574C232.479 219.792 232.621 219.103 232.906 218.506C233.195 217.906 233.596 217.439 234.109 217.104C234.626 216.766 235.23 216.597 235.919 216.597C236.317 216.597 236.709 216.664 237.097 216.796C237.485 216.929 237.838 217.144 238.156 217.442C238.474 217.737 238.728 218.128 238.917 218.616C239.106 219.103 239.2 219.703 239.2 220.415V220.913H233.314V219.898H238.007C238.007 219.467 237.921 219.083 237.748 218.745C237.579 218.407 237.338 218.14 237.023 217.945C236.711 217.749 236.343 217.651 235.919 217.651C235.452 217.651 235.047 217.767 234.706 217.999C234.368 218.228 234.108 218.526 233.925 218.894C233.743 219.262 233.652 219.656 233.652 220.077V220.753C233.652 221.33 233.751 221.819 233.95 222.22C234.152 222.618 234.432 222.921 234.79 223.13C235.148 223.335 235.564 223.438 236.038 223.438C236.347 223.438 236.625 223.395 236.873 223.309C237.125 223.219 237.342 223.087 237.525 222.911C237.707 222.732 237.848 222.51 237.947 222.245L239.081 222.563C238.962 222.948 238.761 223.286 238.479 223.577C238.198 223.866 237.85 224.091 237.435 224.253C237.021 224.413 236.555 224.492 236.038 224.492ZM244.306 216.697V217.691H240.349V216.697H244.306ZM241.502 214.867H242.675V222.146C242.675 222.477 242.723 222.726 242.82 222.891C242.919 223.054 243.045 223.163 243.197 223.219C243.353 223.272 243.517 223.299 243.69 223.299C243.819 223.299 243.925 223.292 244.008 223.279C244.091 223.262 244.157 223.249 244.207 223.239L244.445 224.293C244.366 224.323 244.255 224.353 244.112 224.383C243.97 224.416 243.789 224.432 243.57 224.432C243.239 224.432 242.914 224.361 242.596 224.219C242.281 224.076 242.019 223.859 241.81 223.567C241.605 223.276 241.502 222.908 241.502 222.464V214.867ZM247.622 214.151L247.523 221.469H246.369L246.27 214.151H247.622ZM246.946 224.413C246.701 224.413 246.49 224.325 246.315 224.149C246.139 223.973 246.051 223.763 246.051 223.518C246.051 223.272 246.139 223.062 246.315 222.886C246.49 222.711 246.701 222.623 246.946 222.623C247.191 222.623 247.402 222.711 247.577 222.886C247.753 223.062 247.841 223.272 247.841 223.518C247.841 223.68 247.799 223.829 247.717 223.965C247.637 224.101 247.529 224.21 247.393 224.293C247.261 224.373 247.112 224.413 246.946 224.413Z" fill="#636674"/>
<path opacity="0.5" d="M40.6665 166.667C40.6665 163.215 43.4647 160.417 46.9165 160.417H107.333H117.75V150V125H130.25V150V160.417H140.667H201.083C204.535 160.417 207.333 163.215 207.333 166.667C207.333 170.118 204.535 172.917 201.083 172.917H140.667H107.333H46.9165C43.4647 172.917 40.6665 170.118 40.6665 166.667Z" fill="#E4E9EB"/>
<path fill-rule="evenodd" clip-rule="evenodd" d="M182.333 81.6667V69.7387C182.333 55.4801 182.333 48.3507 177.845 43.7167C177.432 43.2904 176.995 42.8847 176.536 42.5014C171.545 38.3334 163.868 38.3334 148.512 38.3334H146.332C139.602 38.3334 136.238 38.3334 133.102 37.5035C131.379 37.0475 129.719 36.4089 128.154 35.6003C125.305 34.1283 122.925 31.9189 118.167 27.5001L114.957 24.5195C113.362 23.0385 112.564 22.298 111.726 21.6529C108.113 18.8715 103.68 17.1666 99.0073 16.7609C97.9235 16.6667 96.7956 16.6667 94.54 16.6667C89.3919 16.6667 86.8179 16.6667 84.6738 17.0424C75.235 18.696 67.8519 25.5518 66.071 34.3163C65.6665 36.3073 65.6665 38.6975 65.6665 43.4779V81.6667C65.6665 102.094 65.6665 112.308 72.5007 118.654C79.3349 125 90.3343 125 112.333 125H117.75H130.25H135.666C157.665 125 168.665 125 175.499 118.654C182.333 112.308 182.333 102.094 182.333 81.6667ZM136.5 56.2501C133.048 56.2501 130.25 59.0483 130.25 62.5001C130.25 65.9519 133.048 68.7501 136.5 68.7501H161.5C164.952 68.7501 167.75 65.9519 167.75 62.5001C167.75 59.0483 164.952 56.2501 161.5 56.2501H136.5Z" fill="#E4E9EB"/>
<circle cx="124" cy="166.667" r="16.6667" fill="#E4E9EB"/>
</svg>
