<svg width="34" height="34" viewBox="0 0 34 34" fill="none" xmlns="http://www.w3.org/2000/svg">
<path fill-rule="evenodd" clip-rule="evenodd" d="M17 1.77084C16.1433 1.77084 15.3545 1.98375 14.4908 2.34094C13.6568 2.68585 12.6882 3.19418 11.482 3.82717L8.553 5.36423C7.07263 6.14108 5.88793 6.76277 4.97321 7.37364C4.02555 8.0065 3.29566 8.67286 2.76413 9.57551C2.23438 10.4751 1.99606 11.4493 1.88178 12.6094C1.77085 13.7354 1.77086 15.1203 1.77087 16.862V17.138C1.77086 18.8797 1.77085 20.2646 1.88178 21.3907C1.99606 22.5507 2.23438 23.5249 2.76413 24.4245C3.29566 25.3272 4.02555 25.9935 4.97321 26.6264C5.88789 27.2372 7.07251 27.8589 8.55278 28.6357L11.4819 30.1728C12.6881 30.8058 13.6568 31.3142 14.4908 31.6591C15.3545 32.0163 16.1433 32.2292 17 32.2292C17.8567 32.2292 18.6456 32.0163 19.5093 31.6591C20.3433 31.3142 21.3119 30.8058 22.5181 30.1729L25.447 28.6358C26.9274 27.859 28.1121 27.2373 29.0269 26.6264C29.9745 25.9935 30.7044 25.3272 31.236 24.4245C31.7657 23.5249 32.004 22.5507 32.1183 21.3907C32.2292 20.2646 32.2292 18.8797 32.2292 17.1381V16.862C32.2292 15.1203 32.2292 13.7354 32.1183 12.6094C32.004 11.4493 31.7657 10.4751 31.236 9.57551C30.7044 8.67286 29.9745 8.0065 29.0269 7.37364C28.1121 6.76276 26.9274 6.14108 25.4471 5.36422L22.5181 3.82719C21.3119 3.19419 20.3433 2.68585 19.5093 2.34094C18.6456 1.98375 17.8567 1.77084 17 1.77084ZM12.4253 5.73195C13.6858 5.07051 14.569 4.60814 15.3029 4.30464C16.0172 4.00924 16.519 3.89584 17 3.89584C17.4811 3.89584 17.9829 4.00924 18.6972 4.30464C19.431 4.60814 20.3143 5.07051 21.5747 5.73195L24.4081 7.21882C25.9518 8.02893 27.0364 8.59964 27.8467 9.1408C28.2465 9.40779 28.5607 9.6557 28.8143 9.90497L17 15.8121L5.1858 9.90498C5.43942 9.6557 5.75357 9.40779 6.15336 9.1408C6.96371 8.59963 8.04828 8.02893 9.59201 7.21882L12.4253 5.73195ZM4.16176 11.7688C4.09021 12.0718 4.03613 12.4159 3.99655 12.8177C3.89707 13.8275 3.89588 15.1079 3.89588 16.9172V17.0829C3.89588 18.8921 3.89707 20.1725 3.99655 21.1823C4.09384 22.17 4.27868 22.8087 4.59524 23.3462C4.91003 23.8808 5.36534 24.333 6.15336 24.8592C6.96371 25.4004 8.04828 25.9711 9.59201 26.7812L12.4253 28.2681C13.6858 28.9295 14.569 29.3919 15.3029 29.6954C15.5346 29.7912 15.744 29.8679 15.9375 29.9278V17.6567L4.16176 11.7688ZM18.0625 29.9278C18.2561 29.8679 18.4654 29.7912 18.6972 29.6954C19.431 29.3919 20.3143 28.9295 21.5747 28.2681L24.4081 26.7812C25.9518 25.9711 27.0364 25.4004 27.8467 24.8592C28.6347 24.333 29.0901 23.8808 29.4048 23.3462C29.7214 22.8087 29.9062 22.17 30.0035 21.1823C30.103 20.1725 30.1042 18.8921 30.1042 17.0829V16.9172C30.1042 15.1079 30.103 13.8275 30.0035 12.8177C29.9639 12.4159 29.9099 12.0718 29.8383 11.7688L18.0625 17.6567V29.9278Z" fill="#1C274C"/>
</svg>
