<svg width="121" height="120" viewBox="0 0 121 120" fill="none" xmlns="http://www.w3.org/2000/svg">
<circle cx="60.5" cy="60" r="60" fill="#E42855" fill-opacity="0.12"/>
<path fill-rule="evenodd" clip-rule="evenodd" d="M60.2847 88.5708C76.0639 88.5708 88.8555 75.7792 88.8555 60C88.8555 44.2207 76.0639 31.4291 60.2847 31.4291C44.5055 31.4291 31.7139 44.2207 31.7139 60C31.7139 75.7792 44.5055 88.5708 60.2847 88.5708ZM68.8559 60C70.4339 60 71.713 58.0812 71.713 55.7143C71.713 53.3475 70.4339 51.4287 68.8559 51.4287C67.278 51.4287 65.9989 53.3475 65.9989 55.7143C65.9989 58.0812 67.278 60 68.8559 60ZM54.5705 55.7143C54.5705 58.0812 53.2914 60 51.7135 60C50.1355 60 48.8564 58.0812 48.8564 55.7143C48.8564 53.3475 50.1355 51.4287 51.7135 51.4287C53.2914 51.4287 54.5705 53.3475 54.5705 55.7143ZM49.992 75.5614C50.6967 76.5121 52.0387 76.7116 52.9895 76.0069C55.0704 74.4644 57.5822 73.5711 60.2847 73.5711C62.9872 73.5711 65.499 74.4644 67.5799 76.0069C68.5307 76.7116 69.8727 76.5121 70.5774 75.5614C71.2821 74.6107 71.0827 73.2686 70.132 72.5639C67.3537 70.5046 63.956 69.2855 60.2847 69.2855C56.6134 69.2855 53.2157 70.5046 50.4374 72.5639C49.4867 73.2686 49.2873 74.6107 49.992 75.5614Z" fill="#E42855"/>
</svg>
