<svg width="18" height="18" viewBox="0 0 18 18" fill="none" xmlns="http://www.w3.org/2000/svg">
<g clip-path="url(#clip0_420_1057)">
<path d="M9.39775 7.85225C9.29226 7.74676 9.14918 7.6875 9 7.6875C8.85082 7.6875 8.70774 7.74676 8.60225 7.85225L6.72725 9.72725C6.50758 9.94692 6.50758 10.3031 6.72725 10.5227C6.94692 10.7424 7.30308 10.7424 7.52275 10.5227L8.4375 9.608V12.75C8.4375 13.0607 8.68934 13.3125 9 13.3125C9.31066 13.3125 9.5625 13.0607 9.5625 12.75V9.608L10.4773 10.5227C10.6969 10.7424 11.0531 10.7424 11.2727 10.5227C11.4924 10.3031 11.4924 9.94692 11.2727 9.72725L9.39775 7.85225Z" fill="#0096FF"/>
<path fill-rule="evenodd" clip-rule="evenodd" d="M9.04303 0.9375H8.95697C7.22567 0.937491 5.86889 0.937483 4.81028 1.07981C3.72673 1.22549 2.87171 1.5295 2.2006 2.2006C1.5295 2.87171 1.22549 3.72673 1.07981 4.81028C0.937483 5.86889 0.937491 7.22567 0.9375 8.95696V9H0.945694C0.937497 9.43413 0.937499 9.92244 0.9375 10.4748V10.5252C0.937497 11.554 0.937494 12.3605 0.990459 13.0088C1.04439 13.6689 1.15603 14.2142 1.40753 14.7078C1.82099 15.5193 2.48072 16.179 3.29217 16.5925C3.78576 16.844 4.3311 16.9556 4.9912 17.0095C5.63945 17.0625 6.44601 17.0625 7.47478 17.0625H10.5252C11.5539 17.0625 12.3605 17.0625 13.0088 17.0095C13.6689 16.9556 14.2142 16.844 14.7078 16.5925C15.5193 16.179 16.179 15.5193 16.5925 14.7078C16.844 14.2142 16.9556 13.6689 17.0095 13.0088C17.0625 12.3605 17.0625 11.554 17.0625 10.5252V10.4748C17.0625 9.92269 17.0625 9.43399 17.0543 9H17.0625V8.95697C17.0625 7.22567 17.0625 5.8689 16.9202 4.81028C16.7745 3.72673 16.4705 2.87171 15.7994 2.2006C15.1283 1.5295 14.2733 1.22549 13.1897 1.07981C12.1311 0.937483 10.7743 0.937491 9.04303 0.9375ZM3.29217 4.40754C2.8697 4.62279 2.48835 4.90481 2.16148 5.24023C2.17153 5.14413 2.18259 5.05083 2.19478 4.96018C2.32369 4.00138 2.56886 3.42334 2.9961 2.9961C3.42334 2.56886 4.00138 2.32369 4.96018 2.19478C5.93517 2.0637 7.21633 2.0625 9 2.0625C10.7837 2.0625 12.0648 2.0637 13.0398 2.19478C13.9986 2.32369 14.5767 2.56886 15.0039 2.9961C15.4311 3.42334 15.6763 4.00138 15.8052 4.96018C15.8174 5.05083 15.8285 5.14413 15.8385 5.24024C15.5116 4.90481 15.1303 4.62279 14.7078 4.40754C14.2142 4.15603 13.6689 4.04439 13.0088 3.99046C12.3605 3.93749 11.554 3.9375 10.5252 3.9375H7.47484C6.44604 3.9375 5.63947 3.93749 4.9912 3.99046C4.3311 4.04439 3.78576 4.15603 3.29217 4.40754ZM3.80291 5.40992C4.11148 5.25269 4.49228 5.15997 5.08281 5.11172C5.67991 5.06294 6.44062 5.0625 7.5 5.0625H10.5C11.5594 5.0625 12.3201 5.06294 12.9172 5.11172C13.5077 5.15997 13.8885 5.25269 14.1971 5.40992C14.7969 5.71551 15.2845 6.20314 15.5901 6.80291C15.7473 7.11148 15.84 7.49228 15.8883 8.08281C15.9371 8.67991 15.9375 9.44062 15.9375 10.5C15.9375 11.5594 15.9371 12.3201 15.8883 12.9172C15.84 13.5077 15.7473 13.8885 15.5901 14.1971C15.2845 14.7969 14.7969 15.2845 14.1971 15.5901C13.8885 15.7473 13.5077 15.84 12.9172 15.8883C12.3201 15.9371 11.5594 15.9375 10.5 15.9375H7.5C6.44062 15.9375 5.67991 15.9371 5.08281 15.8883C4.49228 15.84 4.11148 15.7473 3.80291 15.5901C3.20314 15.2845 2.71551 14.7969 2.40992 14.1971C2.25269 13.8885 2.15997 13.5077 2.11172 12.9172C2.06294 12.3201 2.0625 11.5594 2.0625 10.5C2.0625 9.44062 2.06294 8.67991 2.11172 8.08281C2.15997 7.49228 2.25269 7.11148 2.40992 6.80291C2.71551 6.20314 3.20314 5.71551 3.80291 5.40992Z" fill="#0096FF"/>
</g>
<defs>
<clipPath id="clip0_420_1057">
<rect width="18" height="18" rx="3.75" fill="white"/>
</clipPath>
</defs>
</svg>
