<svg width="18" height="18" viewBox="0 0 18 18" fill="none" xmlns="http://www.w3.org/2000/svg">
<path fill-rule="evenodd" clip-rule="evenodd" d="M2.59835 2.59835C1.5 3.6967 1.5 5.46447 1.5 9C1.5 12.5355 1.5 14.3033 2.59835 15.4017C3.6967 16.5 5.46447 16.5 9 16.5C12.5355 16.5 14.3033 16.5 15.4017 15.4017C16.5 14.3033 16.5 12.5355 16.5 9C16.5 5.46447 16.5 3.6967 15.4017 2.59835C14.3033 1.5 12.5355 1.5 9 1.5C5.46447 1.5 3.6967 1.5 2.59835 2.59835ZM9 5.4375C9.31066 5.4375 9.5625 5.68934 9.5625 6V10.642L10.8523 9.35225C11.0719 9.13258 11.4281 9.13258 11.6477 9.35225C11.8674 9.57192 11.8674 9.92808 11.6477 10.1477L9.39775 12.3977C9.29226 12.5032 9.14918 12.5625 9 12.5625C8.85082 12.5625 8.70774 12.5032 8.60225 12.3977L6.35225 10.1477C6.13258 9.92808 6.13258 9.57192 6.35225 9.35225C6.57192 9.13258 6.92808 9.13258 7.14775 9.35225L8.4375 10.642V6C8.4375 5.68934 8.68934 5.4375 9 5.4375Z" fill="#1C274C"/>
</svg>
