<svg width="20" height="20" viewBox="0 0 20 20" fill="none" xmlns="http://www.w3.org/2000/svg">
<path fill-rule="evenodd" clip-rule="evenodd" d="M18.3346 9.99935C18.3346 5.39698 14.6037 1.66602 10.0013 1.66602C5.39893 1.66602 1.66797 5.39698 1.66797 9.99935C1.66797 14.6017 5.39893 18.3327 10.0013 18.3327C14.6037 18.3327 18.3346 14.6017 18.3346 9.99935ZM10.0013 5.20768C10.3465 5.20768 10.6263 5.4875 10.6263 5.83268V10.8327C10.6263 11.1779 10.3465 11.4577 10.0013 11.4577C9.65612 11.4577 9.3763 11.1779 9.3763 10.8327V5.83268C9.3763 5.4875 9.65612 5.20768 10.0013 5.20768ZM10.0013 14.166C10.4615 14.166 10.8346 13.7929 10.8346 13.3327C10.8346 12.8724 10.4615 12.4993 10.0013 12.4993C9.54106 12.4993 9.16797 12.8724 9.16797 13.3327C9.16797 13.7929 9.54106 14.166 10.0013 14.166Z" fill="#636674"/>
</svg>
