<svg width="23" height="22" viewBox="0 0 23 22" fill="none" xmlns="http://www.w3.org/2000/svg">
<path fill-rule="evenodd" clip-rule="evenodd" d="M11.125 1.14583C11.5047 1.14583 11.8125 1.45364 11.8125 1.83333V3.66667C11.8125 4.04636 11.5047 4.35417 11.125 4.35417C10.7453 4.35417 10.4375 4.04636 10.4375 3.66667V1.83333C10.4375 1.45364 10.7453 1.14583 11.125 1.14583ZM3.48791 3.40641C3.74412 3.12619 4.17898 3.10672 4.45921 3.36293L6.49606 5.22521C6.77628 5.48142 6.79575 5.91629 6.53954 6.19651C6.28333 6.47674 5.84846 6.49621 5.56824 6.24L3.53139 4.37771C3.25117 4.1215 3.2317 3.68664 3.48791 3.40641ZM18.7621 3.40641C19.0183 3.68664 18.9988 4.1215 18.7186 4.37771L16.6817 6.24C16.4015 6.49621 15.9666 6.47674 15.7104 6.19651C15.4542 5.91629 15.4737 5.48142 15.7539 5.22521L17.7908 3.36293C18.071 3.10672 18.5058 3.12619 18.7621 3.40641ZM11.125 7.10417C8.97337 7.10417 7.22915 8.84839 7.22915 11C7.22915 13.1516 8.97337 14.8958 11.125 14.8958C13.2766 14.8958 15.0208 13.1516 15.0208 11C15.0208 8.84839 13.2766 7.10417 11.125 7.10417ZM5.85415 11C5.85415 8.089 8.21398 5.72917 11.125 5.72917C14.036 5.72917 16.3958 8.089 16.3958 11C16.3958 13.911 14.036 16.2708 11.125 16.2708C8.21398 16.2708 5.85415 13.911 5.85415 11ZM1.27081 11C1.27081 10.6203 1.57862 10.3125 1.95831 10.3125H3.79165C4.17134 10.3125 4.47915 10.6203 4.47915 11C4.47915 11.3797 4.17134 11.6875 3.79165 11.6875H1.95831C1.57862 11.6875 1.27081 11.3797 1.27081 11ZM17.7708 11C17.7708 10.6203 18.0786 10.3125 18.4583 10.3125H20.2916C20.6713 10.3125 20.9791 10.6203 20.9791 11C20.9791 11.3797 20.6713 11.6875 20.2916 11.6875H18.4583C18.0786 11.6875 17.7708 11.3797 17.7708 11ZM15.7317 15.6064C16.0002 15.3379 16.4355 15.338 16.704 15.6065L18.7408 17.6436C19.0093 17.9121 19.0093 18.3474 18.7408 18.6158C18.4723 18.8843 18.037 18.8843 17.7685 18.6158L15.7316 16.5787C15.4632 16.3102 15.4632 15.8749 15.7317 15.6064ZM6.51842 15.6066C6.78691 15.875 6.78691 16.3103 6.51842 16.5788L4.48139 18.6159C4.2129 18.8843 3.7776 18.8843 3.50911 18.6159C3.24063 18.3474 3.24063 17.9121 3.50911 17.6436L5.54615 15.6066C5.81464 15.3381 6.24994 15.3381 6.51842 15.6066ZM11.125 17.6458C11.5047 17.6458 11.8125 17.9536 11.8125 18.3333V20.1667C11.8125 20.5464 11.5047 20.8542 11.125 20.8542C10.7453 20.8542 10.4375 20.5464 10.4375 20.1667V18.3333C10.4375 17.9536 10.7453 17.6458 11.125 17.6458Z" fill="#808290"/>
</svg>
