<svg width="44" height="44" viewBox="0 0 44 44" fill="none" xmlns="http://www.w3.org/2000/svg">
<circle cx="22" cy="22" r="22" fill="#00A478" fill-opacity="0.1"/>
<path fill-rule="evenodd" clip-rule="evenodd" d="M22 12.75C16.8914 12.75 12.75 16.8914 12.75 22C12.75 27.1086 16.8914 31.25 22 31.25C27.1086 31.25 31.25 27.1086 31.25 22C31.25 16.8914 27.1086 12.75 22 12.75ZM11.25 22C11.25 16.0629 16.0629 11.25 22 11.25C27.9371 11.25 32.75 16.0629 32.75 22C32.75 27.9371 27.9371 32.75 22 32.75C16.0629 32.75 11.25 27.9371 11.25 22ZM22 15.25C22.4142 15.25 22.75 15.5858 22.75 16V16.3167C24.3804 16.6087 25.75 17.8336 25.75 19.5C25.75 19.9142 25.4142 20.25 25 20.25C24.5858 20.25 24.25 19.9142 24.25 19.5C24.25 18.6557 23.3765 17.75 22 17.75C20.6235 17.75 19.75 18.6557 19.75 19.5C19.75 20.3443 20.6235 21.25 22 21.25C23.9372 21.25 25.75 22.5828 25.75 24.5C25.75 26.1664 24.3804 27.3913 22.75 27.6833V28C22.75 28.4142 22.4142 28.75 22 28.75C21.5858 28.75 21.25 28.4142 21.25 28V27.6833C19.6196 27.3913 18.25 26.1664 18.25 24.5C18.25 24.0858 18.5858 23.75 19 23.75C19.4142 23.75 19.75 24.0858 19.75 24.5C19.75 25.3443 20.6235 26.25 22 26.25C23.3765 26.25 24.25 25.3443 24.25 24.5C24.25 23.6557 23.3765 22.75 22 22.75C20.0628 22.75 18.25 21.4172 18.25 19.5C18.25 17.8336 19.6196 16.6087 21.25 16.3167V16C21.25 15.5858 21.5858 15.25 22 15.25Z" fill="#00A478"/>
</svg>
