<svg width="24" height="24" viewBox="0 0 24 24" fill="none" xmlns="http://www.w3.org/2000/svg">
<path fill-rule="evenodd" clip-rule="evenodd" d="M7.09878 1.24995C7.14683 1.24997 7.19559 1.24999 7.24508 1.24999H16.7551C16.8045 1.24999 16.8533 1.24997 16.9014 1.24995C17.9181 1.2495 18.6178 1.2492 19.2072 1.45425C20.3201 1.84152 21.1842 2.73717 21.5547 3.86549L20.8421 4.09945L21.5547 3.8655C21.7507 4.46262 21.7505 5.17245 21.7501 6.22646C21.7501 6.27362 21.7501 6.32148 21.7501 6.37005V20.3742C21.7501 21.8394 20.0231 22.7117 18.8857 21.6709C18.8062 21.5982 18.694 21.5982 18.6145 21.6709L18.1314 22.113C17.2032 22.9623 15.7969 22.9623 14.8688 22.113C14.5138 21.7881 13.9864 21.7881 13.6314 22.113C12.7032 22.9623 11.2969 22.9623 10.3688 22.113C10.0138 21.7881 9.48637 21.7881 9.13138 22.113C8.20319 22.9623 6.79694 22.9623 5.86875 22.113L5.38566 21.6709C5.30618 21.5982 5.19395 21.5982 5.11448 21.6709C3.97705 22.7117 2.25007 21.8394 2.25007 20.3742V6.37005C2.25007 6.32149 2.25005 6.27363 2.25003 6.22646C2.24965 5.17246 2.24939 4.46262 2.44545 3.86549C2.81591 2.73717 3.68002 1.84152 4.79298 1.45425C5.3823 1.2492 6.08203 1.2495 7.09878 1.24995ZM7.24508 2.74999C6.024 2.74999 5.6034 2.76048 5.28593 2.87094C4.62655 3.10038 4.09919 3.63719 3.8706 4.33341C3.75951 4.67174 3.75007 5.11787 3.75007 6.37005V20.3742C3.75007 20.4933 3.80999 20.566 3.88517 20.6008C3.92434 20.6189 3.96264 20.6236 3.99456 20.6193C4.0227 20.6155 4.05911 20.6034 4.10185 20.5643C4.75453 19.967 5.74561 19.967 6.39828 20.5643L6.88138 21.0064C7.23637 21.3312 7.76377 21.3312 8.11875 21.0064C9.04694 20.157 10.4532 20.157 11.3814 21.0064C11.7364 21.3312 12.2638 21.3312 12.6188 21.0064C13.5469 20.157 14.9532 20.157 15.8814 21.0064C16.2364 21.3312 16.7638 21.3312 17.1188 21.0064L17.6019 20.5643C18.2545 19.967 19.2456 19.967 19.8983 20.5643C19.941 20.6034 19.9774 20.6155 20.0056 20.6193C20.0375 20.6236 20.0758 20.6189 20.115 20.6008C20.1901 20.566 20.2501 20.4933 20.2501 20.3742V6.37005C20.2501 5.11787 20.2406 4.67174 20.1295 4.33341C19.9009 3.63719 19.3736 3.10038 18.7142 2.87094C18.3967 2.76048 17.9761 2.74999 16.7551 2.74999H7.24508ZM6.25007 7.49999C6.25007 7.08578 6.58585 6.74999 7.00007 6.74999H7.50007C7.91428 6.74999 8.25007 7.08578 8.25007 7.49999C8.25007 7.91421 7.91428 8.24999 7.50007 8.24999H7.00007C6.58585 8.24999 6.25007 7.91421 6.25007 7.49999ZM9.75007 7.49999C9.75007 7.08578 10.0859 6.74999 10.5001 6.74999H17.0001C17.4143 6.74999 17.7501 7.08578 17.7501 7.49999C17.7501 7.91421 17.4143 8.24999 17.0001 8.24999H10.5001C10.0859 8.24999 9.75007 7.91421 9.75007 7.49999ZM6.25007 11C6.25007 10.5858 6.58585 10.25 7.00007 10.25H7.50007C7.91428 10.25 8.25007 10.5858 8.25007 11C8.25007 11.4142 7.91428 11.75 7.50007 11.75H7.00007C6.58585 11.75 6.25007 11.4142 6.25007 11ZM9.75007 11C9.75007 10.5858 10.0859 10.25 10.5001 10.25H17.0001C17.4143 10.25 17.7501 10.5858 17.7501 11C17.7501 11.4142 17.4143 11.75 17.0001 11.75H10.5001C10.0859 11.75 9.75007 11.4142 9.75007 11ZM6.25007 14.5C6.25007 14.0858 6.58585 13.75 7.00007 13.75H7.50007C7.91428 13.75 8.25007 14.0858 8.25007 14.5C8.25007 14.9142 7.91428 15.25 7.50007 15.25H7.00007C6.58585 15.25 6.25007 14.9142 6.25007 14.5ZM9.75007 14.5C9.75007 14.0858 10.0859 13.75 10.5001 13.75H17.0001C17.4143 13.75 17.7501 14.0858 17.7501 14.5C17.7501 14.9142 17.4143 15.25 17.0001 15.25H10.5001C10.0859 15.25 9.75007 14.9142 9.75007 14.5Z" fill="#00A478"/>
</svg>
