<svg width="40" height="40" viewBox="0 0 40 40" fill="none" xmlns="http://www.w3.org/2000/svg">
<circle cx="20" cy="20" r="20" fill="#AB59D2" fill-opacity="0.1"/>
<g clip-path="url(#clip0_149_1941)">
<path d="M19.9664 13.7292H20.8748C21.1165 13.7292 21.3123 13.925 21.3123 14.1667C21.3123 14.4083 21.1165 14.6042 20.8748 14.6042H19.9998C18.6125 14.6042 17.6161 14.6051 16.8578 14.707C16.112 14.8073 15.6624 14.998 15.3301 15.3303C14.9978 15.6626 14.8071 16.1122 14.7069 16.8579C14.6049 17.6162 14.604 18.6127 14.604 20C14.604 21.3873 14.6049 22.3837 14.7069 23.1421C14.8071 23.8878 14.9978 24.3374 15.3301 24.6697C15.6624 25.002 16.112 25.1927 16.8578 25.2929C17.6161 25.3949 18.6125 25.3958 19.9998 25.3958C21.3871 25.3958 22.3836 25.3949 23.1419 25.2929C23.8877 25.1927 24.3372 25.002 24.6695 24.6697C25.0018 24.3374 25.1925 23.8878 25.2928 23.1421C25.3947 22.3837 25.3957 21.3873 25.3957 20V19.125C25.3957 18.8834 25.5915 18.6875 25.8332 18.6875C26.0748 18.6875 26.2707 18.8834 26.2707 19.125V20.0335C26.2707 21.38 26.2707 22.4353 26.16 23.2587C26.0467 24.1014 25.8102 24.7664 25.2883 25.2884C24.7663 25.8104 24.1013 26.0468 23.2585 26.1601C22.4351 26.2708 21.3799 26.2708 20.0333 26.2708H19.9664C18.6198 26.2708 17.5645 26.2708 16.7412 26.1601C15.8984 26.0468 15.2334 25.8104 14.7114 25.2884C14.1894 24.7664 13.953 24.1014 13.8397 23.2587C13.729 22.4353 13.729 21.38 13.729 20.0335V19.9665C13.729 18.62 13.729 17.5647 13.8397 16.7413C13.953 15.8986 14.1894 15.2335 14.7114 14.7116C15.2334 14.1896 15.8984 13.9531 16.7412 13.8398C17.5645 13.7291 18.6198 13.7291 19.9664 13.7292Z" fill="#AB59D2"/>
<path fill-rule="evenodd" clip-rule="evenodd" d="M21.8957 15.9167C21.8957 14.7085 22.875 13.7292 24.0832 13.7292C25.2913 13.7292 26.2707 14.7085 26.2707 15.9167C26.2707 17.1248 25.2913 18.1042 24.0832 18.1042C22.875 18.1042 21.8957 17.1248 21.8957 15.9167ZM24.0832 14.6042C23.3583 14.6042 22.7707 15.1918 22.7707 15.9167C22.7707 16.6415 23.3583 17.2292 24.0832 17.2292C24.808 17.2292 25.3957 16.6415 25.3957 15.9167C25.3957 15.1918 24.808 14.6042 24.0832 14.6042Z" fill="#AB59D2"/>
<path d="M21.0207 18.8333C21.0207 19.0749 21.2165 19.2708 21.4582 19.2708H21.8603L20.6863 20.4448C20.6293 20.5018 20.537 20.5018 20.4801 20.4448L19.555 19.5198C19.1563 19.1211 18.51 19.1211 18.1113 19.5198L16.7738 20.8573C16.603 21.0282 16.603 21.3052 16.7738 21.476C16.9447 21.6469 17.2217 21.6469 17.3925 21.476L18.7301 20.1385C18.787 20.0815 18.8793 20.0815 18.9363 20.1385L19.8613 21.0635C20.26 21.4622 20.9063 21.4622 21.305 21.0635L22.479 19.8895V20.2917C22.479 20.5333 22.6749 20.7292 22.9165 20.7292C23.1581 20.7292 23.354 20.5333 23.354 20.2917V18.8333C23.354 18.5917 23.1581 18.3958 22.9165 18.3958H21.4582C21.2165 18.3958 21.0207 18.5917 21.0207 18.8333Z" fill="#AB59D2"/>
</g>
<defs>
<clipPath id="clip0_149_1941">
<rect width="14" height="14" fill="white" transform="translate(13 13)"/>
</clipPath>
</defs>
</svg>
