<svg width="40" height="40" viewBox="0 0 40 40" fill="none" xmlns="http://www.w3.org/2000/svg">
<circle cx="20" cy="20" r="20" fill="#00A478" fill-opacity="0.1"/>
<path d="M23.5211 20.9042C23.2761 21.1434 23.1361 21.4876 23.1711 21.8551C23.2236 22.4851 23.8011 22.9459 24.4311 22.9459H25.5394V23.6401C25.5394 24.8476 24.5536 25.8334 23.3461 25.8334H16.6494C15.4419 25.8334 14.4561 24.8476 14.4561 23.6401V19.7142C14.4561 18.5067 15.4419 17.5209 16.6494 17.5209H23.3461C24.5536 17.5209 25.5394 18.5067 25.5394 19.7142V20.5542H24.3611C24.0344 20.5542 23.7369 20.6826 23.5211 20.9042Z" stroke="#00A478" stroke-width="0.875" stroke-linecap="round" stroke-linejoin="round"/>
<path d="M14.4561 20.2393V17.5735C14.4561 16.8793 14.8819 16.2609 15.5294 16.0159L20.1611 14.2659C20.8844 13.9918 21.6602 14.5284 21.6602 15.3043V17.5209" stroke="#00A478" stroke-width="0.875" stroke-linecap="round" stroke-linejoin="round"/>
<path d="M26.159 21.1492V22.3509C26.159 22.6717 25.9023 22.9342 25.5756 22.9459H24.4323C23.8023 22.9459 23.2248 22.485 23.1723 21.855C23.1373 21.4875 23.2773 21.1434 23.5223 20.9042C23.7381 20.6825 24.0356 20.5542 24.3623 20.5542H25.5756C25.9023 20.5659 26.159 20.8283 26.159 21.1492Z" stroke="#00A478" stroke-width="0.875" stroke-linecap="round" stroke-linejoin="round"/>
<path d="M17.083 20H21.1663" stroke="#00A478" stroke-width="0.875" stroke-linecap="round" stroke-linejoin="round"/>
</svg>
