<svg width="40" height="40" viewBox="0 0 40 40" fill="none" xmlns="http://www.w3.org/2000/svg">
<circle cx="20" cy="20" r="20" fill="#0096FF" fill-opacity="0.1"/>
<g clip-path="url(#clip0_149_1949)">
<path fill-rule="evenodd" clip-rule="evenodd" d="M19.5555 14.6327C19.1973 14.68 18.755 14.7816 18.1258 14.9268L17.4094 15.0921C16.878 15.2148 16.512 15.2998 16.2324 15.3957C15.9626 15.4883 15.8099 15.5797 15.6947 15.6949C15.5795 15.8101 15.4882 15.9627 15.3956 16.2326C15.2996 16.5121 15.2146 16.8781 15.092 17.4095L14.9267 18.126C14.7815 18.7552 14.6799 19.1975 14.6325 19.5557C14.5864 19.9046 14.597 20.1407 14.6586 20.3554C14.7201 20.57 14.8363 20.7759 15.0603 21.0473C15.2903 21.326 15.6109 21.6472 16.0675 22.1038L17.1348 23.1711C17.9278 23.9641 18.4921 24.5271 18.9773 24.8973C19.4523 25.2597 19.7997 25.3958 20.1529 25.3958C20.506 25.3958 20.8534 25.2597 21.3285 24.8973C21.8136 24.5271 22.3779 23.9641 23.1709 23.1711C23.964 22.3781 24.527 21.8138 24.8971 21.3286C25.2596 20.8536 25.3957 20.5062 25.3957 20.153C25.3957 19.7998 25.2596 19.4525 24.8971 18.9774C24.527 18.4923 23.964 17.928 23.1709 17.1349L22.1037 16.0676C21.6471 15.611 21.3258 15.2905 21.0472 15.0605C20.7757 14.8364 20.5699 14.7203 20.3552 14.6587C20.1406 14.5972 19.9045 14.5866 19.5555 14.6327ZM19.4409 13.7652C19.8593 13.7099 20.2262 13.7115 20.5964 13.8177C20.9667 13.9238 21.2786 14.117 21.6041 14.3856C21.9188 14.6453 22.2693 14.9958 22.7071 15.4336L23.813 16.5395C24.5775 17.304 25.1828 17.9093 25.5928 18.4467C26.0146 18.9995 26.2707 19.5316 26.2707 20.153C26.2707 20.7744 26.0146 21.3065 25.5928 21.8594C25.1828 22.3967 24.5775 23.002 23.813 23.7665L23.7664 23.8131C23.0018 24.5777 22.3966 25.183 21.8592 25.5929C21.3063 26.0148 20.7743 26.2708 20.1529 26.2708C19.5314 26.2708 18.9994 26.0148 18.4465 25.5929C17.9092 25.183 17.3039 24.5776 16.5393 23.8131L15.4335 22.7072C14.9957 22.2694 14.6452 21.919 14.3855 21.6043C14.1168 21.2788 13.9237 20.9668 13.8175 20.5966C13.7113 20.2264 13.7098 19.8595 13.7651 19.441C13.8185 19.0365 13.93 18.5536 14.0692 17.9503L14.2446 17.1903C14.3608 16.6868 14.4555 16.2762 14.568 15.9486C14.6854 15.6064 14.8333 15.3188 15.076 15.0761C15.3186 14.8335 15.6062 14.6856 15.9484 14.5681C16.2761 14.4557 16.6866 14.3609 17.1901 14.2447L17.9501 14.0694C18.5534 13.9301 19.0364 13.8187 19.4409 13.7652ZM18.5362 17.6638C18.2515 17.3791 17.7898 17.3791 17.505 17.6638C17.2203 17.9486 17.2203 18.4103 17.505 18.695C17.7898 18.9798 18.2515 18.9798 18.5362 18.695C18.821 18.4103 18.821 17.9486 18.5362 17.6638ZM16.8863 17.0451C17.5128 16.4186 18.5285 16.4186 19.1549 17.0451C19.7814 17.6716 19.7814 18.6873 19.1549 19.3137C18.5285 19.9402 17.5128 19.9402 16.8863 19.3137C16.2598 18.6873 16.2598 17.6716 16.8863 17.0451ZM24.113 19.4109C24.2838 19.5818 24.2838 19.8588 24.113 20.0296L20.0419 24.1009C19.871 24.2717 19.594 24.2717 19.4232 24.1009C19.2523 23.93 19.2523 23.653 19.4232 23.4822L23.4942 19.4109C23.6651 19.2401 23.9421 19.2401 24.113 19.4109Z" fill="#0096FF"/>
</g>
<defs>
<clipPath id="clip0_149_1949">
<rect width="14" height="14" fill="white" transform="translate(13 13)"/>
</clipPath>
</defs>
</svg>
