<svg width="20" height="21" viewBox="0 0 20 21" fill="none" xmlns="http://www.w3.org/2000/svg">
<g opacity="0.4">
<path fill-rule="evenodd" clip-rule="evenodd" d="M9.58341 2.7915C5.55634 2.7915 2.29175 6.05609 2.29175 10.0832C2.29175 14.1102 5.55634 17.3748 9.58341 17.3748C13.6105 17.3748 16.8751 14.1102 16.8751 10.0832C16.8751 6.05609 13.6105 2.7915 9.58341 2.7915ZM1.04175 10.0832C1.04175 5.36574 4.86598 1.5415 9.58341 1.5415C14.3008 1.5415 18.1251 5.36574 18.1251 10.0832C18.1251 12.2169 17.3427 14.168 16.0491 15.665L18.7754 18.3912C19.0194 18.6353 19.0194 19.031 18.7754 19.2751C18.5313 19.5192 18.1356 19.5192 17.8915 19.2751L15.1653 16.5489C13.6682 17.8424 11.7172 18.6248 9.58341 18.6248C4.86598 18.6248 1.04175 14.8006 1.04175 10.0832Z" fill="#212121"/>
</g>
</svg>
