<svg width="20" height="20" viewBox="0 0 20 20" fill="none" xmlns="http://www.w3.org/2000/svg">
<path d="M2.23438 1.625C2.23438 1.28845 1.96155 1.01562 1.625 1.01562C1.28845 1.01562 1.01563 1.28845 1.01563 1.625V9.79662C1.01561 11.6722 1.01561 13.142 1.16979 14.2889C1.32761 15.4627 1.65695 16.389 2.38399 17.116C3.11102 17.843 4.03729 18.1724 5.21114 18.3302C6.35797 18.4844 7.82781 18.4844 9.70339 18.4844H17.875C18.2115 18.4844 18.4844 18.2115 18.4844 17.875C18.4844 17.5385 18.2115 17.2656 17.875 17.2656H9.75C7.81769 17.2656 6.42976 17.2643 5.37353 17.1223C4.33483 16.9827 3.70862 16.7171 3.24577 16.2542C2.78293 15.7914 2.51733 15.1652 2.37768 14.1265C2.23567 13.0702 2.23438 11.6823 2.23438 9.75V1.625Z" fill="#0096FF"/>
<path d="M15.9148 6.06646C16.1241 5.8029 16.0802 5.41959 15.8166 5.21029C15.553 5.001 15.1697 5.04499 14.9604 5.30854L12.427 8.49874C12.2278 8.74967 12.0971 8.91375 11.9894 9.03195C11.884 9.14757 11.8346 9.18036 11.8121 9.19239C11.6409 9.28393 11.4362 9.28839 11.2612 9.20437C11.2382 9.19333 11.1874 9.16272 11.0771 9.0518C10.9644 8.93839 10.8266 8.78016 10.6166 8.53813L10.6035 8.523C10.4103 8.30025 10.2454 8.11027 10.1 7.964C9.9489 7.81194 9.78361 7.67008 9.5789 7.57184C9.0537 7.31979 8.43983 7.33314 7.92608 7.60778C7.72583 7.71483 7.56687 7.86374 7.42248 8.02223C7.28358 8.17469 7.12718 8.37164 6.94378 8.6026L4.3978 11.8085C4.1885 12.0721 4.23248 12.4554 4.49603 12.6647C4.75958 12.874 5.1429 12.83 5.3522 12.5665L7.88573 9.37621C8.085 9.12529 8.21571 8.96122 8.3234 8.84302C8.42873 8.72741 8.47816 8.69462 8.50066 8.68259C8.67191 8.59105 8.87653 8.5866 9.05159 8.67061C9.0746 8.68165 9.1254 8.71226 9.23566 8.82318C9.34839 8.93659 9.48611 9.09482 9.6961 9.33684L9.70922 9.35196C9.9025 9.57473 10.0673 9.76471 10.2127 9.91098C10.3639 10.063 10.5291 10.2049 10.7339 10.3031C11.2591 10.5552 11.8729 10.5418 12.3867 10.2672C12.5869 10.1601 12.7459 10.0112 12.8903 9.85273C13.0292 9.70027 13.1856 9.50332 13.369 9.27237L15.9148 6.06646Z" fill="#0096FF"/>
</svg>
