<svg width="20" height="20" viewBox="0 0 20 20" fill="none" xmlns="http://www.w3.org/2000/svg">
<path fill-rule="evenodd" clip-rule="evenodd" d="M7.3125 1.01562C5.18103 1.01562 3.45312 2.74353 3.45312 4.875C3.45312 7.00647 5.18103 8.73438 7.3125 8.73438C9.44397 8.73438 11.1719 7.00647 11.1719 4.875C11.1719 2.74353 9.44397 1.01562 7.3125 1.01562ZM4.67188 4.875C4.67188 3.41662 5.85412 2.23438 7.3125 2.23438C8.77088 2.23438 9.95312 3.41662 9.95312 4.875C9.95312 6.33338 8.77088 7.51562 7.3125 7.51562C5.85412 7.51562 4.67188 6.33338 4.67188 4.875Z" fill="#0096FF"/>
<path d="M12.1875 1.82812C11.851 1.82812 11.5781 2.10095 11.5781 2.4375C11.5781 2.77405 11.851 3.04688 12.1875 3.04688C13.1971 3.04688 14.0156 3.86535 14.0156 4.875C14.0156 5.88465 13.1971 6.70312 12.1875 6.70312C11.851 6.70312 11.5781 6.97595 11.5781 7.3125C11.5781 7.64905 11.851 7.92188 12.1875 7.92188C13.8702 7.92188 15.2344 6.55774 15.2344 4.875C15.2344 3.19226 13.8702 1.82812 12.1875 1.82812Z" fill="#0096FF"/>
<path fill-rule="evenodd" clip-rule="evenodd" d="M2.9885 10.9853C4.12548 10.3356 5.65554 9.95312 7.3125 9.95312C8.96946 9.95312 10.4995 10.3356 11.6365 10.9853C12.7563 11.6252 13.6094 12.602 13.6094 13.8125C13.6094 15.023 12.7563 15.9998 11.6365 16.6397C10.4995 17.2894 8.96946 17.6719 7.3125 17.6719C5.65554 17.6719 4.12548 17.2894 2.9885 16.6397C1.86875 15.9998 1.01562 15.023 1.01562 13.8125C1.01562 12.602 1.86875 11.6252 2.9885 10.9853ZM3.59316 12.0435C2.65444 12.5799 2.23438 13.2281 2.23438 13.8125C2.23438 14.3969 2.65444 15.0451 3.59316 15.5815C4.51465 16.1081 5.82834 16.4531 7.3125 16.4531C8.79666 16.4531 10.1104 16.1081 11.0318 15.5815C11.9706 15.0451 12.3906 14.3969 12.3906 13.8125C12.3906 13.2281 11.9706 12.5799 11.0318 12.0435C10.1104 11.5169 8.79666 11.1719 7.3125 11.1719C5.82834 11.1719 4.51465 11.5169 3.59316 12.0435Z" fill="#0096FF"/>
<path d="M14.7555 10.7798C14.4268 10.7077 14.1019 10.9157 14.0298 11.2445C13.9577 11.5732 14.1657 11.8981 14.4945 11.9702C15.1383 12.1114 15.6528 12.3539 15.9923 12.6318C16.3324 12.91 16.4531 13.1818 16.4531 13.4062C16.4531 13.6099 16.3551 13.8491 16.085 14.1C15.8129 14.3528 15.3948 14.5864 14.8556 14.7487C14.5333 14.8458 14.3507 15.1857 14.4478 15.5079C14.5448 15.8302 14.8847 16.0128 15.2069 15.9157C15.8753 15.7145 16.4728 15.4032 16.9145 14.993C17.358 14.5809 17.6719 14.0389 17.6719 13.4062C17.6719 12.7036 17.2865 12.116 16.7642 11.6886C16.2413 11.2607 15.5371 10.9512 14.7555 10.7798Z" fill="#0096FF"/>
</svg>
