<svg width="20" height="20" viewBox="0 0 20 20" fill="none" xmlns="http://www.w3.org/2000/svg">
<path d="M9.70338 1.01563H10.9688C11.3053 1.01563 11.5781 1.28845 11.5781 1.625C11.5781 1.96155 11.3053 2.23438 10.9688 2.23438H9.75C7.81769 2.23438 6.42976 2.23567 5.37353 2.37768C4.33483 2.51733 3.70862 2.78293 3.24577 3.24577C2.78293 3.70862 2.51733 4.33483 2.37768 5.37353C2.23567 6.42976 2.23438 7.81769 2.23438 9.75C2.23438 11.6823 2.23567 13.0702 2.37768 14.1265C2.51733 15.1652 2.78293 15.7914 3.24577 16.2542C3.70862 16.7171 4.33483 16.9827 5.37353 17.1223C6.42976 17.2643 7.81769 17.2656 9.75 17.2656C11.6823 17.2656 13.0702 17.2643 14.1265 17.1223C15.1652 16.9827 15.7914 16.7171 16.2542 16.2542C16.7171 15.7914 16.9827 15.1652 17.1223 14.1265C17.2643 13.0702 17.2656 11.6823 17.2656 9.75V8.53125C17.2656 8.1947 17.5385 7.92188 17.875 7.92188C18.2115 7.92188 18.4844 8.1947 18.4844 8.53125V9.79661C18.4844 11.6722 18.4844 13.142 18.3302 14.2889C18.1724 15.4627 17.843 16.389 17.116 17.116C16.389 17.843 15.4627 18.1724 14.2889 18.3302C13.142 18.4844 11.6722 18.4844 9.79661 18.4844H9.70339C7.82781 18.4844 6.35797 18.4844 5.21114 18.3302C4.03729 18.1724 3.11102 17.843 2.38399 17.116C1.65695 16.389 1.32761 15.4627 1.16979 14.2889C1.01561 13.142 1.01561 11.6722 1.01563 9.79662V9.70338C1.01561 7.82781 1.01561 6.35797 1.16979 5.21114C1.32761 4.03729 1.65695 3.11102 2.38399 2.38399C3.11102 1.65695 4.03729 1.32761 5.21114 1.16979C6.35797 1.01561 7.82781 1.01561 9.70338 1.01563Z" fill="#0096FF"/>
<path fill-rule="evenodd" clip-rule="evenodd" d="M12.3906 4.0625C12.3906 2.37976 13.7548 1.01563 15.4375 1.01563C17.1202 1.01563 18.4844 2.37976 18.4844 4.0625C18.4844 5.74524 17.1202 7.10938 15.4375 7.10938C13.7548 7.10938 12.3906 5.74524 12.3906 4.0625ZM15.4375 2.23438C14.4279 2.23438 13.6094 3.05285 13.6094 4.0625C13.6094 5.07215 14.4279 5.89062 15.4375 5.89062C16.4471 5.89062 17.2656 5.07215 17.2656 4.0625C17.2656 3.05285 16.4471 2.23438 15.4375 2.23438Z" fill="#0096FF"/>
<path d="M11.1719 8.125C11.1719 8.46155 11.4447 8.73438 11.7812 8.73438H12.3413L10.7061 10.3696C10.6268 10.4489 10.4982 10.4489 10.4189 10.3696L9.13042 9.08113C8.57514 8.52585 7.67486 8.52585 7.11958 9.08113L5.25661 10.9441C5.01863 11.1821 5.01863 11.5679 5.25661 11.8059C5.49458 12.0439 5.88042 12.0439 6.11839 11.8059L7.98137 9.94292C8.06069 9.86359 8.18931 9.86359 8.26863 9.94292L9.55708 11.2314C10.1124 11.7866 11.0126 11.7866 11.5679 11.2314L13.2031 9.59616V10.1562C13.2031 10.4928 13.476 10.7656 13.8125 10.7656C14.149 10.7656 14.4219 10.4928 14.4219 10.1562V8.125C14.4219 7.78845 14.149 7.51562 13.8125 7.51562H11.7812C11.4447 7.51562 11.1719 7.78845 11.1719 8.125Z" fill="#0096FF"/>
</svg>
