<svg width="20" height="20" viewBox="0 0 20 20" fill="none" xmlns="http://www.w3.org/2000/svg">
<path fill-rule="evenodd" clip-rule="evenodd" d="M9.13503 2.77409C8.63612 2.84002 8.02005 2.98153 7.14367 3.18378L6.14577 3.41406C5.40557 3.58488 4.89582 3.70329 4.50647 3.83692C4.13059 3.96593 3.91794 4.0931 3.75748 4.25357C3.59701 4.41403 3.46983 4.62668 3.34083 5.00257C3.2072 5.39191 3.08878 5.90166 2.91797 6.64186L2.68768 7.63976C2.48544 8.51614 2.34393 9.13221 2.278 9.63112C2.21376 10.1172 2.22857 10.446 2.31431 10.745C2.40005 11.044 2.56179 11.3307 2.87386 11.7088C3.1942 12.0969 3.64071 12.5443 4.2767 13.1803L5.76327 14.6669C6.86786 15.7715 7.65386 16.5557 8.3296 17.0712C8.99128 17.5761 9.47512 17.7656 9.96704 17.7656C10.459 17.7656 10.9428 17.5761 11.6045 17.0712C12.2802 16.5557 13.0662 15.7715 14.1708 14.6669C15.2754 13.5623 16.0596 12.7763 16.5751 12.1006C17.08 11.4389 17.2695 10.9551 17.2695 10.4631C17.2695 9.97122 17.08 9.48737 16.5751 8.82569C16.0596 8.14995 15.2754 7.36395 14.1708 6.25937L12.6842 4.77279C12.0483 4.13681 11.6008 3.69029 11.2127 3.36996C10.8346 3.05788 10.5479 2.89615 10.2489 2.81041C9.94993 2.72467 9.62107 2.70986 9.13503 2.77409ZM8.97535 1.56585C9.55817 1.48882 10.0692 1.491 10.5849 1.63889C11.1005 1.78677 11.5351 2.05579 11.9885 2.43C12.4268 2.79175 12.9149 3.27989 13.5247 3.88973L15.0651 5.43004C16.1299 6.49491 16.973 7.33799 17.5441 8.08642C18.1316 8.85651 18.4883 9.5976 18.4883 10.4631C18.4883 11.3287 18.1316 12.0698 17.5441 12.8399C16.973 13.5883 16.1299 14.4314 15.065 15.4962L15.0002 15.5611C13.9353 16.626 13.0922 17.4691 12.3438 18.0402C11.5737 18.6277 10.8326 18.9844 9.96704 18.9844C9.10151 18.9844 8.36042 18.6277 7.59033 18.0402C6.84189 17.4691 5.9988 16.626 4.93392 15.5611L3.39362 14.0208C2.78379 13.411 2.29565 12.9229 1.9339 12.4846C1.55969 12.0312 1.29068 11.5966 1.14279 11.081C0.994903 10.5653 0.992729 10.0543 1.06975 9.47145C1.14421 8.90804 1.29944 8.23539 1.49337 7.39506L1.73766 6.33647C1.89948 5.63519 2.03144 5.06332 2.18808 4.60693C2.35166 4.1303 2.5577 3.72977 2.89569 3.39178C3.23368 3.0538 3.6342 2.84776 4.11084 2.68417C4.56723 2.52754 5.13909 2.39558 5.84038 2.23375L6.89896 1.98947C7.73929 1.79554 8.41194 1.6403 8.97535 1.56585ZM7.71529 6.99605C7.31867 6.59943 6.67561 6.59943 6.27898 6.99605C5.88236 7.39268 5.88236 8.03574 6.27898 8.43236C6.67561 8.82899 7.31867 8.82899 7.71529 8.43236C8.11192 8.03574 8.11192 7.39268 7.71529 6.99605ZM5.4172 6.13427C6.28977 5.26169 7.7045 5.26169 8.57708 6.13427C9.44966 7.00685 9.44966 8.42157 8.57708 9.29415C7.7045 10.1667 6.28977 10.1667 5.4172 9.29415C4.54462 8.42157 4.54462 7.00685 5.4172 6.13427ZM15.4829 9.42951C15.7209 9.66749 15.7209 10.0533 15.4829 10.2913L9.81248 15.9619C9.57451 16.1999 9.18867 16.1999 8.95069 15.962C8.71271 15.724 8.71271 15.3381 8.95068 15.1002L14.6211 9.42953C14.8591 9.19155 15.2449 9.19154 15.4829 9.42951Z" fill="#0096FF"/>
</svg>
