<svg width="20" height="20" viewBox="0 0 20 20" fill="none" xmlns="http://www.w3.org/2000/svg">
<path d="M6.29688 7.3125C6.29688 6.97595 6.02405 6.70312 5.6875 6.70312C5.35095 6.70312 5.07812 6.97595 5.07812 7.3125V14.625C5.07812 14.9615 5.35095 15.2344 5.6875 15.2344C6.02405 15.2344 6.29688 14.9615 6.29688 14.625V7.3125Z" fill="#0096FF"/>
<path d="M9.75 4.26562C10.0865 4.26562 10.3594 4.53845 10.3594 4.875V14.625C10.3594 14.9615 10.0865 15.2344 9.75 15.2344C9.41345 15.2344 9.14062 14.9615 9.14062 14.625V4.875C9.14062 4.53845 9.41345 4.26562 9.75 4.26562Z" fill="#0096FF"/>
<path d="M14.4219 10.5625C14.4219 10.226 14.149 9.95312 13.8125 9.95312C13.476 9.95312 13.2031 10.226 13.2031 10.5625V14.625C13.2031 14.9615 13.476 15.2344 13.8125 15.2344C14.149 15.2344 14.4219 14.9615 14.4219 14.625V10.5625Z" fill="#0096FF"/>
<path fill-rule="evenodd" clip-rule="evenodd" d="M9.70338 1.01563C7.82781 1.01561 6.35797 1.01561 5.21114 1.16979C4.03729 1.32761 3.11102 1.65695 2.38399 2.38399C1.65695 3.11102 1.32761 4.03729 1.16979 5.21114C1.01561 6.35797 1.01561 7.82781 1.01563 9.70338V9.79662C1.01561 11.6722 1.01561 13.142 1.16979 14.2889C1.32761 15.4627 1.65695 16.389 2.38399 17.116C3.11102 17.843 4.03729 18.1724 5.21114 18.3302C6.35797 18.4844 7.82781 18.4844 9.70339 18.4844H9.79661C11.6722 18.4844 13.142 18.4844 14.2889 18.3302C15.4627 18.1724 16.389 17.843 17.116 17.116C17.843 16.389 18.1724 15.4627 18.3302 14.2889C18.4844 13.142 18.4844 11.6722 18.4844 9.79661V9.70339C18.4844 7.82781 18.4844 6.35797 18.3302 5.21114C18.1724 4.03729 17.843 3.11102 17.116 2.38399C16.389 1.65695 15.4627 1.32761 14.2889 1.16979C13.142 1.01561 11.6722 1.01561 9.79662 1.01563H9.70338ZM3.24577 3.24577C3.70862 2.78293 4.33483 2.51733 5.37353 2.37768C6.42976 2.23567 7.81769 2.23438 9.75 2.23438C11.6823 2.23438 13.0702 2.23567 14.1265 2.37768C15.1652 2.51733 15.7914 2.78293 16.2542 3.24577C16.7171 3.70862 16.9827 4.33483 17.1223 5.37353C17.2643 6.42976 17.2656 7.81769 17.2656 9.75C17.2656 11.6823 17.2643 13.0702 17.1223 14.1265C16.9827 15.1652 16.7171 15.7914 16.2542 16.2542C15.7914 16.7171 15.1652 16.9827 14.1265 17.1223C13.0702 17.2643 11.6823 17.2656 9.75 17.2656C7.81769 17.2656 6.42976 17.2643 5.37353 17.1223C4.33483 16.9827 3.70862 16.7171 3.24577 16.2542C2.78293 15.7914 2.51733 15.1652 2.37768 14.1265C2.23567 13.0702 2.23438 11.6823 2.23438 9.75C2.23438 7.81769 2.23567 6.42976 2.37768 5.37353C2.51733 4.33483 2.78293 3.70862 3.24577 3.24577Z" fill="#0096FF"/>
</svg>
