<svg width="12" height="12" viewBox="0 0 12 12" fill="none" xmlns="http://www.w3.org/2000/svg">
<path fill-rule="evenodd" clip-rule="evenodd" d="M8.25 1.125C7.35254 1.125 6.625 1.85254 6.625 2.75C6.625 2.84795 6.63367 2.94388 6.65028 3.03706L4.28495 4.69279C4.27293 4.7012 4.26156 4.71019 4.25084 4.7197C3.97496 4.50373 3.62752 4.375 3.25 4.375C2.35254 4.375 1.625 5.10254 1.625 6C1.625 6.89746 2.35254 7.625 3.25 7.625C3.62752 7.625 3.97496 7.49627 4.25084 7.2803C4.26156 7.28981 4.27293 7.2988 4.28495 7.30721L6.65028 8.96294C6.63367 9.05612 6.625 9.15205 6.625 9.25C6.625 10.1475 7.35254 10.875 8.25 10.875C9.14746 10.875 9.875 10.1475 9.875 9.25C9.875 8.35254 9.14746 7.625 8.25 7.625C7.72361 7.625 7.25567 7.87529 6.95871 8.26335L4.71903 6.69557C4.81904 6.48471 4.875 6.24889 4.875 6C4.875 5.75111 4.81904 5.51529 4.71903 5.30443L6.95871 3.73665C7.25567 4.12471 7.72361 4.375 8.25 4.375C9.14746 4.375 9.875 3.64746 9.875 2.75C9.875 1.85254 9.14746 1.125 8.25 1.125ZM7.375 2.75C7.375 2.26675 7.76675 1.875 8.25 1.875C8.73325 1.875 9.125 2.26675 9.125 2.75C9.125 3.23325 8.73325 3.625 8.25 3.625C7.76675 3.625 7.375 3.23325 7.375 2.75ZM3.25 5.125C2.76675 5.125 2.375 5.51675 2.375 6C2.375 6.48325 2.76675 6.875 3.25 6.875C3.73325 6.875 4.125 6.48325 4.125 6C4.125 5.51675 3.73325 5.125 3.25 5.125ZM8.25 8.375C7.76675 8.375 7.375 8.76675 7.375 9.25C7.375 9.73325 7.76675 10.125 8.25 10.125C8.73325 10.125 9.125 9.73325 9.125 9.25C9.125 8.76675 8.73325 8.375 8.25 8.375Z" fill="#0096FF"/>
</svg>
