<svg width="25" height="25" viewBox="0 0 25 25" fill="none" xmlns="http://www.w3.org/2000/svg">
<path fill-rule="evenodd" clip-rule="evenodd" d="M16.6351 2.52121L16.7016 2.53904C17.801 2.83361 18.6722 3.06704 19.3575 3.31458C20.0584 3.56779 20.63 3.85744 21.1009 4.29847C21.7865 4.94068 22.2664 5.77179 22.4797 6.68671C22.6262 7.31503 22.5913 7.95486 22.4601 8.68849C22.3318 9.40573 22.0984 10.277 21.8038 11.3764L21.2683 13.3747C20.9738 14.474 20.7403 15.3452 20.4928 16.0305C20.2396 16.7314 19.95 17.303 19.5089 17.7739C18.8871 18.4377 18.0883 18.9087 17.2077 19.1316C16.9505 19.7213 16.5748 20.2554 16.1009 20.6993C15.63 21.1403 15.0584 21.4299 14.3575 21.6832C13.6722 21.9307 12.801 22.1641 11.7017 22.4587L11.6352 22.4765C10.5358 22.7711 9.66458 23.0045 8.94734 23.1328C8.21371 23.264 7.57387 23.2989 6.94556 23.1524C6.03064 22.9391 5.19953 22.4592 4.55732 21.7736C4.11629 21.3027 3.82664 20.7311 3.57343 20.0302C3.32589 19.3449 3.09245 18.4737 2.79788 17.3743L2.26243 15.376C1.96785 14.2766 1.73441 13.4054 1.60616 12.6882C1.47497 11.9546 1.44002 11.3147 1.58652 10.6864C1.79985 9.77149 2.2797 8.94038 2.96538 8.29817C3.43626 7.85714 4.00785 7.56749 4.70879 7.31428C5.39404 7.06674 6.26525 6.8333 7.36462 6.53873L7.39786 6.52983C7.66233 6.45896 7.91256 6.39203 8.14946 6.32944C8.54107 4.93031 8.88569 3.94126 9.55732 3.22417C10.1995 2.53849 11.0306 2.05864 11.9456 1.84531C12.5739 1.69881 13.2137 1.73376 13.9473 1.86495C14.6646 1.99319 15.5358 2.22664 16.6351 2.52121ZM7.69623 8.0028C6.60335 8.29571 5.82026 8.50764 5.21841 8.72505C4.60899 8.9452 4.25117 9.14907 3.99076 9.39296C3.52162 9.83237 3.1933 10.401 3.04734 11.027C2.96632 11.3745 2.96868 11.7863 3.08273 12.4242C3.19844 13.0712 3.41476 13.881 3.72023 15.021L4.23787 16.9529C4.54333 18.0929 4.76088 18.9023 4.9842 19.5205C5.20435 20.13 5.40822 20.4878 5.65211 20.7482C6.09152 21.2173 6.66018 21.5456 7.28617 21.6916C7.63364 21.7726 8.04546 21.7703 8.68331 21.6562C9.33036 21.5405 10.1401 21.3242 11.2801 21.0187C12.4202 20.7132 13.2296 20.4957 13.8478 20.2724C14.4572 20.0522 14.8151 19.8484 15.0755 19.6045C15.2131 19.4756 15.3385 19.3357 15.4508 19.1865C15.2718 19.1612 15.0875 19.129 14.8969 19.0911C14.2251 18.9575 13.4181 18.7413 12.422 18.4744L12.3646 18.459C11.2652 18.1644 10.394 17.931 9.70879 17.6835C9.00785 17.4302 8.43626 17.1406 7.96538 16.6996C7.2797 16.0574 6.79985 15.2262 6.58652 14.3113C6.44002 13.683 6.47497 13.0432 6.60616 12.3095C6.73441 11.5923 6.96785 10.7211 7.26243 9.62174L7.69623 8.0028ZM13.6833 3.34152C13.0455 3.22747 12.6336 3.22511 12.2862 3.30613C11.6602 3.45209 11.0915 3.7804 10.6521 4.24955C10.216 4.71518 9.94764 5.43452 9.48091 7.14323C9.40505 7.42093 9.32486 7.72023 9.23787 8.04488L8.72023 9.97673C8.41476 11.1167 8.19844 11.9265 8.08273 12.5736C7.96868 13.2114 7.96632 13.6232 8.04734 13.9707C8.1933 14.5967 8.52162 15.1654 8.99076 15.6048C9.25116 15.8487 9.60899 16.0525 10.2184 16.2727C10.8366 16.496 11.6461 16.7136 12.7861 17.019C13.8115 17.2938 14.5715 17.497 15.1894 17.6199C15.8047 17.7422 16.2222 17.7723 16.5644 17.73C16.6388 17.7209 16.7104 17.7082 16.7801 17.6919C17.4061 17.5459 17.9747 17.2176 18.4141 16.7485C18.658 16.4881 18.8619 16.1303 19.082 15.5208C19.3054 14.9026 19.5229 14.0932 19.8284 12.9532L20.346 11.0213C20.6515 9.88129 20.8678 9.07151 20.9835 8.42446C21.0976 7.78661 21.0999 7.37479 21.0189 7.02733C20.8729 6.40133 20.5446 5.83267 20.0755 5.39327C19.8151 5.14937 19.4572 4.9455 18.8478 4.72535C18.2296 4.50203 17.4202 4.28448 16.2801 3.97902C15.1401 3.67355 14.3304 3.45723 13.6833 3.34152ZM11.2936 10.3059C11.4008 9.90578 11.8121 9.66834 12.2122 9.77555L17.0418 11.0696C17.4419 11.1768 17.6793 11.5881 17.5721 11.9882C17.4649 12.3883 17.0537 12.6257 16.6536 12.5185L11.8239 11.2244C11.4238 11.1172 11.1864 10.706 11.2936 10.3059ZM10.5168 13.2036C10.624 12.8035 11.0352 12.566 11.4353 12.6733L14.3331 13.4497C14.7332 13.5569 14.9706 13.9682 14.8634 14.3683C14.7562 14.7684 14.345 15.0058 13.9449 14.8986L11.0471 14.1221C10.647 14.0149 10.4096 13.6037 10.5168 13.2036Z" fill="white"/>
</svg>
