<svg width="24" height="25" viewBox="0 0 24 25" fill="none" xmlns="http://www.w3.org/2000/svg">
<g opacity="0.5">
<path fill-rule="evenodd" clip-rule="evenodd" d="M8.75 4C8.75 3.58579 9.08579 3.25 9.5 3.25H14.5C14.9142 3.25 15.25 3.58579 15.25 4C15.25 4.41421 14.9142 4.75 14.5 4.75H9.5C9.08579 4.75 8.75 4.41421 8.75 4ZM9.95827 5.75022H14.0414C15.4106 5.75021 16.4955 5.75021 17.3619 5.83834C18.2496 5.92864 18.9906 6.11761 19.6388 6.55074C20.1575 6.89729 20.6028 7.34261 20.9493 7.86126C21.3824 8.50945 21.5715 9.2504 21.6618 10.138C21.75 11.0047 21.75 12.0901 21.75 13.4601V13.5416C21.75 14.9108 21.75 15.9957 21.6619 16.8621C21.5716 17.7497 21.3826 18.4907 20.9495 19.139C20.6029 19.6576 20.1576 20.1029 19.639 20.4495C18.9907 20.8826 18.2497 21.0716 17.3621 21.1619C16.4957 21.25 15.4108 21.25 14.0416 21.25H9.95844C8.58922 21.25 7.50431 21.25 6.63794 21.1619C5.7503 21.0716 5.00926 20.8826 4.36104 20.4495C3.84239 20.1029 3.39707 19.6576 3.05052 19.139C2.61739 18.4907 2.42841 17.7497 2.33812 16.8621C2.24998 15.9957 2.24999 14.9108 2.25 13.5416V13.4566C2.24999 12.088 2.24998 11.0035 2.3381 10.1375C2.42838 9.25016 2.61733 8.50935 3.05037 7.86126C3.39692 7.34261 3.84224 6.89729 4.36089 6.55074C5.00911 6.11761 5.75015 5.92864 6.6378 5.83834C7.50415 5.75021 8.58906 5.75021 9.95827 5.75022ZM6.7896 7.33064C6.02056 7.40887 5.55492 7.55695 5.19425 7.79795C4.83938 8.03506 4.53469 8.33975 4.29758 8.69462C4.05664 9.0552 3.90861 9.52065 3.83039 10.2893C3.75091 11.0706 3.75 12.0787 3.75 13.4981V13.5C3.75 14.9201 3.75091 15.9287 3.83041 16.7102C3.90865 17.4793 4.05673 17.9449 4.29772 18.3056C4.53484 18.6605 4.83953 18.9652 5.1944 19.2023C5.55507 19.4433 6.02071 19.5914 6.78975 19.6696C7.57133 19.7491 8.57993 19.75 10 19.75H14C15.4201 19.75 16.4287 19.7491 17.2102 19.6696C17.9793 19.5914 18.4449 19.4433 18.8056 19.2023C19.1605 18.9652 19.4652 18.6605 19.7023 18.3056C19.9433 17.9449 20.0914 17.4793 20.1696 16.7102C20.2491 15.9287 20.25 14.9201 20.25 13.5C20.25 12.0799 20.2491 11.0714 20.1695 10.2899C20.0913 9.52094 19.9431 9.05533 19.7021 8.69462C19.465 8.33975 19.1603 8.03506 18.8055 7.79795C18.4448 7.55695 17.9791 7.40887 17.2101 7.33064C16.4285 7.25113 15.4199 7.25022 13.9999 7.25022H9.99985C8.57978 7.25022 7.57118 7.25113 6.7896 7.33064ZM12 11.25C10.7574 11.25 9.75 12.2574 9.75 13.5C9.75 14.7426 10.7574 15.75 12 15.75C13.2426 15.75 14.25 14.7426 14.25 13.5C14.25 12.2574 13.2426 11.25 12 11.25ZM8.25 13.5C8.25 11.4289 9.92893 9.75 12 9.75C14.0711 9.75 15.75 11.4289 15.75 13.5C15.75 15.5711 14.0711 17.25 12 17.25C9.92893 17.25 8.25 15.5711 8.25 13.5ZM16.75 10.5C16.75 10.0858 17.0858 9.75 17.5 9.75H18C18.4142 9.75 18.75 10.0858 18.75 10.5C18.75 10.9142 18.4142 11.25 18 11.25H17.5C17.0858 11.25 16.75 10.9142 16.75 10.5Z" fill="#1C274C"/>
</g>
</svg>
