<svg width="18" height="18" viewBox="0 0 18 18" fill="none" xmlns="http://www.w3.org/2000/svg">
<path fill-rule="evenodd" clip-rule="evenodd" d="M12.5625 3C12.5625 4.13909 11.6391 5.0625 10.5 5.0625C9.36091 5.0625 8.4375 4.13909 8.4375 3C8.4375 1.86091 9.36091 0.9375 10.5 0.9375C11.6391 0.9375 12.5625 1.86091 12.5625 3ZM10.5 3.9375C11.0178 3.9375 11.4375 3.51777 11.4375 3C11.4375 2.48223 11.0178 2.0625 10.5 2.0625C9.98223 2.0625 9.5625 2.48223 9.5625 3C9.5625 3.51777 9.98223 3.9375 10.5 3.9375Z" fill="#15171C"/>
<path fill-rule="evenodd" clip-rule="evenodd" d="M9 11.0625C7.86091 11.0625 6.9375 10.1391 6.9375 9C6.9375 7.86091 7.86091 6.9375 9 6.9375C10.1391 6.9375 11.0625 7.86091 11.0625 9C11.0625 10.1391 10.1391 11.0625 9 11.0625ZM8.0625 9C8.0625 9.51777 8.48223 9.9375 9 9.9375C9.51777 9.9375 9.9375 9.51777 9.9375 9C9.9375 8.48223 9.51777 8.0625 9 8.0625C8.48223 8.0625 8.0625 8.48223 8.0625 9Z" fill="#15171C"/>
<path fill-rule="evenodd" clip-rule="evenodd" d="M7.5 17.0625C6.36091 17.0625 5.4375 16.1391 5.4375 15C5.4375 13.8609 6.36091 12.9375 7.5 12.9375C8.63909 12.9375 9.5625 13.8609 9.5625 15C9.5625 16.1391 8.63909 17.0625 7.5 17.0625ZM6.5625 15C6.5625 15.5178 6.98223 15.9375 7.5 15.9375C8.01777 15.9375 8.4375 15.5178 8.4375 15C8.4375 14.4822 8.01777 14.0625 7.5 14.0625C6.98223 14.0625 6.5625 14.4822 6.5625 15Z" fill="#15171C"/>
<path d="M11.4375 9C11.4375 8.68934 11.6893 8.4375 12 8.4375H14.25C14.5607 8.4375 14.8125 8.68934 14.8125 9C14.8125 9.31066 14.5607 9.5625 14.25 9.5625H12C11.6893 9.5625 11.4375 9.31066 11.4375 9Z" fill="#15171C"/>
<path d="M10.5 14.4375C10.1893 14.4375 9.9375 14.6893 9.9375 15C9.9375 15.3107 10.1893 15.5625 10.5 15.5625H14.25C14.5607 15.5625 14.8125 15.3107 14.8125 15C14.8125 14.6893 14.5607 14.4375 14.25 14.4375H10.5Z" fill="#15171C"/>
<path d="M8.0625 3C8.0625 2.68934 7.81066 2.4375 7.5 2.4375L3.75 2.4375C3.43934 2.4375 3.1875 2.68934 3.1875 3C3.1875 3.31066 3.43934 3.5625 3.75 3.5625L7.5 3.5625C7.81066 3.5625 8.0625 3.31066 8.0625 3Z" fill="#15171C"/>
<path d="M3.75 8.4375C3.43934 8.4375 3.1875 8.68934 3.1875 9C3.1875 9.31066 3.43934 9.5625 3.75 9.5625H6C6.31066 9.5625 6.5625 9.31066 6.5625 9C6.5625 8.68934 6.31066 8.4375 6 8.4375H3.75Z" fill="#15171C"/>
<path d="M3.1875 15C3.1875 14.6893 3.43934 14.4375 3.75 14.4375H4.5C4.81066 14.4375 5.0625 14.6893 5.0625 15C5.0625 15.3107 4.81066 15.5625 4.5 15.5625H3.75C3.43934 15.5625 3.1875 15.3107 3.1875 15Z" fill="#15171C"/>
<path d="M14.25 2.4375C14.5607 2.4375 14.8125 2.68934 14.8125 3C14.8125 3.31066 14.5607 3.5625 14.25 3.5625H13.5C13.1893 3.5625 12.9375 3.31066 12.9375 3C12.9375 2.68934 13.1893 2.4375 13.5 2.4375H14.25Z" fill="#15171C"/>
</svg>
