<svg width="20" height="20" viewBox="0 0 20 20" fill="none" xmlns="http://www.w3.org/2000/svg">
<path d="M6.54297 7.5625C6.54297 7.22595 6.27014 6.95312 5.93359 6.95312C5.59704 6.95312 5.32422 7.22595 5.32422 7.5625V14.875C5.32422 15.2115 5.59704 15.4844 5.93359 15.4844C6.27014 15.4844 6.54297 15.2115 6.54297 14.875V7.5625Z" fill="#636674"/>
<path d="M9.99609 4.51562C10.3326 4.51562 10.6055 4.78845 10.6055 5.125V14.875C10.6055 15.2115 10.3326 15.4844 9.99609 15.4844C9.65955 15.4844 9.38672 15.2115 9.38672 14.875V5.125C9.38672 4.78845 9.65955 4.51562 9.99609 4.51562Z" fill="#636674"/>
<path d="M14.668 10.8125C14.668 10.476 14.3951 10.2031 14.0586 10.2031C13.722 10.2031 13.4492 10.476 13.4492 10.8125V14.875C13.4492 15.2115 13.722 15.4844 14.0586 15.4844C14.3951 15.4844 14.668 15.2115 14.668 14.875V10.8125Z" fill="#636674"/>
<path fill-rule="evenodd" clip-rule="evenodd" d="M9.94947 1.26563C8.0739 1.26561 6.60406 1.26561 5.45723 1.41979C4.28338 1.57761 3.35711 1.90695 2.63008 2.63399C1.90305 3.36102 1.57371 4.28729 1.41589 5.46114C1.2617 6.60797 1.26171 8.07781 1.26172 9.95338V10.0466C1.26171 11.9222 1.2617 13.392 1.41589 14.5389C1.57371 15.7127 1.90305 16.639 2.63008 17.366C3.35711 18.093 4.28338 18.4224 5.45723 18.5802C6.60406 18.7344 8.07391 18.7344 9.94948 18.7344H10.0427C11.9183 18.7344 13.3881 18.7344 14.535 18.5802C15.7088 18.4224 16.6351 18.093 17.3621 17.366C18.0891 16.639 18.4185 15.7127 18.5763 14.5389C18.7305 13.392 18.7305 11.9222 18.7305 10.0466V9.95339C18.7305 8.07781 18.7305 6.60797 18.5763 5.46114C18.4185 4.28729 18.0891 3.36102 17.3621 2.63399C16.6351 1.90695 15.7088 1.57761 14.535 1.41979C13.3881 1.26561 11.9183 1.26561 10.0427 1.26563H9.94947ZM3.49187 3.49577C3.95471 3.03293 4.58092 2.76733 5.61963 2.62768C6.67586 2.48567 8.06379 2.48438 9.99609 2.48438C11.9284 2.48438 13.3163 2.48567 14.3726 2.62768C15.4113 2.76733 16.0375 3.03293 16.5003 3.49577C16.9632 3.95862 17.2288 4.58483 17.3684 5.62353C17.5104 6.67976 17.5117 8.06769 17.5117 10C17.5117 11.9323 17.5104 13.3202 17.3684 14.3765C17.2288 15.4152 16.9632 16.0414 16.5003 16.5042C16.0375 16.9671 15.4113 17.2327 14.3726 17.3723C13.3163 17.5143 11.9284 17.5156 9.99609 17.5156C8.06379 17.5156 6.67586 17.5143 5.61963 17.3723C4.58092 17.2327 3.95471 16.9671 3.49187 16.5042C3.02902 16.0414 2.76342 15.4152 2.62377 14.3765C2.48176 13.3202 2.48047 11.9323 2.48047 10C2.48047 8.06769 2.48176 6.67976 2.62377 5.62353C2.76342 4.58483 3.02902 3.95862 3.49187 3.49577Z" fill="#636674"/>
</svg>
