<svg width="121" height="120" viewBox="0 0 121 120" fill="none" xmlns="http://www.w3.org/2000/svg">
<circle cx="60.5" cy="60" r="60" fill="#23A26D" fill-opacity="0.12"/>
<path d="M59.4298 31.4286C43.687 31.4286 30.8584 44.2572 30.8584 60C30.8584 75.7429 43.687 88.5715 59.4298 88.5715C75.1727 88.5715 88.0013 75.7429 88.0013 60C88.0013 44.2572 75.1727 31.4286 59.4298 31.4286ZM73.087 53.4286L56.887 69.6286C56.487 70.0286 55.9441 70.2572 55.3727 70.2572C54.8013 70.2572 54.2584 70.0286 53.8584 69.6286L45.7727 61.5429C44.9441 60.7143 44.9441 59.3429 45.7727 58.5143C46.6013 57.6858 47.9727 57.6858 48.8013 58.5143L55.3727 65.0858L70.0584 50.4C70.887 49.5715 72.2584 49.5715 73.087 50.4C73.9155 51.2286 73.9155 52.5715 73.087 53.4286Z" fill="#23A26D"/>
</svg>
