<svg width="23" height="23" viewBox="0 0 23 23" fill="none" xmlns="http://www.w3.org/2000/svg">
<path d="M17.5404 11.7533C17.5404 12.2595 17.13 12.6699 16.6237 12.6699C16.1174 12.6699 15.707 12.2595 15.707 11.7533C15.707 11.247 16.1174 10.8366 16.6237 10.8366C17.13 10.8366 17.5404 11.247 17.5404 11.7533Z" fill="#808290"/>
<path fill-rule="evenodd" clip-rule="evenodd" d="M9.23865 3.73242H12.0921C13.7767 3.73241 15.111 3.7324 16.1553 3.8728C17.23 4.01729 18.0999 4.32173 18.7859 5.00773C19.6332 5.85508 19.9033 6.98992 20.0013 8.46249C20.5305 8.69535 20.93 9.18778 20.974 9.81156C20.9779 9.86674 20.9779 9.92622 20.9779 9.98135C20.9779 9.98637 20.9779 9.99136 20.9779 9.99631V13.5102C20.9779 13.5151 20.9779 13.5201 20.9779 13.5252C20.9779 13.5803 20.9779 13.6398 20.974 13.6949C20.93 14.3187 20.5305 14.8112 20.0013 15.044C19.9033 16.5166 19.6332 17.6514 18.7859 18.4988C18.0999 19.1848 17.23 19.4892 16.1553 19.6337C15.111 19.7741 13.7767 19.7741 12.0921 19.7741H9.23866C7.55404 19.7741 6.21971 19.7741 5.17543 19.6337C4.10071 19.4892 3.23084 19.1848 2.54484 18.4988C1.85884 17.8128 1.5544 16.9429 1.40991 15.8682C1.26951 14.8239 1.26952 13.4896 1.26953 11.805V11.7015C1.26952 10.0169 1.26951 8.6826 1.40991 7.63832C1.5544 6.5636 1.85884 5.69373 2.54484 5.00773C3.23084 4.32173 4.10071 4.01729 5.17543 3.8728C6.21971 3.7324 7.55404 3.73241 9.23865 3.73242ZM18.611 15.1908H16.8352C14.8688 15.1908 13.1862 13.6988 13.1862 11.7533C13.1862 9.80768 14.8688 8.31576 16.8352 8.31576H18.611C18.5066 7.08609 18.2706 6.43699 17.8136 5.98C17.4257 5.59206 16.8943 5.35953 15.9721 5.23553C15.0301 5.10888 13.7883 5.10742 12.0404 5.10742H9.29037C7.54245 5.10742 6.30067 5.10888 5.35864 5.23553C4.43639 5.35953 3.90505 5.59206 3.51711 5.98C3.12917 6.36794 2.89664 6.89929 2.77264 7.82153C2.64599 8.76356 2.64453 10.0053 2.64453 11.7533C2.64453 13.5012 2.64599 14.743 2.77264 15.685C2.89664 16.6072 3.12917 17.1386 3.51711 17.5265C3.90505 17.9145 4.43639 18.147 5.35864 18.271C6.30067 18.3976 7.54245 18.3991 9.29037 18.3991H12.0404C13.7883 18.3991 15.0301 18.3976 15.9721 18.271C16.8943 18.147 17.4257 17.9145 17.8136 17.5265C18.2706 17.0695 18.5066 16.4204 18.611 15.1908ZM19.3036 9.69096C19.285 9.69076 19.2606 9.69076 19.2209 9.69076H16.8352C15.5305 9.69076 14.5612 10.6613 14.5612 11.7533C14.5612 12.8453 15.5305 13.8158 16.8352 13.8158H19.2209C19.2606 13.8158 19.285 13.8157 19.3036 13.8155C19.315 13.8154 19.3211 13.8153 19.3239 13.8152L19.326 13.8151C19.5149 13.8036 19.5962 13.676 19.6024 13.5993C19.6024 13.5993 19.6026 13.5936 19.6027 13.5853C19.6029 13.569 19.6029 13.5473 19.6029 13.5102V9.99631C19.6029 9.95918 19.6029 9.9375 19.6027 9.92123C19.6026 9.91294 19.6024 9.90717 19.6024 9.90717C19.5962 9.83047 19.5149 9.70295 19.326 9.69145C19.326 9.69145 19.3214 9.69115 19.3036 9.69096ZM6.54037 8.31576C6.92006 8.31576 7.22787 8.62356 7.22787 9.00326V14.5033C7.22787 14.883 6.92006 15.1908 6.54037 15.1908C6.16067 15.1908 5.85287 14.883 5.85287 14.5033V9.00326C5.85287 8.62356 6.16067 8.31576 6.54037 8.31576Z" fill="#808290"/>
</svg>
